<?xml version="1.0" encoding="UTF-8" standalone="no"?>
<svg
   xmlns:dc="http://purl.org/dc/elements/1.1/"
   xmlns:cc="http://creativecommons.org/ns#"
   xmlns:rdf="http://www.w3.org/1999/02/22-rdf-syntax-ns#"
   xmlns:svg="http://www.w3.org/2000/svg"
   xmlns="http://www.w3.org/2000/svg"
   viewBox="0 0 682.66669 341.33334"
   height="341.33334"
   width="682.66669"
   xml:space="preserve"
   id="svg2"
   version="1.1"><metadata
     id="metadata8"><rdf:RDF><cc:Work
         rdf:about=""><dc:format>image/svg+xml</dc:format><dc:type
           rdf:resource="http://purl.org/dc/dcmitype/StillImage" /></cc:Work></rdf:RDF></metadata><defs
     id="defs6"><clipPath
       id="clipPath402"
       clipPathUnits="userSpaceOnUse"><path
         id="path400"
         d="m 2560,216.672 c -508.15,0 -920.1,21.707 -920.1,48.488 0,26.77 411.95,48.481 920.1,48.481 v 0 c 508.15,0 920.1,-21.711 920.1,-48.481 0,-26.781 -411.95,-48.488 -920.1,-48.488" /></clipPath></defs><g
     transform="matrix(1.3333333,0,0,-1.3333333,0,341.33333)"
     id="g10"><g
       transform="scale(0.1)"
       id="g12"><path
         id="path14"
         style="fill:#468ed3;fill-opacity:1;fill-rule:nonzero;stroke:none"
         d="M 0,0 H 5120 V 2560 H 0 Z" /><path
         id="path16"
         style="fill:#9acceb;fill-opacity:1;fill-rule:nonzero;stroke:none"
         d="m 2135.18,2111.89 c -22.09,0 -40,17.91 -40,39.99 0,22.1 17.91,40.01 40,40.01 22.09,0 40,-17.91 40,-40.01 0,-22.08 -17.91,-39.99 -40,-39.99" /><path
         id="path18"
         style="fill:#9acceb;fill-opacity:1;fill-rule:nonzero;stroke:none"
         d="m 2980,2175.55 c -22.09,0 -40,17.91 -40,40 0,22.09 17.91,40 40,40 22.09,0 40,-17.91 40,-40 0,-22.09 -17.91,-40 -40,-40" /><path
         id="path20"
         style="fill:#9acceb;fill-opacity:1;fill-rule:nonzero;stroke:none"
         d="m 1556,1517.54 c -22.09,0 -40,17.91 -40,40 0,22.09 17.91,40 40,40 22.09,0 40,-17.91 40,-40 0,-22.09 -17.91,-40 -40,-40" /><path
         id="path22"
         style="fill:#9acceb;fill-opacity:1;fill-rule:nonzero;stroke:none"
         d="m 960,1290.68 c -22.09,0 -40,17.91 -40,40 0,22.09 17.91,40 40,40 22.09,0 40,-17.91 40,-40 0,-22.09 -17.91,-40 -40,-40" /><path
         id="path24"
         style="fill:#9acceb;fill-opacity:1;fill-rule:nonzero;stroke:none"
         d="m 1588.07,1017.97 c -22.09,0 -40,17.91 -40,40 0,22.09 17.91,40 40,40 22.09,0 40,-17.91 40,-40 0,-22.09 -17.91,-40 -40,-40" /><path
         id="path26"
         style="fill:#9acceb;fill-opacity:1;fill-rule:nonzero;stroke:none"
         d="m 1346.66,2098.69 c -22.09,0 -40,17.91 -40,40 0,22.09 17.91,40 40,40 22.09,0 40,-17.91 40,-40 0,-22.09 -17.91,-40 -40,-40" /><path
         id="path28"
         style="fill:#9acceb;fill-opacity:1;fill-rule:nonzero;stroke:none"
         d="m 850.566,737.23 c -22.089,0 -40,17.911 -40,40 0,22.09 17.911,40 40,40 22.09,0 40,-17.91 40,-40 0,-22.089 -17.91,-40 -40,-40" /><path
         id="path30"
         style="fill:#9acceb;fill-opacity:1;fill-rule:nonzero;stroke:none"
         d="m 1588.07,697.23 c -22.09,0 -40,17.911 -40,40 0,22.09 17.91,40 40,40 22.09,0 40,-17.91 40,-40 0,-22.089 -17.91,-40 -40,-40" /><path
         id="path32"
         style="fill:#9acceb;fill-opacity:1;fill-rule:nonzero;stroke:none"
         d="m 1050.31,371.262 c -22.09,0 -40,17.91 -40,40 0,22.09 17.91,40 40,40 22.09,0 40,-17.91 40,-40 0,-22.09 -17.91,-40 -40,-40" /><path
         id="path34"
         style="fill:#9acceb;fill-opacity:1;fill-rule:nonzero;stroke:none"
         d="m 3567.03,1606.71 c -22.09,0 -40,17.92 -40,40 0,22.09 17.91,40 40,40 22.09,0 40,-17.91 40,-40 0,-22.08 -17.91,-40 -40,-40" /><path
         id="path36"
         style="fill:#9acceb;fill-opacity:1;fill-rule:nonzero;stroke:none"
         d="m 4000.06,1297.4 c -22.09,0 -40,17.91 -40,40 0,22.09 17.91,40 40,40 22.09,0 40,-17.91 40,-40 0,-22.09 -17.91,-40 -40,-40" /><path
         id="path38"
         style="fill:#9acceb;fill-opacity:1;fill-rule:nonzero;stroke:none"
         d="m 3515.2,1103.27 c -22.09,0 -40,17.91 -40,40 0,22.09 17.91,40 40,40 22.09,0 40,-17.91 40,-40 0,-22.09 -17.91,-40 -40,-40" /><path
         id="path40"
         style="fill:#9acceb;fill-opacity:1;fill-rule:nonzero;stroke:none"
         d="m 3813.33,2078.89 c -22.09,0 -40,17.91 -40,40 0,22.09 17.91,40 40,40 22.09,0 40,-17.91 40,-40 0,-22.09 -17.91,-40 -40,-40" /><path
         id="path42"
         style="fill:#9acceb;fill-opacity:1;fill-rule:nonzero;stroke:none"
         d="m 4258.07,737.23 c -22.09,0 -40,17.911 -40,40 0,22.09 17.91,40 40,40 22.09,0 40,-17.91 40,-40 0,-22.089 -17.91,-40 -40,-40" /><path
         id="path44"
         style="fill:#9acceb;fill-opacity:1;fill-rule:nonzero;stroke:none"
         d="m 3520.57,697.23 c -22.09,0 -40,17.911 -40,40 0,22.09 17.91,40 40,40 22.09,0 40,-17.91 40,-40 0,-22.089 -17.91,-40 -40,-40" /><path
         id="path46"
         style="fill:#9acceb;fill-opacity:1;fill-rule:nonzero;stroke:none"
         d="m 4058.32,371.262 c -22.09,0 -40,17.91 -40,40 0,22.09 17.91,40 40,40 22.09,0 40,-17.91 40,-40 0,-22.09 -17.91,-40 -40,-40" /><path
         id="path48"
         style="fill:#9acceb;fill-opacity:1;fill-rule:nonzero;stroke:none"
         d="m 1113.07,1113.9 c -18.22,0 -36.15,4.93 -52.18,14.55 -39.42,23.66 -52.24,74.99 -28.58,114.41 9.45,15.73 24.45,26.86 42.26,31.3 5.56,1.39 11.19,2.08 16.78,2.08 12.3,0 24.42,-3.34 35.24,-9.83 13.04,-7.84 22.26,-20.28 25.95,-35.04 3.69,-14.76 1.41,-30.08 -6.43,-43.13 -6.54,-10.89 -16.93,-18.58 -29.25,-21.67 -3.86,-0.95 -7.75,-1.43 -11.62,-1.43 -8.52,0 -16.91,2.3 -24.4,6.8 -9.17,5.5 -15.66,14.25 -18.25,24.64 -2.59,10.37 -0.99,21.15 4.52,30.32 4.68,7.81 12.11,13.31 20.94,15.52 2.75,0.69 5.53,1.02 8.29,1.02 6.11,0 12.12,-1.65 17.48,-4.87 6.7,-4.02 11.43,-10.41 13.32,-17.98 1.89,-7.58 0.72,-15.43 -3.3,-22.13 -4.76,-7.93 -13.2,-12.31 -21.83,-12.31 -2.29,0 -4.58,0.31 -6.83,0.94 3.23,-1.29 6.64,-1.95 10.1,-1.95 2.24,0 4.49,0.28 6.73,0.84 7.14,1.78 13.17,6.25 16.95,12.55 10.5,17.49 4.81,40.24 -12.67,50.73 -7.67,4.61 -16.27,6.97 -25,6.97 -3.96,0 -7.94,-0.48 -11.87,-1.46 -12.62,-3.17 -23.27,-11.04 -29.96,-22.2 -17.99,-29.97 -8.24,-68.99 21.73,-86.97 12.87,-7.73 27.29,-11.69 41.93,-11.69 6.65,0 13.33,0.81 19.94,2.47 21.18,5.29 39.03,18.51 50.27,37.23 l 17.15,-10.29 c -13.99,-23.3 -36.21,-39.77 -62.57,-46.35 -8.24,-2.06 -16.57,-3.07 -24.84,-3.07 m -16.75,109.54 c -1.14,0 -2.29,-0.14 -3.43,-0.43 -3.64,-0.9 -6.7,-3.19 -8.64,-6.4 -2.75,-4.6 -3.56,-9.99 -2.26,-15.18 1.13,-4.5 3.7,-8.38 7.35,-11.13 l 9.96,16.6 c 0.86,-0.51 1.82,-0.75 2.76,-0.75 1.83,0 3.62,0.92 4.63,2.6 2.63,4.37 1.21,10.06 -3.16,12.68 -2.21,1.32 -4.69,2.01 -7.21,2.01" /><path
         id="path50"
         style="fill:#9acceb;fill-opacity:1;fill-rule:nonzero;stroke:none"
         d="m 3904.7,1096.53 c -22.69,0 -45.54,7.14 -64.93,21.93 -38.53,29.36 -45.97,84.61 -16.61,123.12 11.7,15.35 28.69,25.24 47.82,27.81 3.29,0.45 6.58,0.67 9.84,0.67 15.73,0 30.92,-5.12 43.64,-14.81 26.23,-20 31.31,-57.61 11.31,-83.84 -9.79,-12.86 -24.67,-19.62 -39.71,-19.62 -10.54,0 -21.16,3.32 -30.17,10.19 -18.36,14 -21.92,40.32 -7.91,58.7 6.97,9.16 17.56,13.97 28.27,13.97 7.51,0 15.08,-2.36 21.49,-7.25 6.46,-4.92 10.62,-12.07 11.7,-20.11 1.09,-8.06 -1.02,-16.06 -5.95,-22.51 -5.18,-6.79 -13.03,-10.36 -20.97,-10.36 -5.56,0 -11.17,1.76 -15.93,5.38 -1.28,0.98 -2.43,2.07 -3.45,3.24 1.3,-1.93 2.93,-3.67 4.88,-5.15 5.39,-4.12 11.75,-6.11 18.07,-6.11 9,0 17.92,4.05 23.78,11.76 13.31,17.46 9.93,42.5 -7.54,55.8 -9.19,7.01 -20.19,10.71 -31.56,10.71 -2.36,0 -4.74,-0.16 -7.12,-0.48 -13.84,-1.85 -26.12,-9 -34.59,-20.12 -22.67,-29.74 -16.92,-72.41 12.83,-95.09 15.78,-12.03 34.37,-17.84 52.82,-17.84 26.34,0 52.39,11.84 69.56,34.35 l 15.9,-12.13 c -21.09,-27.67 -53.11,-42.21 -85.47,-42.21 m -18.47,118.13 c -4.1,0 -8.16,-1.62 -11.15,-4.71 l 13.05,-9.95 c -1.01,-1.35 -0.75,-3.27 0.59,-4.3 1.15,-0.87 2.5,-1.29 3.83,-1.29 1.91,0 3.79,0.87 5.04,2.49 1.68,2.22 2.4,4.96 2.03,7.71 -0.37,2.75 -1.79,5.2 -4.01,6.87 -2.8,2.15 -6.1,3.18 -9.38,3.18" /><path
         id="path52"
         style="fill:#9acceb;fill-opacity:1;fill-rule:nonzero;stroke:none"
         d="m 1891.74,2088.8 c -22.68,0 -45.53,7.15 -64.92,21.93 -38.53,29.37 -45.97,84.61 -16.62,123.13 14.21,18.63 35.77,28.43 57.57,28.43 15.28,0 30.68,-4.81 43.74,-14.77 26.23,-19.99 31.3,-57.6 11.31,-83.84 -9.81,-12.85 -24.69,-19.61 -39.72,-19.61 -10.54,0 -21.16,3.32 -30.16,10.18 -18.37,14 -21.92,40.34 -7.92,58.7 5.76,7.55 14.1,12.4 23.5,13.67 1.62,0.22 3.24,0.33 4.85,0.33 7.71,0 15.18,-2.52 21.42,-7.28 6.46,-4.91 10.62,-12.06 11.7,-20.12 1.09,-8.05 -1.03,-16.04 -5.95,-22.5 -5.19,-6.78 -13.04,-10.35 -20.98,-10.35 -5.56,0 -11.17,1.75 -15.92,5.38 -1.28,0.98 -2.43,2.06 -3.45,3.23 1.3,-1.92 2.92,-3.67 4.87,-5.15 5.4,-4.11 11.76,-6.1 18.07,-6.1 9.01,0 17.91,4.05 23.79,11.74 13.31,17.47 9.93,42.51 -7.53,55.82 -9.45,7.2 -20.59,10.68 -31.64,10.68 -15.77,0 -31.36,-7.09 -41.64,-20.56 -22.68,-29.76 -16.93,-72.42 12.83,-95.1 15.77,-12.03 34.36,-17.84 52.82,-17.84 26.33,0 52.39,11.84 69.55,34.34 l 15.91,-12.12 c -21.1,-27.67 -53.11,-42.22 -85.48,-42.22 m -18.44,118.15 c -0.7,0 -1.41,-0.05 -2.11,-0.15 -3.49,-0.47 -6.65,-2.07 -9.07,-4.57 l 13.06,-9.97 c -1.02,-1.33 -0.76,-3.26 0.59,-4.28 1.1,-0.84 2.42,-1.3 3.78,-1.3 0.3,0 0.59,0.02 0.89,0.07 1.68,0.22 3.17,1.09 4.19,2.43 1.69,2.21 2.41,4.95 2.04,7.7 -0.37,2.76 -1.79,5.2 -4,6.89 -2.73,2.07 -6,3.18 -9.37,3.18" /><path
         id="path54"
         style="fill:#9acceb;fill-opacity:1;fill-rule:nonzero;stroke:none"
         d="m 3223.62,2126.7 c -22.68,0 -45.53,7.15 -64.93,21.93 -38.51,29.37 -45.97,84.61 -16.6,123.13 14.2,18.63 35.76,28.43 57.56,28.43 15.28,0 30.67,-4.81 43.74,-14.76 26.23,-20 31.31,-57.61 11.32,-83.85 -9.8,-12.85 -24.68,-19.61 -39.71,-19.61 -10.55,0 -21.17,3.32 -30.19,10.18 -18.36,14 -21.91,40.33 -7.91,58.71 5.76,7.54 14.1,12.39 23.49,13.66 1.62,0.22 3.23,0.32 4.83,0.32 7.75,0 15.2,-2.5 21.45,-7.27 6.46,-4.91 10.61,-12.06 11.7,-20.11 1.08,-8.06 -1.03,-16.05 -5.96,-22.51 -5.18,-6.78 -13.03,-10.35 -20.97,-10.35 -5.56,0 -11.17,1.75 -15.92,5.38 -1.28,0.98 -2.43,2.06 -3.44,3.23 1.29,-1.92 2.92,-3.67 4.86,-5.15 5.4,-4.11 11.76,-6.1 18.07,-6.1 9.01,0 17.92,4.04 23.79,11.74 13.3,17.47 9.92,42.51 -7.54,55.82 -9.45,7.21 -20.59,10.69 -31.63,10.69 -15.77,0 -31.36,-7.09 -41.64,-20.57 -22.68,-29.76 -16.93,-72.42 12.83,-95.1 15.78,-12.04 34.37,-17.85 52.82,-17.85 26.34,0 52.39,11.84 69.55,34.36 l 15.9,-12.13 c -21.08,-27.67 -53.1,-42.22 -85.47,-42.22 m -18.44,118.14 c -0.7,0 -1.4,-0.04 -2.1,-0.14 -3.5,-0.47 -6.66,-2.07 -9.08,-4.57 l 13.06,-9.97 c -1.02,-1.33 -0.75,-3.26 0.59,-4.28 1.11,-0.85 2.43,-1.29 3.81,-1.29 0.29,0 0.57,0.02 0.86,0.05 1.67,0.23 3.17,1.1 4.19,2.44 1.68,2.21 2.42,4.95 2.03,7.7 -0.37,2.76 -1.78,5.2 -3.99,6.88 -2.74,2.08 -5.99,3.18 -9.37,3.18" /><path
         id="path56"
         style="fill:#9acceb;fill-opacity:1;fill-rule:nonzero;stroke:none"
         d="m 750.781,439.25 c -22.679,0 -45.535,7.141 -64.926,21.922 -38.527,29.367 -45.972,84.598 -16.613,123.137 14.203,18.621 35.766,28.421 57.571,28.421 15.277,0 30.671,-4.808 43.734,-14.769 26.23,-19.992 31.305,-57.602 11.312,-83.852 -9.804,-12.847 -24.687,-19.597 -39.722,-19.597 -10.539,0 -21.157,3.32 -30.164,10.187 -18.364,13.992 -21.914,40.332 -7.914,58.699 5.754,7.543 14.093,12.391 23.496,13.661 1.593,0.211 3.183,0.32 4.769,0.32 7.735,0 15.246,-2.5 21.504,-7.27 6.457,-4.91 10.613,-12.058 11.699,-20.121 1.09,-8.047 -1.031,-16.039 -5.953,-22.5 -5.179,-6.789 -13.031,-10.359 -20.969,-10.359 -5.566,0 -11.171,1.762 -15.929,5.391 -1.278,0.98 -2.426,2.058 -3.442,3.23 1.297,-1.922 2.918,-3.672 4.864,-5.148 5.398,-4.114 11.761,-6.102 18.074,-6.102 9.008,0 17.91,4.051 23.785,11.738 13.305,17.473 9.926,42.512 -7.535,55.821 -9.449,7.203 -20.59,10.679 -31.637,10.679 -15.769,0 -31.359,-7.09 -41.633,-20.558 -22.683,-29.758 -16.929,-72.418 12.825,-95.11 15.777,-12.019 34.367,-17.832 52.82,-17.832 26.34,0 52.391,11.832 69.551,34.344 l 15.906,-12.133 C 815.16,453.789 783.148,439.25 750.781,439.25 m -18.386,118.141 c -0.719,0 -1.442,-0.051 -2.165,-0.153 -3.492,-0.468 -6.652,-2.066 -9.07,-4.566 l 13.059,-9.961 c -1.02,-1.34 -0.758,-3.27 0.59,-4.289 1.109,-0.852 2.445,-1.293 3.808,-1.293 0.285,0 0.574,0.019 0.86,0.062 1.679,0.219 3.171,1.079 4.195,2.43 1.683,2.207 2.406,4.938 2.035,7.699 -0.371,2.758 -1.789,5.2 -4.004,6.879 -2.719,2.082 -5.949,3.192 -9.308,3.192" /><path
         id="path58"
         style="fill:#9acceb;fill-opacity:1;fill-rule:nonzero;stroke:none"
         d="m 4304.07,476.488 c -22.68,0 -45.53,7.141 -64.93,21.934 -38.51,29.359 -45.97,84.598 -16.6,123.129 14.2,18.629 35.76,28.429 57.56,28.429 15.28,0 30.68,-4.82 43.74,-14.769 26.23,-19.992 31.31,-57.602 11.32,-83.852 -9.81,-12.847 -24.68,-19.621 -39.72,-19.621 -10.54,0 -21.16,3.321 -30.18,10.203 -18.36,14 -21.91,40.329 -7.91,58.7 5.75,7.539 14.1,12.398 23.49,13.668 1.6,0.211 3.2,0.312 4.78,0.312 7.77,0 15.23,-2.492 21.5,-7.269 6.45,-4.911 10.61,-12.063 11.7,-20.114 1.08,-8.047 -1.03,-16.039 -5.96,-22.5 -5.17,-6.789 -13.02,-10.367 -20.96,-10.367 -5.57,0 -11.18,1.758 -15.93,5.399 -1.28,0.968 -2.43,2.058 -3.44,3.23 1.29,-1.93 2.92,-3.672 4.86,-5.16 5.39,-4.11 11.75,-6.102 18.07,-6.102 9.01,0 17.92,4.051 23.79,11.75 13.3,17.473 9.92,42.512 -7.54,55.821 -9.45,7.203 -20.59,10.679 -31.63,10.679 -15.77,0 -31.36,-7.09 -41.64,-20.566 -22.68,-29.75 -16.93,-72.422 12.83,-95.102 15.77,-12.031 34.37,-17.84 52.82,-17.84 26.34,0 52.39,11.84 69.55,34.348 l 15.9,-12.129 c -21.08,-27.66 -53.1,-42.211 -85.47,-42.211 m -18.38,118.153 c -0.71,0 -1.44,-0.051 -2.16,-0.161 -3.5,-0.468 -6.66,-2.07 -9.08,-4.57 l 13.06,-9.961 c -1.02,-1.34 -0.75,-3.258 0.59,-4.289 1.11,-0.84 2.41,-1.289 3.79,-1.289 0.29,0 0.58,0.02 0.88,0.059 1.67,0.23 3.17,1.09 4.19,2.441 1.68,2.199 2.42,4.938 2.03,7.699 -0.37,2.75 -1.78,5.2 -3.99,6.879 -2.72,2.071 -5.94,3.192 -9.31,3.192" /><path
         id="path60"
         style="fill:#fbd227;fill-opacity:1;fill-rule:nonzero;stroke:none"
         d="m 1336.66,1413.5 18.89,-58.13 h 61.12 l -49.45,-35.93 18.89,-58.13 -49.45,35.93 -49.45,-35.93 18.89,58.13 -49.45,35.93 h 61.12 l 18.89,58.13" /><path
         id="path62"
         style="fill:#fbd227;fill-opacity:1;fill-rule:nonzero;stroke:none"
         d="m 2015.57,2058.87 17.63,-54.26 h 57.06 l -46.16,-33.55 17.63,-54.26 -46.16,33.54 -46.17,-33.54 17.64,54.26 -46.17,33.55 h 57.06 l 17.64,54.26" /><path
         id="path64"
         style="fill:#fbd227;fill-opacity:1;fill-rule:nonzero;stroke:none"
         d="m 3689.99,1396.46 17.79,-54.77 h 57.59 l -46.58,-33.85 17.79,-54.77 -46.59,33.85 -46.59,-33.85 17.79,54.77 -46.58,33.85 h 57.59 l 17.79,54.77" /><path
         id="path66"
         style="fill:#fbd227;fill-opacity:1;fill-rule:nonzero;stroke:none"
         d="m 3110,2051.84 17.54,-53.97 h 56.74 l -45.91,-33.35 17.54,-53.97 -45.91,33.35 -45.91,-33.35 17.54,53.97 -45.91,33.35 h 56.74 l 17.54,53.97" /><path
         id="path68"
         style="fill:#fbd227;fill-opacity:1;fill-rule:nonzero;stroke:none"
         d="m 960,709.262 18.887,-58.133 h 61.123 L 990.563,615.199 1009.45,557.07 960,593 l -49.449,-35.93 18.887,58.129 -49.45,35.93 h 61.125 L 960,709.262" /><path
         id="path70"
         style="fill:#fbd227;fill-opacity:1;fill-rule:nonzero;stroke:none"
         d="m 4071.38,751.102 17.79,-54.774 h 57.59 l -46.58,-33.848 17.79,-54.769 -46.59,33.84 -46.59,-33.84 17.79,54.769 -46.58,33.848 h 57.58 l 17.8,54.774" /><path
         id="path72"
         style="fill:#ffffff;fill-opacity:1;fill-rule:nonzero;stroke:none"
         d="m 1637.27,2179.95 h 64.14 v -267.26 h -64.14 v 267.26" /><path
         id="path74"
         style="fill:#ffffff;fill-opacity:1;fill-rule:nonzero;stroke:none"
         d="m 1556,2109.35 h 64.14 V 1912.69 H 1556 v 196.66" /><path
         id="path76"
         style="fill:#ffffff;fill-opacity:1;fill-rule:nonzero;stroke:none"
         d="m 1474.72,2046.32 h 64.15 v -133.63 h -64.15 v 133.63" /><path
         id="path78"
         style="fill:#ffffff;fill-opacity:1;fill-rule:nonzero;stroke:none"
         d="m 3344.29,1995.35 c 0,26.47 21.46,47.94 47.95,47.94 26.48,0 47.95,-21.47 47.95,-47.94 0,-26.48 -21.47,-47.96 -47.95,-47.96 -26.49,0 -47.95,21.48 -47.95,47.96 z m 150.91,-16.51 v 33.02 h -32.43 c -1.8,7.79 -4.88,15.09 -8.98,21.69 l 22.92,22.93 -23.34,23.33 -22.92,-22.92 c -6.6,4.12 -13.92,7.18 -21.7,9 v 32.41 h -33.02 v -32.41 c -7.79,-1.82 -15.1,-4.88 -21.7,-9 l -22.92,22.92 -23.34,-23.33 22.92,-22.93 c -4.11,-6.6 -7.17,-13.9 -8.99,-21.69 h -32.41 v -33.02 h 32.41 c 1.82,-7.79 4.88,-15.1 8.99,-21.7 l -22.92,-22.92 23.33,-23.34 22.93,22.92 c 6.6,-4.11 13.91,-7.18 21.7,-9 v -32.41 h 33.02 v 32.41 c 7.78,1.82 15.09,4.89 21.7,9 l 22.91,-22.92 23.35,23.34 -22.92,22.92 c 4.1,6.6 7.18,13.91 8.98,21.7 h 32.43" /><path
         id="path80"
         style="fill:#ffffff;fill-opacity:1;fill-rule:nonzero;stroke:none"
         d="m 3519.08,2110.49 c 0,26.47 21.47,47.95 47.95,47.95 26.49,0 47.95,-21.48 47.95,-47.95 0,-26.49 -21.46,-47.95 -47.95,-47.95 -26.48,0 -47.95,21.46 -47.95,47.95 z m 150.91,-16.51 v 33.01 h -32.42 c -1.81,7.8 -4.88,15.1 -8.99,21.7 l 22.92,22.92 -23.34,23.34 -22.92,-22.92 c -6.6,4.11 -13.91,7.18 -21.7,8.99 v 32.42 h -33.01 v -32.42 c -7.8,-1.81 -15.11,-4.88 -21.7,-8.99 l -22.92,22.92 -23.34,-23.34 22.92,-22.92 c -4.11,-6.6 -7.18,-13.9 -9,-21.7 h -32.41 v -33.01 h 32.41 c 1.82,-7.79 4.89,-15.1 9,-21.71 l -22.92,-22.91 23.33,-23.34 22.93,22.92 c 6.59,-4.12 13.9,-7.18 21.7,-8.99 v -32.42 h 33.01 v 32.42 c 7.79,1.81 15.09,4.87 21.7,8.99 l 22.91,-22.92 23.35,23.34 -22.92,22.91 c 4.11,6.61 7.18,13.92 8.99,21.71 h 32.42" /><path
         id="path82"
         style="fill:#ffffff;fill-opacity:1;fill-rule:nonzero;stroke:none"
         d="m 1407.77,1090.78 c 2.5,19.72 4.98,39.42 7.47,59.12 11.3,-4.58 19.31,-15.65 19.31,-28.58 0,-15.61 -11.7,-28.53 -26.78,-30.54 z m -149,30.54 c 0,13.29 8.47,24.62 20.29,28.94 2.5,-19.87 5.02,-39.75 7.54,-59.62 -15.6,1.53 -27.83,14.7 -27.83,30.68 z m 188.11,0 c 0,19.25 -12.65,35.55 -30.05,41.12 1.12,8.91 2.25,17.83 3.38,26.72 -48.69,0 -97.38,0 -146.08,0 1.11,-8.82 2.23,-17.62 3.35,-26.43 -17.91,-5.26 -31.04,-21.82 -31.04,-41.41 0,-23.31 18.59,-42.32 41.72,-43.09 1.31,-10.31 2.61,-20.6 3.91,-30.92 11.03,-14.67 26.46,-23.47 42.76,-26.41 v -84.591 h -23.89 c -6.81,0 -12.34,-5.528 -12.34,-12.34 0,-6.821 5.53,-12.328 12.34,-12.328 h 72.46 c 6.81,0 12.33,5.507 12.33,12.328 0,6.812 -5.52,12.34 -12.33,12.34 h -23.89 v 84.591 c 16.3,2.94 31.74,11.74 42.76,26.41 1.3,10.33 2.61,20.64 3.91,30.97 22.66,1.3 40.7,20.08 40.7,43.04" /><path
         id="path84"
         style="fill:#ffffff;fill-opacity:1;fill-rule:nonzero;stroke:none"
         d="m 3738.96,1076.76 c 0,-24.06 -19.5,-43.58 -43.56,-43.58 h -13.71 c -24.06,0 -43.56,19.52 -43.56,43.58 v 78.44 c 0,24.06 19.5,43.57 43.56,43.57 h 13.71 c 24.06,0 43.56,-19.51 43.56,-43.57 v -78.44" /><path
         id="path86"
         style="fill:#ffffff;fill-opacity:1;fill-rule:nonzero;stroke:none"
         d="m 3688.54,995.41 c -48.04,0 -87.14,39.1 -87.14,87.17 0,4.8 3.9,8.69 8.71,8.69 4.81,0 8.71,-3.89 8.71,-8.69 0,-38.46 31.29,-69.73 69.72,-69.73 38.44,0 69.73,31.27 69.73,69.73 0,4.8 3.9,8.69 8.7,8.69 4.83,0 8.72,-3.89 8.72,-8.69 0,-48.07 -39.09,-87.17 -87.15,-87.17" /><path
         id="path88"
         style="fill:#ffffff;fill-opacity:1;fill-rule:nonzero;stroke:none"
         d="m 3705.2,954.59 c 0,-9.199 -7.46,-16.66 -16.66,-16.66 -9.19,0 -16.66,7.461 -16.66,16.66 v 41.582 c 0,9.218 7.47,16.678 16.66,16.678 9.2,0 16.66,-7.46 16.66,-16.678 V 954.59" /><path
         id="path90"
         style="fill:#ffffff;fill-opacity:1;fill-rule:nonzero;stroke:none"
         d="m 3745.28,935.02 c 0,-8.829 -7.15,-15.981 -15.97,-15.981 h -81.52 c -8.83,0 -15.98,7.152 -15.98,15.981 0,8.832 7.15,16 15.98,16 h 81.52 c 8.82,0 15.97,-7.168 15.97,-16" /><path
         id="path92"
         style="fill:#ffffff;fill-opacity:1;fill-rule:nonzero;stroke:none"
         d="m 2303.52,1698.04 c 0,40.96 -33.21,74.17 -74.17,74.17 -40.97,0 -74.17,-33.21 -74.17,-74.17 0,-31.31 19.41,-58.08 46.85,-68.96 v -23.25 c 0,-9.92 8.12,-18.04 18.04,-18.04 h 18.55 c 9.92,0 18.04,8.12 18.04,18.04 v 23.25 c 27.44,10.88 46.86,37.65 46.86,68.96" /><path
         id="path94"
         style="fill:#ffffff;fill-opacity:1;fill-rule:nonzero;stroke:none"
         d="m 2975.09,1709.95 h -48.38 v 54.49 c 0,10.03 -8.13,18.16 -18.17,18.16 -10.02,0 -18.15,-8.13 -18.15,-18.16 v -69.46 c 0,-1.35 0.16,-2.66 0.44,-3.93 -0.28,-1.37 -0.44,-2.77 -0.44,-4.22 v -35.31 l -15.24,15.24 c -7.46,7.46 -19.57,7.46 -27.04,0 l -2.48,-2.48 c -7.47,-7.46 -7.46,-19.57 0,-27.03 l 45.97,-45.98 1.62,-1.43 c 4.16,-7.39 12.48,-12.44 22.08,-12.44 h 59.79 c 13.76,0 24.91,10.35 24.91,23.12 v 86.31 c 0,12.78 -11.15,23.12 -24.91,23.12" /><path
         id="path96"
         style="fill:#ffffff;fill-opacity:1;fill-rule:nonzero;stroke:none"
         d="m 842.219,1572.16 c -5.324,0 -10.461,-0.61 -15.305,-1.7 -7.812,28.79 -41.152,50.42 -81.101,50.42 -40.188,0 -73.672,-21.89 -81.223,-50.92 -5.41,1.4 -11.199,2.2 -17.254,2.2 -29.023,0 -52.551,-17.45 -52.551,-38.99 0,-21.52 23.528,-38.97 52.551,-38.97 17.715,0 77.039,0 98.477,0 20.835,0 79.207,0 96.406,0 29.019,0 52.547,17.45 52.547,38.97 0,21.54 -23.528,38.99 -52.547,38.99" /><path
         id="path98"
         style="fill:#ffffff;fill-opacity:1;fill-rule:nonzero;stroke:none"
         d="m 4462.22,1572.16 c -5.33,0 -10.46,-0.61 -15.31,-1.7 -7.81,28.79 -41.15,50.42 -81.1,50.42 -40.18,0 -73.67,-21.89 -81.22,-50.92 -5.41,1.4 -11.2,2.2 -17.26,2.2 -29.02,0 -52.54,-17.45 -52.54,-38.99 0,-21.52 23.52,-38.97 52.54,-38.97 17.72,0 77.05,0 98.48,0 20.84,0 79.21,0 96.41,0 29.02,0 52.55,17.45 52.55,38.97 0,21.54 -23.53,38.99 -52.55,38.99" /><path
         id="path100"
         style="fill:#86c0e6;fill-opacity:1;fill-rule:nonzero;stroke:none"
         d="m 3965,2031.17 c -127.82,0 -232.3,-99.69 -240.06,-225.56 H 3225 c -63.41,0 -115,-51.59 -115,-115 v -381.14 h 30 v 381.14 c 0,46.87 38.13,85 85,85 h 499.94 c 7.76,-125.88 112.24,-225.57 240.06,-225.57 132.86,0 240.57,107.71 240.57,240.57 0,132.86 -107.71,240.56 -240.57,240.56" /><path
         id="path102"
         style="fill:#86c0e6;fill-opacity:1;fill-rule:nonzero;stroke:none"
         d="m 2890.02,2031.17 c 0,165.69 -134.32,300 -300,300 -165.68,0 -300,-134.31 -300,-300 0,-160.65 126.29,-291.8 285,-299.62 v -240.5 h 30 v 240.5 c 158.71,7.82 285,138.97 285,299.62" /><path
         id="path104"
         style="fill:#86c0e6;fill-opacity:1;fill-rule:nonzero;stroke:none"
         d="m 1900.57,1805.61 h -499.95 c -7.75,125.87 -112.24,225.56 -240.05,225.56 -132.86,0 -240.57,-107.7 -240.57,-240.56 0,-132.86 107.71,-240.57 240.57,-240.57 127.81,0 232.3,99.69 240.05,225.57 h 499.95 c 46.86,0 85,-38.13 85,-85 v -381.14 h 30 v 381.14 c 0,63.41 -51.6,115 -115,115" /><path
         id="path106"
         style="fill:#86c0e6;fill-opacity:1;fill-rule:nonzero;stroke:none"
         d="m 1115.63,857.332 c -46.87,0 -85,38.137 -85,85 v 54.898 23.08 30 c 0,63.41 -51.583,115 -114.997,115 h -65.27 C 846.09,1294.42 740.152,1397.79 610,1397.79 c -132.859,0 -240.566,-107.7 -240.566,-240.56 0,-132.86 107.707,-240.57 240.566,-240.57 125.469,0 228.453,96.06 239.527,218.65 h 66.106 c 46.871,0 85.007,-38.13 85.007,-85 v -30 -23.08 -54.898 c 0,-63.402 51.58,-115 114.99,-115 h 605.38 v 30 h -605.38" /><path
         id="path108"
         style="fill:#86c0e6;fill-opacity:1;fill-rule:nonzero;stroke:none"
         d="m 4474.43,1397.79 c -130.14,0 -236.09,-103.37 -240.36,-232.48 h -115.9 c -63.4,0 -115,-51.59 -115,-115 v -30 -23.08 -54.898 c 0,-46.863 -38.13,-85 -85,-85 h -605.38 v -30 h 605.38 c 63.41,0 115,51.598 115,115 v 54.898 23.08 30 c 0,46.87 38.14,85 85,85 h 116.73 c 11.09,-122.59 114.06,-218.65 239.53,-218.65 132.87,0 240.57,107.71 240.57,240.57 0,132.86 -107.7,240.56 -240.57,240.56" /><path
         id="path110"
         style="fill:#25374d;fill-opacity:1;fill-rule:nonzero;stroke:none"
         d="m 4093.02,1920.17 c 0,3.97 -3.24,7.22 -7.22,7.22 h -252.44 c -3.97,0 -7.21,-3.25 -7.21,-7.22 v -29.68 h 266.87 v 29.68" /><path
         id="path112"
         style="fill:#ffffff;fill-opacity:1;fill-rule:nonzero;stroke:none"
         d="m 3826.15,1890.49 v -218.63 c 0,-3.98 3.24,-7.22 7.21,-7.22 h 252.44 c 3.98,0 7.22,3.24 7.22,7.22 v 218.63 h -266.87" /><path
         id="path114"
         style="fill:#a5e0cc;fill-opacity:1;fill-rule:nonzero;stroke:none"
         d="m 4071.38,1747.19 h -223.6 v 127.92 h 223.6 v -127.92" /><path
         id="path116"
         style="fill:#71b49f;fill-opacity:1;fill-rule:nonzero;stroke:none"
         d="m 4071.38,1747.19 h -223.6 v 12.38 h 223.6 v -12.38" /><path
         id="path118"
         style="fill:#f0365b;fill-opacity:1;fill-rule:nonzero;stroke:none"
         d="m 3946.84,1792.71 0.01,42.19 36.53,-21.1 z" /><path
         id="path120"
         style="fill:#ffffff;fill-opacity:1;fill-rule:nonzero;stroke:none"
         d="m 3959.58,1850.66 c -20.32,0 -36.87,-16.53 -36.87,-36.86 0,-20.32 16.55,-36.86 36.87,-36.86 20.33,0 36.87,16.54 36.87,36.86 0,20.33 -16.54,36.86 -36.87,36.86 z m 0,-77.33 c -22.31,0 -40.47,18.15 -40.47,40.47 0,22.33 18.16,40.48 40.47,40.48 22.32,0 40.48,-18.15 40.48,-40.48 0,-22.32 -18.16,-40.47 -40.48,-40.47" /><path
         id="path122"
         style="fill:#ffffff;fill-opacity:1;fill-rule:nonzero;stroke:none"
         d="m 3855.41,1908.94 c 0,-4.21 -3.42,-7.63 -7.63,-7.63 -4.21,0 -7.62,3.42 -7.62,7.63 0,4.21 3.41,7.62 7.62,7.62 4.21,0 7.63,-3.41 7.63,-7.62" /><path
         id="path124"
         style="fill:#ffffff;fill-opacity:1;fill-rule:nonzero;stroke:none"
         d="m 3877.05,1908.94 c 0,-4.21 -3.42,-7.63 -7.63,-7.63 -4.21,0 -7.62,3.42 -7.62,7.63 0,4.21 3.41,7.62 7.62,7.62 4.21,0 7.63,-3.41 7.63,-7.62" /><path
         id="path126"
         style="fill:#ffffff;fill-opacity:1;fill-rule:nonzero;stroke:none"
         d="m 3898.69,1908.94 c 0,-4.21 -3.42,-7.63 -7.63,-7.63 -4.21,0 -7.63,3.42 -7.63,7.63 0,4.21 3.42,7.62 7.63,7.62 4.21,0 7.63,-3.41 7.63,-7.62" /><path
         id="path128"
         style="fill:#ffffff;fill-opacity:1;fill-rule:nonzero;stroke:none"
         d="m 4067.77,1908.94 c 0,-4.21 -3.41,-7.63 -7.62,-7.63 h -141.62 c -4.21,0 -7.63,3.42 -7.63,7.63 0,4.21 3.42,7.62 7.63,7.62 h 141.62 c 4.21,0 7.62,-3.41 7.62,-7.62" /><path
         id="path130"
         style="fill:#395c70;fill-opacity:1;fill-rule:nonzero;stroke:none"
         d="M 4058.75,1727.41 H 3860.4 c -1.99,0 -3.6,1.62 -3.6,3.61 0,2 1.61,3.61 3.6,3.61 h 198.35 c 2,0 3.61,-1.61 3.61,-3.61 0,-1.99 -1.61,-3.61 -3.61,-3.61" /><path
         id="path132"
         style="fill:#395c70;fill-opacity:1;fill-rule:nonzero;stroke:none"
         d="M 4058.75,1705.77 H 3860.4 c -1.99,0 -3.6,1.62 -3.6,3.62 0,1.98 1.61,3.6 3.6,3.6 h 198.35 c 2,0 3.61,-1.62 3.61,-3.6 0,-2 -1.61,-3.62 -3.61,-3.62" /><path
         id="path134"
         style="fill:#395c70;fill-opacity:1;fill-rule:nonzero;stroke:none"
         d="M 4058.75,1684.14 H 3860.4 c -1.99,0 -3.6,1.61 -3.6,3.6 0,2.01 1.61,3.61 3.6,3.61 h 198.35 c 2,0 3.61,-1.6 3.61,-3.61 0,-1.99 -1.61,-3.6 -3.61,-3.6" /><path
         id="path136"
         style="fill:#5c8aac;fill-opacity:1;fill-rule:nonzero;stroke:none"
         d="m 4096.62,1653.82 h -252.44 c -3.97,0 -7.22,3.24 -7.22,7.21 v 3.61 h 248.84 c 3.98,0 7.22,3.24 7.22,7.22 v 218.63 26.07 h 3.6 c 3.97,0 7.22,-3.24 7.22,-7.21 v -29.68 -218.64 c 0,-3.97 -3.25,-7.21 -7.22,-7.21" /><path
         id="path138"
         style="fill:#ffffff;fill-opacity:1;fill-rule:nonzero;stroke:none"
         d="m 2671.58,2225.45 h -189.87 c -3.63,0 -6.6,-2.97 -6.6,-6.6 V 1901.3 c 0,-3.62 2.97,-6.6 6.6,-6.6 h 224.33 c 3.63,0 6.6,2.98 6.6,6.6 v 283.09 l -41.06,41.06" /><path
         id="path140"
         style="fill:#5c8aac;fill-opacity:1;fill-rule:nonzero;stroke:none"
         d="m 2686.01,1884.8 h -194.4 c -3.64,0 -6.6,2.98 -6.6,6.61 v 3.29 h 191.11 l 9.89,-9.9 m 36.52,23.33 -9.89,9.89 v 266.37 l 9.89,-9.89 v -266.37" /><path
         id="path142"
         style="fill:#bdbcba;fill-opacity:1;fill-rule:nonzero;stroke:none"
         d="m 2712.64,2184.39 -31.16,31.16 31.16,-31.16" /><path
         id="path144"
         style="fill:#f26054;fill-opacity:1;fill-rule:nonzero;stroke:none"
         d="m 2671.58,2191 c 0,-3.63 2.98,-6.6 6.6,-6.6 h 34.46 l -41.06,41.05 V 2191" /><path
         id="path146"
         style="fill:#395c70;fill-opacity:1;fill-rule:nonzero;stroke:none"
         d="m 2667.36,2138.69 h -145.15 v 13.2 h 145.15 v -13.2" /><path
         id="path148"
         style="fill:#395c70;fill-opacity:1;fill-rule:nonzero;stroke:none"
         d="m 2667.36,2105.7 h -145.15 v 13.19 h 145.15 v -13.19" /><path
         id="path150"
         style="fill:#395c70;fill-opacity:1;fill-rule:nonzero;stroke:none"
         d="m 2667.36,2072.71 h -145.15 v 13.2 h 145.15 v -13.2" /><path
         id="path152"
         style="fill:#395c70;fill-opacity:1;fill-rule:nonzero;stroke:none"
         d="m 2667.36,2039.72 h -145.15 v 13.19 h 145.15 v -13.19" /><path
         id="path154"
         style="fill:#395c70;fill-opacity:1;fill-rule:nonzero;stroke:none"
         d="m 2667.36,2006.73 h -145.15 v 13.19 h 145.15 v -13.19" /><path
         id="path156"
         style="fill:#395c70;fill-opacity:1;fill-rule:nonzero;stroke:none"
         d="m 2667.36,1973.73 h -145.15 v 13.2 h 145.15 v -13.2" /><path
         id="path158"
         style="fill:#fcd4c7;fill-opacity:1;fill-rule:nonzero;stroke:none"
         d="m 2643.06,1964.28 11.56,-34.69 23.13,23.12 -34.69,11.57" /><path
         id="path160"
         style="fill:#fbd227;fill-opacity:1;fill-rule:nonzero;stroke:none"
         d="m 2752.5,1831.51 1.55,-1.55 c 6.45,-6.44 16.89,-6.44 23.33,0 6.44,6.44 6.45,16.88 0,23.33 l -1.55,1.55 -23.33,-23.33" /><path
         id="path162"
         style="fill:#51c396;fill-opacity:1;fill-rule:nonzero;stroke:none"
         d="m 2654.62,1929.59 0.1,-0.3 46.66,-46.66 46.65,-46.65 11.67,11.67 11.66,11.66 -46.66,46.65 -46.65,46.66 -0.3,0.09 -23.13,-23.12" /><path
         id="path164"
         style="fill:#44be90;fill-opacity:1;fill-rule:nonzero;stroke:none"
         d="m 2748.03,1835.98 -46.65,46.65 -46.66,46.66 -0.1,0.3 4.68,4.66 0.08,-0.29 46.66,-46.66 46.65,-46.66 -4.66,-4.66" /><path
         id="path166"
         style="fill:#fcd4c7;fill-opacity:1;fill-rule:nonzero;stroke:none"
         d="m 2748.03,1835.98 4.47,-4.47 23.33,23.33 -4.47,4.47 -11.66,-11.66 -11.67,-11.67" /><path
         id="path168"
         style="fill:#395c70;fill-opacity:1;fill-rule:nonzero;stroke:none"
         d="m 2647.91,1949.71 c 2.52,0.23 4.97,1.27 6.91,3.2 1.8,1.8 2.82,4.06 3.15,6.4 l -14.91,4.97 4.85,-14.57" /><path
         id="path170"
         style="fill:#5c8aac;fill-opacity:1;fill-rule:nonzero;stroke:none"
         d="m 2759.12,1818.53 c -4.22,0 -8.44,1.61 -11.66,4.83 l -1.55,1.56 -4.48,4.46 -46.65,46.66 -8.77,8.76 h 13.19 l 2.18,-2.17 46.65,-46.65 4.47,-4.47 1.55,-1.55 c 0.33,-0.33 0.67,-0.64 1.01,-0.93 3.07,-2.6 6.86,-3.9 10.66,-3.9 2.67,0 5.35,0.64 7.77,1.94 -0.73,-1.32 -1.59,-2.59 -2.7,-3.71 -3.22,-3.22 -7.45,-4.83 -11.67,-4.83" /><path
         id="path172"
         style="fill:#bdbcba;fill-opacity:1;fill-rule:nonzero;stroke:none"
         d="m 2689.31,1894.7 h -13.19 l -28,27.99 -0.09,0.29 -11.57,34.7 9.89,-3.29 1.56,-4.68 v 0 l 6.71,-20.12 0.1,-0.3 34.59,-34.59" /><path
         id="path174"
         style="fill:#43657e;fill-opacity:1;fill-rule:nonzero;stroke:none"
         d="m 2699.2,1884.8 h -13.19 l -9.89,9.9 h 13.19 l 9.89,-9.9" /><path
         id="path176"
         style="fill:#bb9d91;fill-opacity:1;fill-rule:nonzero;stroke:none"
         d="m 2654.62,1929.59 -6.71,20.12 c 0,0 0,0 0.01,0 l 6.7,-20.12" /><path
         id="path178"
         style="fill:#b79c1c;fill-opacity:1;fill-rule:nonzero;stroke:none"
         d="m 2765.72,1825.13 c -3.8,0 -7.59,1.3 -10.66,3.9 3.04,-2.58 6.8,-3.86 10.56,-3.86 2.73,0 5.47,0.68 7.93,2.01 -0.02,-0.04 -0.04,-0.07 -0.06,-0.11 -2.42,-1.3 -5.1,-1.94 -7.77,-1.94" /><path
         id="path180"
         style="fill:#2c4351;fill-opacity:1;fill-rule:nonzero;stroke:none"
         d="m 2647.91,1949.71 -1.56,4.68 h 0.01 l 1.56,-4.68 c -0.01,0 -0.01,0 -0.01,0 v 0" /><path
         id="path182"
         style="fill:#ffffff;fill-opacity:1;fill-rule:nonzero;stroke:none"
         d="m 1293.02,1670.98 c 0,-7.62 -6.24,-13.87 -13.87,-13.87 H 1029.5 c -7.62,0 -13.87,6.25 -13.87,13.87 v 249.65 c 0,7.62 6.25,13.87 13.87,13.87 h 249.65 c 7.63,0 13.87,-6.25 13.87,-13.87 v -249.65" /><path
         id="path184"
         style="fill:#5c8aac;fill-opacity:1;fill-rule:nonzero;stroke:none"
         d="m 1289.55,1646.71 h -249.64 c -6.55,0 -12.05,4.62 -13.48,10.75 0.99,-0.23 2.02,-0.35 3.07,-0.35 v 0 h 249.65 c 7.63,0 13.87,6.25 13.87,13.87 v 249.65 0 c 0,1.06 -0.12,2.09 -0.35,3.08 6.13,-1.43 10.75,-6.93 10.75,-13.48 v -249.65 c 0,-7.62 -6.24,-13.87 -13.87,-13.87" /><path
         id="path186"
         style="fill:#bdbcba;fill-opacity:1;fill-rule:nonzero;stroke:none"
         d="m 1029.5,1657.11 c -1.05,0 -2.08,0.12 -3.07,0.35 0,0.01 -0.01,0.02 -0.01,0.04 1,-0.23 2.02,-0.39 3.08,-0.39 m 263.52,263.52 c 0,1.07 -0.15,2.08 -0.39,3.09 0.01,0 0.03,-0.01 0.04,-0.01 0.23,-0.99 0.35,-2.02 0.35,-3.08 v 0" /><path
         id="path188"
         style="fill:#fcd293;fill-opacity:1;fill-rule:nonzero;stroke:none"
         d="m 1040.48,1795.8 h 227.691 v 105.352 H 1040.48 Z" /><path
         id="path190"
         style="fill:#9db9e5;fill-opacity:1;fill-rule:nonzero;stroke:none"
         d="m 1146.24,1795.8 75.12,41.61 46.81,-41.61 h -121.93" /><path
         id="path192"
         style="fill:#8fabdf;fill-opacity:1;fill-rule:nonzero;stroke:none"
         d="m 1268.17,1795.8 h -16.76 l -30.05,41.61 46.81,-41.61" /><path
         id="path194"
         style="fill:#51c396;fill-opacity:1;fill-rule:nonzero;stroke:none"
         d="m 1040.48,1795.8 73.36,52.68 80.97,-52.68 h -154.33" /><path
         id="path196"
         style="fill:#44be90;fill-opacity:1;fill-rule:nonzero;stroke:none"
         d="m 1194.81,1795.8 h -33.55 l -47.42,52.68 80.97,-52.68" /><path
         id="path198"
         style="fill:#f79522;fill-opacity:1;fill-rule:nonzero;stroke:none"
         d="m 1095.39,1871.11 c 0,-5.75 -4.66,-10.41 -10.41,-10.41 -5.74,0 -10.4,4.66 -10.4,10.41 0,5.75 4.66,10.4 10.4,10.4 5.75,0 10.41,-4.65 10.41,-10.4" /><path
         id="path200"
         style="fill:#f28e1e;fill-opacity:1;fill-rule:nonzero;stroke:none"
         d="m 1084.98,1860.7 v 0 l -1.73,0.19 c 4.91,0.82 8.67,5.07 8.67,10.22 0,5.16 -3.76,9.4 -8.67,10.23 l 1.73,0.17 c 5.75,0 10.41,-4.65 10.41,-10.4 0,-5.75 -4.66,-10.41 -10.41,-10.41" /><path
         id="path202"
         style="fill:#ffffff;fill-opacity:1;fill-rule:nonzero;stroke:none"
         d="m 1227.89,1858.78 c -1.09,2.82 -5.08,4.93 -9.89,4.93 -4.09,0 -7.59,-1.54 -9.23,-3.73 -3.39,-0.02 -6.15,-2.07 -6.15,-4.6 0,-2.55 2.77,-4.61 6.18,-4.61 1.44,0 2.75,0.38 3.81,1 1.56,-0.62 3.41,-1 5.39,-1 1.94,0 3.72,0.36 5.26,0.95 1.08,-0.59 2.44,-0.95 3.95,-0.95 3.41,0 6.18,1.81 6.18,4.03 0,2.06 -2.4,3.76 -5.5,3.98" /><path
         id="path204"
         style="fill:#ffffff;fill-opacity:1;fill-rule:nonzero;stroke:none"
         d="m 1148.03,1865.24 c -1.22,3.14 -5.66,5.48 -11,5.48 -4.56,0 -8.46,-1.7 -10.28,-4.16 -3.78,-0.01 -6.85,-2.29 -6.85,-5.11 0,-2.83 3.09,-5.12 6.88,-5.12 1.61,0 3.07,0.42 4.24,1.1 1.74,-0.69 3.79,-1.1 6.01,-1.1 2.14,0 4.13,0.4 5.85,1.06 1.18,-0.66 2.71,-1.06 4.39,-1.06 3.79,0 6.88,2 6.88,4.47 0,2.31 -2.69,4.19 -6.12,4.44" /><path
         id="path206"
         style="fill:#758796;fill-opacity:1;fill-rule:nonzero;stroke:none"
         d="m 1258.34,1761.02 h -208.03 v 13.88 h 208.03 v -13.88" /><path
         id="path208"
         style="fill:#758796;fill-opacity:1;fill-rule:nonzero;stroke:none"
         d="m 1258.34,1726.35 h -208.03 v 13.88 h 208.03 v -13.88" /><path
         id="path210"
         style="fill:#758796;fill-opacity:1;fill-rule:nonzero;stroke:none"
         d="m 1258.34,1691.68 h -208.03 v 13.88 h 208.03 v -13.88" /><path
         id="path212"
         style="fill:#e1e8f7;fill-opacity:1;fill-rule:nonzero;stroke:none"
         d="m 455.449,1059.77 h 299.734 v 199.82 H 455.449 Z" /><path
         id="path214"
         style="fill:#ffffff;fill-opacity:1;fill-rule:nonzero;stroke:none"
         d="m 465.855,1059.77 h 278.922 v 174.539 H 465.855 Z" /><path
         id="path216"
         style="fill:#f26054;fill-opacity:1;fill-rule:nonzero;stroke:none"
         d="m 455.449,1234.61 h 299.734 v 24.9805 H 455.449 Z" /><path
         id="path218"
         style="fill:#f0365b;fill-opacity:1;fill-rule:nonzero;stroke:none"
         d="m 674.008,1137.25 h -24.985 v 74.92 h 24.985 v -74.92" /><path
         id="path220"
         style="fill:#51c396;fill-opacity:1;fill-rule:nonzero;stroke:none"
         d="m 636.543,1137.25 h -24.98 v 62.44 h 24.98 v -62.44" /><path
         id="path222"
         style="fill:#7163b8;fill-opacity:1;fill-rule:nonzero;stroke:none"
         d="m 599.07,1137.25 h -24.976 v 56.19 h 24.976 v -56.19" /><path
         id="path224"
         style="fill:#fbd227;fill-opacity:1;fill-rule:nonzero;stroke:none"
         d="m 561.605,1137.25 h -24.98 v 49.95 h 24.98 v -49.95" /><path
         id="path226"
         style="fill:#758796;fill-opacity:1;fill-rule:nonzero;stroke:none"
         d="M 702.621,1119.9 H 502.805 v 6.25 h 199.816 v -6.25" /><path
         id="path228"
         style="fill:#758796;fill-opacity:1;fill-rule:nonzero;stroke:none"
         d="M 702.621,1101.17 H 502.805 v 6.25 h 199.816 v -6.25" /><path
         id="path230"
         style="fill:#758796;fill-opacity:1;fill-rule:nonzero;stroke:none"
         d="M 702.621,1082.44 H 502.805 v 6.24 h 199.816 v -6.24" /><path
         id="path232"
         style="fill:#5c8aac;fill-opacity:1;fill-rule:nonzero;stroke:none"
         d="M 764.551,1050.4 H 464.816 v 9.37 h 290.368 v 174.84 15.61 h 9.367 v -24.97 -174.85" /><path
         id="path234"
         style="fill:#ffffff;fill-opacity:1;fill-rule:nonzero;stroke:none"
         d="m 4586.82,1013.12 -234.22,-0.29 -0.39,317.56 234.22,0.29 0.39,-317.56" /><path
         id="path236"
         style="fill:#5c8aac;fill-opacity:1;fill-rule:nonzero;stroke:none"
         d="m 4366.11,999.32 v 13.52 l 220.71,0.28 -0.02,17.58 12.99,-12.96 0.54,-0.55 0.02,-17.581 -234.24,-0.289 m 234.18,56.45 -13.54,13.51 -0.29,247.88 13.52,0.04 0.31,-261.43" /><path
         id="path238"
         style="fill:#56a5df;fill-opacity:1;fill-rule:nonzero;stroke:none"
         d="m 4565.14,1259.39 -189.19,-0.22 -0.08,46.48 189.2,0.22 0.07,-46.48" /><path
         id="path240"
         style="fill:#f0365b;fill-opacity:1;fill-rule:nonzero;stroke:none"
         d="m 4465.08,1103.43 -84.44,-0.1 -0.05,38.66 84.45,0.1 0.04,-38.66" /><path
         id="path242"
         style="fill:#71b49f;fill-opacity:1;fill-rule:nonzero;stroke:none"
         d="M 4556.17,1211.29 4385,1211.07 c -2.49,0 -4.5,2.01 -4.5,4.5 -0.01,2.48 2.01,4.51 4.49,4.51 l 171.16,0.2 c 2.51,0 4.53,-2 4.53,-4.5 0,-2.48 -2.02,-4.49 -4.51,-4.49" /><path
         id="path244"
         style="fill:#71b49f;fill-opacity:1;fill-rule:nonzero;stroke:none"
         d="m 4556.13,1238.3 -171.16,-0.21 c -2.48,0 -4.49,2.03 -4.49,4.51 -0.02,2.49 2,4.5 4.49,4.5 l 171.16,0.2 c 2.5,0 4.5,-2.01 4.5,-4.49 0,-2.48 -2,-4.51 -4.5,-4.51" /><path
         id="path246"
         style="fill:#71b49f;fill-opacity:1;fill-rule:nonzero;stroke:none"
         d="m 4556.21,1184.26 -171.17,-0.22 c -2.48,0 -4.52,2.01 -4.52,4.49 0,2.51 2.03,4.53 4.51,4.53 l 171.18,0.19 c 2.48,0 4.48,-2.02 4.48,-4.49 0.03,-2.51 -2,-4.5 -4.48,-4.5" /><path
         id="path248"
         style="fill:#71b49f;fill-opacity:1;fill-rule:nonzero;stroke:none"
         d="M 4486.32,1157.13 4383.27,1157 c -1.51,0 -2.72,2.02 -2.72,4.52 0,2.47 1.21,4.49 2.71,4.49 l 103.06,0.13 c 1.48,0.01 2.7,-2.01 2.71,-4.49 0,-2.48 -1.21,-4.52 -2.71,-4.52" /><path
         id="path250"
         style="fill:#71b49f;fill-opacity:1;fill-rule:nonzero;stroke:none"
         d="m 4558.55,1107.68 -85.59,-0.11 c -1.23,0 -2.25,2.02 -2.25,4.5 -0.01,2.49 1.02,4.51 2.25,4.51 l 85.58,0.09 c 1.23,0 2.26,-2.02 2.26,-4.49 0,-2.47 -1,-4.5 -2.25,-4.5" /><path
         id="path252"
         style="fill:#71b49f;fill-opacity:1;fill-rule:nonzero;stroke:none"
         d="m 4558.53,1130.19 -85.59,-0.1 c -1.24,0 -2.25,2.04 -2.25,4.51 0,2.47 0.99,4.51 2.25,4.51 l 85.59,0.1 c 1.24,0 2.22,-2.03 2.25,-4.51 0,-2.49 -1.01,-4.49 -2.25,-4.51" /><path
         id="path254"
         style="fill:#71b49f;fill-opacity:1;fill-rule:nonzero;stroke:none"
         d="m 4556.34,1080.64 -171.17,-0.2 c -2.51,-0.01 -4.52,2 -4.52,4.5 -0.01,2.46 2.01,4.49 4.51,4.49 l 171.18,0.21 c 2.48,0.01 4.49,-2 4.49,-4.49 0,-2.49 -2,-4.51 -4.49,-4.51" /><path
         id="path256"
         style="fill:#71b49f;fill-opacity:1;fill-rule:nonzero;stroke:none"
         d="m 4490.84,1053.52 -107.34,-0.12 c -1.54,0 -2.81,2.03 -2.83,4.52 0,2.46 1.26,4.48 2.83,4.49 l 107.33,0.13 c 1.57,0 2.83,-2.02 2.83,-4.47 0,-2.5 -1.26,-4.53 -2.82,-4.55" /><path
         id="path258"
         style="fill:#51c396;fill-opacity:1;fill-rule:nonzero;stroke:none"
         d="m 4599.79,1017.74 2.78,-2.8 c 3.62,-3.6 9.48,-3.59 13.09,0.01 3.6,3.6 3.6,9.45 -0.03,13.07 l -2.8,2.8 -13.04,-13.08" /><path
         id="path260"
         style="fill:#25374d;fill-opacity:1;fill-rule:nonzero;stroke:none"
         d="m 4546.12,1097.35 c -3.6,3.62 -9.46,3.62 -13.06,0 -3.62,-3.62 -3.6,-9.48 0.02,-13.08 l 66.71,-66.53 13.04,13.08 -66.71,66.53" /><path
         id="path262"
         style="fill:#495d73;fill-opacity:1;fill-rule:nonzero;stroke:none"
         d="m 4536.01,1087.22 c -3.1,3.1 -3.54,7.83 -1.3,11.4 l -1.65,-1.27 c -3.62,-3.62 -3.6,-9.48 0.02,-13.08 l 66.71,-66.53 2.92,2.93 -66.7,66.55" /><path
         id="path264"
         style="fill:#7ed2b7;fill-opacity:1;fill-rule:nonzero;stroke:none"
         d="m 4605.52,1017.88 -2.81,2.79 -2.92,-2.93 2.78,-2.8 c 3.62,-3.6 9.48,-3.59 13.09,0.01 l 1.29,1.65 c -3.57,-2.23 -8.33,-1.81 -11.43,1.28" /><path
         id="path266"
         style="fill:#b8e5f9;fill-opacity:1;fill-rule:nonzero;stroke:none"
         d="m 4463.5,1089.53 c -2.61,0.93 -5.16,2.04 -7.65,3.34 1.82,1.43 3.57,2.98 5.24,4.66 3.91,3.91 7.17,8.22 9.8,12.79 0.34,-1.61 1.15,-2.75 2.07,-2.75 l 57.28,0.07 c -1.12,-1.35 -2.32,-2.65 -3.58,-3.92 -6.49,-6.51 -14.1,-11.22 -22.23,-14.14 l -40.93,-0.05 m 10.53,27.05 c 1.88,4.37 3.23,8.9 4.05,13.51 l 63.99,0.08 c -1.29,-4.67 -3.16,-9.22 -5.59,-13.52 l -62.45,-0.07 m 4.98,22.54 c 0.17,6.05 -0.54,12.12 -2.14,18 l 9.45,0.01 c 1.5,0 2.71,2.04 2.71,4.52 -0.01,2.47 -1.22,4.49 -2.7,4.49 h -0.01 l -12.68,-0.01 c -2.94,6.52 -7.06,12.63 -12.39,18.01 l 69.74,0.09 c 10.44,-12.98 14.73,-29.31 12.85,-45.04 l -64.83,-0.07 m 51.17,27.59 c -1.87,0 -3.73,-0.72 -5.16,-2.15 -2.81,-2.82 -2.81,-7.43 0.03,-10.27 1.42,-1.42 3.28,-2.12 5.14,-2.12 1.87,0 3.73,0.71 5.14,2.13 2.84,2.84 2.84,7.45 0,10.26 -1.43,1.43 -3.29,2.15 -5.15,2.15 m -80.24,26.42 c -0.82,0.51 -1.65,0.99 -2.49,1.46 10.73,8.12 23.58,12.19 36.44,12.19 13.55,0 27.1,-4.52 38.18,-13.57 l -72.13,-0.08" /><path
         id="path268"
         style="fill:#7ec6d7;fill-opacity:1;fill-rule:nonzero;stroke:none"
         d="m 4461.25,1184.14 c -0.08,0.08 -0.17,0.17 -0.25,0.25 -3.41,3.4 -7.13,6.31 -11.06,8.74 l 72.13,0.08 c 1.54,-1.26 3.04,-2.61 4.48,-4.05 1.59,-1.58 3.07,-3.23 4.44,-4.93 l -69.74,-0.09" /><path
         id="path270"
         style="fill:#7ec6d7;fill-opacity:1;fill-rule:nonzero;stroke:none"
         d="m 4476.87,1157.12 c -0.84,3.06 -1.92,6.08 -3.23,9.01 l 12.68,0.01 h 0.01 c 1.48,0 2.69,-2.02 2.7,-4.49 0,-2.48 -1.21,-4.52 -2.71,-4.52 l -9.45,-0.01" /><path
         id="path272"
         style="fill:#7ec6d7;fill-opacity:1;fill-rule:nonzero;stroke:none"
         d="m 4472.96,1107.57 c -0.92,0 -1.73,1.14 -2.07,2.75 1.17,2.04 2.22,4.13 3.14,6.26 l 62.45,0.07 c -1.78,-3.15 -3.86,-6.16 -6.24,-9.01 l -57.28,-0.07" /><path
         id="path274"
         style="fill:#7ec6d7;fill-opacity:1;fill-rule:nonzero;stroke:none"
         d="m 4478.08,1130.09 c 0.53,2.99 0.84,6 0.93,9.03 l 64.83,0.07 c -0.36,-3.04 -0.95,-6.06 -1.77,-9.02 l -63.99,-0.08" /><path
         id="path276"
         style="fill:#7ec6d7;fill-opacity:1;fill-rule:nonzero;stroke:none"
         d="m 4483.9,1086 c -6.91,0 -13.82,1.18 -20.4,3.53 l 40.93,0.05 c -6.61,-2.39 -13.57,-3.58 -20.53,-3.58" /><path
         id="path278"
         style="fill:#b8e5f9;fill-opacity:1;fill-rule:nonzero;stroke:none"
         d="m 4483.89,1079.88 v 0 c 0.02,0 0.04,0 0.05,0 -0.01,0 -0.03,0 -0.05,0 m -0.03,0 c -3.13,0 -6.26,0.22 -9.37,0.66 v 0 c 3.11,-0.44 6.24,-0.66 9.37,-0.66 m -34.51,9.63 c -4.36,2.65 -8.48,5.84 -12.26,9.59 0,-0.01 0,-0.01 0,-0.01 3.78,-3.74 7.9,-6.93 12.26,-9.58 v 0" /><path
         id="path280"
         style="fill:#7ec6d7;fill-opacity:1;fill-rule:nonzero;stroke:none"
         d="m 4474.49,1080.54 c -8.77,1.24 -17.34,4.23 -25.14,8.97 v 0 c 7.8,-4.74 16.37,-7.73 25.14,-8.97 v 0" /><path
         id="path282"
         style="fill:#b8e5f9;fill-opacity:1;fill-rule:nonzero;stroke:none"
         d="m 4437.07,1099.11 c -0.06,0.06 -0.12,0.13 -0.19,0.19 v 0 c 0.07,-0.06 0.13,-0.13 0.19,-0.19 v 0" /><path
         id="path284"
         style="fill:#b8e5f9;fill-opacity:1;fill-rule:nonzero;stroke:none"
         d="m 4530.07,1194.3 c -8.99,8.67 -19.84,14.31 -31.24,16.92 v 0 c 11.4,-2.61 22.25,-8.25 31.24,-16.92" /><path
         id="path286"
         style="fill:#7ec6d7;fill-opacity:1;fill-rule:nonzero;stroke:none"
         d="m 4498.83,1211.22 c -4.89,1.11 -9.89,1.68 -14.88,1.68 5,0 9.99,-0.56 14.88,-1.68 v 0 m -14.98,1.68 c 0.02,0 0.04,0 0.05,0 v 0 c -0.01,0 -0.03,0 -0.05,0" /><path
         id="path288"
         style="fill:#25374d;fill-opacity:1;fill-rule:nonzero;stroke:none"
         d="m 4531.01,1099.4 c -25.92,-25.98 -68.13,-26.04 -94.13,-0.1 -25.96,25.9 -26,68.12 -0.09,94.08 25.91,25.98 68.12,26.03 94.09,0.13 25.97,-25.91 26.02,-68.14 0.13,-94.11 m -103.06,102.79 c -30.82,-30.88 -30.76,-80.92 0.13,-111.73 30.88,-30.83 80.93,-30.76 111.73,0.14 30.83,30.87 30.78,80.91 -0.12,111.72 -30.89,30.83 -80.92,30.77 -111.74,-0.13" /><path
         id="path290"
         style="fill:#7da0b8;fill-opacity:1;fill-rule:nonzero;stroke:none"
         d="m 4483.89,1079.88 c -0.01,0 -0.02,0 -0.03,0 -3.13,0 -6.26,0.22 -9.37,0.66 l 18.96,0.02 c -3.15,-0.45 -6.33,-0.68 -9.51,-0.68 -0.01,0 -0.03,0 -0.05,0 m -34.54,9.63 c -4.36,2.65 -8.48,5.84 -12.26,9.58 3.83,-3.78 8,-6.93 12.42,-9.58 h -0.16 m 1.82,0 c 1.6,1.04 3.16,2.16 4.68,3.36 2.49,-1.3 5.04,-2.41 7.65,-3.34 l -12.33,-0.02 m 53.26,0.07 c 8.13,2.92 15.74,7.63 22.23,14.14 1.26,1.27 2.46,2.57 3.58,3.92 l 7.76,0.01 c -2.07,-2.89 -4.4,-5.65 -6.99,-8.25 -3.83,-3.83 -8.01,-7.1 -12.44,-9.81 l -14.14,-0.01 m 32.05,27.07 c 2.43,4.3 4.3,8.85 5.59,13.52 h 6.34 c -1.16,-4.63 -2.82,-9.17 -4.99,-13.52 h -6.94 m 7.36,22.54 c 1.88,15.73 -2.41,32.06 -12.85,45.04 l 7.64,0.01 c 7.83,-11.32 11.75,-24.54 11.77,-37.76 0,-2.43 -0.13,-4.86 -0.39,-7.28 l -6.17,-0.01 m -21.77,54.02 c -11.08,9.05 -24.63,13.57 -38.18,13.57 -12.86,0 -25.71,-4.07 -36.44,-12.19 -1.99,1.1 -4.02,2.08 -6.08,2.95 -0.75,-0.62 -1.48,-1.24 -2.2,-1.88 8.65,7.86 18.9,13.04 29.64,15.52 l 30.02,0.04 c 11.4,-2.61 22.25,-8.25 31.24,-16.92 0.16,-0.16 0.32,-0.31 0.48,-0.47 0.11,-0.11 0.22,-0.22 0.33,-0.32 0.09,-0.1 0.19,-0.19 0.28,-0.29 l -9.09,-0.01" /><path
         id="path292"
         style="fill:#6290a5;fill-opacity:1;fill-rule:nonzero;stroke:none"
         d="m 4468.81,1211.18 c 4.94,1.14 9.99,1.72 15.04,1.72 0.02,0 0.04,0 0.05,0 0.02,0 0.04,0 0.05,0 4.99,0 9.99,-0.57 14.88,-1.68 l -30.02,-0.04" /><path
         id="path294"
         style="fill:#6290a5;fill-opacity:1;fill-rule:nonzero;stroke:none"
         d="m 4530.99,1184.23 c -1.37,1.7 -2.85,3.35 -4.44,4.93 -1.44,1.44 -2.94,2.79 -4.48,4.05 l 9.09,0.01 c 2.79,-2.82 5.29,-5.83 7.47,-8.98 l -7.64,-0.01" /><path
         id="path296"
         style="fill:#6290a5;fill-opacity:1;fill-rule:nonzero;stroke:none"
         d="m 4530.24,1107.64 c 2.38,2.85 4.46,5.86 6.24,9.01 h 6.94 c -1.55,-3.1 -3.36,-6.12 -5.42,-9 l -7.76,-0.01" /><path
         id="path298"
         style="fill:#6290a5;fill-opacity:1;fill-rule:nonzero;stroke:none"
         d="m 4542.07,1130.17 c 0.82,2.96 1.41,5.98 1.77,9.02 l 6.17,0.01 c -0.33,-3.04 -0.86,-6.05 -1.6,-9.03 h -6.34" /><path
         id="path300"
         style="fill:#6290a5;fill-opacity:1;fill-rule:nonzero;stroke:none"
         d="m 4474.49,1080.54 c -8.77,1.24 -17.34,4.23 -25.14,8.97 h 0.16 c 0.29,-0.17 0.57,-0.34 0.86,-0.51 0.27,0.17 0.53,0.34 0.8,0.51 l 12.33,0.02 c 6.58,-2.35 13.49,-3.53 20.4,-3.53 6.96,0 13.92,1.19 20.53,3.58 l 14.14,0.01 c -7.79,-4.75 -16.35,-7.76 -25.12,-9.03 l -18.96,-0.02" /><path
         id="path302"
         style="fill:#364a61;fill-opacity:1;fill-rule:nonzero;stroke:none"
         d="m 4483.89,1079.88 c -0.01,0 -0.02,0 -0.03,0 0.01,0 0.02,0 0.03,0 v 0 m 0.05,0 c 17.05,0.01 34.1,6.52 47.07,19.52 12.94,12.99 19.41,30.04 19.39,47.08 0.02,-17.04 -6.45,-34.09 -19.39,-47.08 -12.97,-13 -30.01,-19.51 -47.07,-19.52 m 46.61,113.95 c -0.16,0.16 -0.32,0.31 -0.48,0.47 0.16,-0.16 0.32,-0.31 0.48,-0.47 m -91.39,1.82 c 12.64,11.49 28.66,17.24 44.69,17.25 -5.05,0 -10.1,-0.58 -15.04,-1.72 -10.74,-2.48 -20.99,-7.66 -29.64,-15.52 0,-0.01 0,-0.01 -0.01,-0.01 m 44.79,17.25 c -0.01,0 -0.03,0 -0.05,0 v 0 c 0.02,0 0.04,0 0.05,0" /><path
         id="path304"
         style="fill:#7da0b8;fill-opacity:1;fill-rule:nonzero;stroke:none"
         d="m 4437.07,1099.11 c -0.06,0.06 -0.12,0.13 -0.19,0.19 0.07,-0.06 0.13,-0.13 0.19,-0.19" /><path
         id="path306"
         style="fill:#cdedfb;fill-opacity:1;fill-rule:nonzero;stroke:none"
         d="m 4455.85,1092.87 c -5.17,2.71 -10.04,6.22 -14.4,10.53 l 23.63,0.03 -0.04,38.66 -41.38,-0.05 c -0.35,5.01 -0.09,10.06 0.79,15.01 l 52.42,0.07 c 1.6,-5.88 2.31,-11.95 2.14,-18 l -6.07,-0.01 c -1.26,0 -2.25,-2.04 -2.25,-4.51 0,-2.47 1.01,-4.51 2.25,-4.51 h 5.14 c -0.82,-4.61 -2.17,-9.14 -4.05,-13.51 h -1.07 c -1.23,0 -2.26,-2.02 -2.25,-4.51 0,-0.62 0.07,-1.21 0.18,-1.75 -2.63,-4.57 -5.89,-8.88 -9.8,-12.79 -1.67,-1.68 -3.42,-3.23 -5.24,-4.66 m -29.07,73.19 c 2.2,6.42 5.5,12.53 9.91,18.05 l 24.56,0.03 c 5.33,-5.38 9.45,-11.49 12.39,-18.01 l -46.86,-0.07 m 18.82,27.07 c 0.61,0.5 1.22,0.98 1.85,1.46 0.84,-0.47 1.67,-0.95 2.49,-1.46 h -4.34" /><path
         id="path308"
         style="fill:#c9b2d2;fill-opacity:1;fill-rule:nonzero;stroke:none"
         d="m 4441.45,1103.4 c -0.08,0.07 -0.15,0.15 -0.23,0.22 -10.7,10.68 -16.55,24.41 -17.56,38.42 l 41.38,0.05 0.04,-38.66 -23.63,-0.03" /><path
         id="path310"
         style="fill:#a5dae3;fill-opacity:1;fill-rule:nonzero;stroke:none"
         d="m 4436.69,1184.11 c 1.37,1.71 2.85,3.36 4.43,4.95 1.44,1.44 2.94,2.8 4.48,4.07 h 4.34 c 3.93,-2.43 7.65,-5.34 11.06,-8.74 0.08,-0.08 0.17,-0.17 0.25,-0.25 l -24.56,-0.03" /><path
         id="path312"
         style="fill:#a5dae3;fill-opacity:1;fill-rule:nonzero;stroke:none"
         d="m 4424.45,1157.05 c 0.54,3.05 1.32,6.06 2.33,9.01 l 46.86,0.07 c 1.31,-2.93 2.39,-5.95 3.23,-9.01 l -52.42,-0.07" /><path
         id="path314"
         style="fill:#a5dae3;fill-opacity:1;fill-rule:nonzero;stroke:none"
         d="m 4470.89,1110.32 c -0.11,0.54 -0.18,1.13 -0.18,1.75 -0.01,2.49 1.02,4.51 2.25,4.51 h 1.07 c -0.92,-2.13 -1.97,-4.22 -3.14,-6.26" /><path
         id="path316"
         style="fill:#a5dae3;fill-opacity:1;fill-rule:nonzero;stroke:none"
         d="m 4472.94,1130.09 c -1.24,0 -2.25,2.04 -2.25,4.51 0,2.47 0.99,4.51 2.25,4.51 l 6.07,0.01 c -0.09,-3.03 -0.4,-6.04 -0.93,-9.03 h -5.14" /><path
         id="path318"
         style="fill:#cdedfb;fill-opacity:1;fill-rule:nonzero;stroke:none"
         d="m 4437.09,1099.09 c 0,0 0,0 0,0.01 -0.01,0 -0.01,0.01 -0.02,0.01 v 0 c 0.01,0 0.01,-0.01 0.02,-0.02" /><path
         id="path320"
         style="fill:#5f7285;fill-opacity:1;fill-rule:nonzero;stroke:none"
         d="m 4437.09,1099.1 c -0.01,0 -0.01,0.01 -0.02,0.01 0.01,0 0.01,-0.01 0.02,-0.01" /><path
         id="path322"
         style="fill:#5f7285;fill-opacity:1;fill-rule:nonzero;stroke:none"
         d="m 4436.79,1193.38 c 0.77,0.79 1.56,1.54 2.37,2.27 -0.52,-0.48 -1.04,-0.96 -1.55,-1.46 -0.17,-0.16 -0.33,-0.33 -0.5,-0.49 -0.11,-0.11 -0.22,-0.21 -0.32,-0.32" /><path
         id="path324"
         style="fill:#a7bece;fill-opacity:1;fill-rule:nonzero;stroke:none"
         d="m 4449.51,1089.51 c -4.42,2.65 -8.59,5.8 -12.42,9.58 -0.01,0.01 -0.01,0.02 -0.02,0.02 -0.06,0.06 -0.12,0.13 -0.19,0.19 v 0 0 c -1.32,1.32 -2.58,2.69 -3.77,4.09 l 8.34,0.01 c 4.36,-4.31 9.23,-7.82 14.4,-10.53 -1.52,-1.2 -3.08,-2.32 -4.68,-3.36 h -1.66 m -31.99,52.52 c -0.09,1.43 -0.14,2.86 -0.14,4.29 0,3.59 0.28,7.17 0.85,10.73 h 6.22 c -0.88,-4.95 -1.14,-10 -0.79,-15.01 l -6.14,-0.01 m 2.81,24.02 c 1.95,6.33 4.86,12.43 8.73,18.05 l 7.63,0.01 c -4.41,-5.52 -7.71,-11.63 -9.91,-18.05 l -6.45,-0.01 m 16.19,27.07 c 0.09,0.08 0.18,0.17 0.27,0.26 v 0 c 0.1,0.11 0.21,0.21 0.32,0.32 0.17,0.16 0.33,0.33 0.5,0.49 0.51,0.5 1.04,0.99 1.56,1.47 0.72,0.64 1.45,1.26 2.2,1.88 2.06,-0.87 4.09,-1.85 6.08,-2.95 -0.63,-0.48 -1.24,-0.96 -1.85,-1.46 l -9.08,-0.01" /><path
         id="path326"
         style="fill:#a4a0b6;fill-opacity:1;fill-rule:nonzero;stroke:none"
         d="m 4433.11,1103.39 c -9.49,11.18 -14.69,24.8 -15.59,38.64 l 6.14,0.01 c 1.01,-14.01 6.86,-27.74 17.56,-38.42 0.08,-0.07 0.15,-0.15 0.23,-0.22 l -8.34,-0.01" /><path
         id="path328"
         style="fill:#92b3bf;fill-opacity:1;fill-rule:nonzero;stroke:none"
         d="m 4429.06,1184.1 c 2.18,3.17 4.67,6.19 7.46,9.02 l 9.08,0.01 c -1.54,-1.27 -3.04,-2.63 -4.48,-4.07 -1.58,-1.59 -3.06,-3.24 -4.43,-4.95 l -7.63,-0.01" /><path
         id="path330"
         style="fill:#92b3bf;fill-opacity:1;fill-rule:nonzero;stroke:none"
         d="m 4418.23,1157.05 c 0.49,3.03 1.19,6.05 2.1,9 l 6.45,0.01 c -1.01,-2.95 -1.79,-5.96 -2.33,-9.01 h -6.22" /><path
         id="path332"
         style="fill:#92b3bf;fill-opacity:1;fill-rule:nonzero;stroke:none"
         d="m 4450.37,1089 c -0.29,0.17 -0.57,0.34 -0.86,0.51 h 1.66 c -0.27,-0.17 -0.53,-0.34 -0.8,-0.51" /><path
         id="path334"
         style="fill:#6f8292;fill-opacity:1;fill-rule:nonzero;stroke:none"
         d="m 4436.88,1099.3 v 0 c -12.98,12.95 -19.48,29.98 -19.5,47.02 v 0 c 0.02,-17.04 6.52,-34.07 19.5,-47.02 v 0 m -0.09,94.08 v 0 c 0.1,0.11 0.21,0.21 0.32,0.32 -0.11,-0.11 -0.22,-0.21 -0.32,-0.32 m 0.82,0.81 c 0.51,0.5 1.03,0.98 1.55,1.46 0.01,0 0.01,0 0.01,0.01 -0.52,-0.48 -1.05,-0.97 -1.56,-1.47" /><path
         id="path336"
         style="fill:#cdedfb;fill-opacity:1;fill-rule:nonzero;stroke:none"
         d="m 4530.19,1152.17 c -1.86,0 -3.72,0.7 -5.14,2.12 -2.84,2.84 -2.84,7.45 -0.03,10.27 1.43,1.43 3.29,2.15 5.16,2.15 1.86,0 3.72,-0.72 5.15,-2.15 2.84,-2.81 2.84,-7.42 0,-10.26 -1.41,-1.42 -3.27,-2.13 -5.14,-2.13" /><path
         id="path338"
         style="fill:#5c8aac;fill-opacity:1;fill-rule:nonzero;stroke:none"
         d="m 4617.4,1016.43 c -0.17,0 -0.35,0 -0.53,0.01 1.68,2.59 1.94,5.84 0.76,8.63 -0.45,1.07 -1.12,2.08 -2,2.95 v 0 l -2.8,2.8 -12.53,12.5 -0.01,12.45 20.84,-20.81 2.82,-2.75 c 3.11,-3.12 3.53,-7.86 1.3,-11.44 v -0.01 l -1.29,-1.65 c -1.8,-1.82 -4.18,-2.68 -6.56,-2.68 m -30.64,40.39 v 0 l -0.01,12.46 v 0 l 0.01,-12.46" /><path
         id="path340"
         style="fill:#bdbcba;fill-opacity:1;fill-rule:nonzero;stroke:none"
         d="m 4586.76,1056.82 -26.39,26.33 c 0.29,0.6 0.46,1.28 0.46,2 0,2.48 -2,4.49 -4.47,4.49 -0.01,0 -0.02,0 -0.02,0 h -2.48 l -7.74,7.71 c -0.05,0.06 -0.1,0.11 -0.16,0.16 2.56,3.24 4.84,6.64 6.82,10.16 l 5.74,0.01 c -1.32,-2.05 -2.75,-4.05 -4.28,-5.99 l 0.2,-0.17 32.31,-32.24 0.01,-12.46 m -26,54.52 c 0.03,0.27 0.04,0.55 0.04,0.84 0,2.47 -1.03,4.49 -2.26,4.49 h -1.43 c 8.84,21.79 7.55,46.72 -3.85,67.58 l 2.95,0.01 c 2.48,0 4.51,1.99 4.48,4.5 0,2.47 -2,4.49 -4.48,4.49 l -8.69,-0.01 c -2.11,2.87 -4.45,5.62 -7,8.24 v 0 c -0.05,0.06 -0.11,0.11 -0.16,0.17 -0.01,0 -0.01,0.01 -0.02,0.02 -0.05,0.04 -0.1,0.1 -0.15,0.15 -0.01,0.01 -0.01,0.01 -0.02,0.02 -0.05,0.05 -0.1,0.1 -0.15,0.15 0,0.01 -0.01,0.02 -0.02,0.02 -0.05,0.05 -0.1,0.1 -0.14,0.15 -0.06,0.05 -0.12,0.11 -0.17,0.16 v 0 c -3.35,3.34 -6.92,6.32 -10.66,8.94 l 13.77,0.01 c 1.79,-1.49 3.53,-3.09 5.22,-4.77 25.82,-25.76 30.05,-64.94 12.74,-95.16 m -105.83,108.82 c 11.65,6.24 24.52,9.37 37.39,9.37 12.8,0 25.59,-3.09 37.17,-9.28 l -17.43,-0.02 c -9.05,3.45 -18.61,5.17 -28.17,5.17 -9.62,0 -19.24,-1.74 -28.35,-5.24 h -0.61" /><path
         id="path342"
         style="fill:#43657e;fill-opacity:1;fill-rule:nonzero;stroke:none"
         d="m 4600.3,1043.32 -13.54,13.5 -0.01,12.46 13.54,-13.51 0.01,-12.45" /><path
         id="path344"
         style="fill:#518277;fill-opacity:1;fill-rule:nonzero;stroke:none"
         d="m 4529.03,1211.26 c -5.35,3.72 -11.05,6.72 -16.97,8.97 l 17.43,0.02 c 4.66,-2.49 9.12,-5.48 13.31,-8.98 l -13.77,-0.01 m -75.72,8.01 c 0.54,0.3 1.08,0.6 1.62,0.89 h 0.61 c -0.75,-0.28 -1.49,-0.58 -2.23,-0.89" /><path
         id="path346"
         style="fill:#518277;fill-opacity:1;fill-rule:nonzero;stroke:none"
         d="m 4553.26,1184.25 c -1.69,3.1 -3.6,6.1 -5.74,8.99 l 8.69,0.01 c 2.48,0 4.48,-2.02 4.48,-4.49 0.03,-2.51 -2,-4.5 -4.48,-4.5 l -2.95,-0.01" /><path
         id="path348"
         style="fill:#518277;fill-opacity:1;fill-rule:nonzero;stroke:none"
         d="m 4552.78,1107.67 c 1.64,2.92 3.09,5.93 4.33,9 h 1.43 c 1.23,0 2.26,-2.02 2.26,-4.49 0,-0.29 -0.01,-0.57 -0.04,-0.84 -0.71,-1.23 -1.45,-2.46 -2.24,-3.66 l -5.74,-0.01" /><path
         id="path350"
         style="fill:#518277;fill-opacity:1;fill-rule:nonzero;stroke:none"
         d="m 4560.37,1083.15 -6.51,6.49 h 2.48 c 0,0 0.01,0 0.02,0 2.47,0 4.47,-2.01 4.47,-4.49 0,-0.72 -0.17,-1.4 -0.46,-2" /><path
         id="path352"
         style="fill:#319e78;fill-opacity:1;fill-rule:nonzero;stroke:none"
         d="m 4616.87,1016.44 c -0.01,0 -0.02,0.01 -0.03,0.01 l 0.11,0.15 c 1.59,2.55 1.82,5.74 0.68,8.47 1.18,-2.79 0.92,-6.04 -0.76,-8.63 m -1.24,11.58 v 0 l -2.8,2.8 2.8,-2.8 v 0" /><path
         id="path354"
         style="fill:#1d2937;fill-opacity:1;fill-rule:nonzero;stroke:none"
         d="m 4612.83,1030.82 -66.71,66.53 -0.16,0.15 v 0.01 c 0.06,-0.05 0.11,-0.1 0.16,-0.16 l 7.74,-7.71 6.51,-6.49 26.39,-26.33 v 0 l 13.54,-13.5 12.53,-12.5" /><path
         id="path356"
         style="fill:#1d2937;fill-opacity:1;fill-rule:nonzero;stroke:none"
         d="m 4545.96,1097.5 -0.02,0.02 c 24.26,30.75 22.47,75.32 -5.42,103.96 2.55,-2.62 4.89,-5.37 7,-8.24 2.14,-2.89 4.05,-5.89 5.74,-8.99 11.4,-20.86 12.69,-45.79 3.85,-67.58 -1.24,-3.07 -2.69,-6.08 -4.33,-9 -1.98,-3.52 -4.26,-6.92 -6.82,-10.16 v -0.01 m -5.44,103.98 c -0.06,0.06 -0.11,0.11 -0.16,0.17 0.05,-0.06 0.11,-0.11 0.16,-0.17 m -0.18,0.19 c -0.05,0.04 -0.1,0.1 -0.15,0.15 0.05,-0.05 0.1,-0.11 0.15,-0.15 m -0.17,0.17 c -0.05,0.05 -0.1,0.1 -0.15,0.15 0.05,-0.05 0.1,-0.1 0.15,-0.15 m -0.17,0.17 c -0.05,0.05 -0.1,0.1 -0.14,0.15 0.04,-0.05 0.09,-0.1 0.14,-0.15 m -0.31,0.31 v 0 c -15.41,15.38 -35.58,23.06 -55.75,23.06 -10.53,0 -21.07,-2.1 -30.92,-6.28 0.09,0.06 0.19,0.11 0.29,0.17 0.74,0.31 1.48,0.61 2.23,0.89 9.11,3.5 18.73,5.24 28.35,5.24 9.56,0 19.12,-1.72 28.17,-5.17 5.92,-2.25 11.62,-5.25 16.97,-8.97 3.74,-2.62 7.31,-5.6 10.66,-8.94 v 0" /><path
         id="path358"
         style="fill:#25374d;fill-opacity:1;fill-rule:nonzero;stroke:none"
         d="m 3932.3,669.852 c 0,5.039 -4.12,9.168 -9.17,9.168 h -319.36 c -5.04,0 -9.16,-4.129 -9.16,-9.168 V 633.16 h 337.69 v 36.692" /><path
         id="path360"
         style="fill:#ffffff;fill-opacity:1;fill-rule:nonzero;stroke:none"
         d="M 3594.61,633.16 V 438.25 c 0,-5.039 4.12,-9.168 9.16,-9.168 h 319.36 c 5.05,0 9.17,4.129 9.17,9.168 v 194.91 h -337.69" /><path
         id="path362"
         style="fill:#758796;fill-opacity:1;fill-rule:nonzero;stroke:none"
         d="m 3703.26,563.219 h -44.71 v 42.422 h 44.71 v -42.422" /><path
         id="path364"
         style="fill:#758796;fill-opacity:1;fill-rule:nonzero;stroke:none"
         d="m 3758.3,563.219 h -44.72 v 42.422 h 44.72 v -42.422" /><path
         id="path366"
         style="fill:#758796;fill-opacity:1;fill-rule:nonzero;stroke:none"
         d="m 3813.33,563.219 h -44.72 v 42.422 h 44.72 v -42.422" /><path
         id="path368"
         style="fill:#758796;fill-opacity:1;fill-rule:nonzero;stroke:none"
         d="m 3868.37,563.219 h -44.73 v 42.422 h 44.73 v -42.422" /><path
         id="path370"
         style="fill:#758796;fill-opacity:1;fill-rule:nonzero;stroke:none"
         d="m 3703.26,512.781 h -44.71 v 42.418 h 44.71 v -42.418" /><path
         id="path372"
         style="fill:#758796;fill-opacity:1;fill-rule:nonzero;stroke:none"
         d="m 3758.3,512.781 h -44.72 v 42.418 h 44.72 v -42.418" /><path
         id="path374"
         style="fill:#758796;fill-opacity:1;fill-rule:nonzero;stroke:none"
         d="m 3813.33,512.781 h -44.72 v 42.418 h 44.72 v -42.418" /><path
         id="path376"
         style="fill:#758796;fill-opacity:1;fill-rule:nonzero;stroke:none"
         d="m 3868.37,512.781 h -44.73 v 42.418 h 44.73 v -42.418" /><path
         id="path378"
         style="fill:#758796;fill-opacity:1;fill-rule:nonzero;stroke:none"
         d="m 3703.26,462.332 h -44.71 v 42.43 h 44.71 v -42.43" /><path
         id="path380"
         style="fill:#758796;fill-opacity:1;fill-rule:nonzero;stroke:none"
         d="m 3758.3,462.332 h -44.72 v 42.43 h 44.72 v -42.43" /><path
         id="path382"
         style="fill:#758796;fill-opacity:1;fill-rule:nonzero;stroke:none"
         d="m 3813.33,462.332 h -44.72 v 42.43 h 44.72 v -42.43" /><path
         id="path384"
         style="fill:#758796;fill-opacity:1;fill-rule:nonzero;stroke:none"
         d="m 3868.37,462.332 h -44.73 v 42.43 h 44.73 v -42.43" /><path
         id="path386"
         style="fill:#25374d;fill-opacity:1;fill-rule:nonzero;stroke:none"
         d="m 1512.27,670.23 c 0,5.04 -4.13,9.168 -9.17,9.168 h -319.37 c -5.04,0 -9.16,-4.128 -9.16,-9.168 v -36.691 h 337.7 v 36.691" /><path
         id="path388"
         style="fill:#ffffff;fill-opacity:1;fill-rule:nonzero;stroke:none"
         d="m 1174.57,633.539 v -194.91 c 0,-5.039 4.12,-9.168 9.16,-9.168 h 319.37 c 5.04,0 9.17,4.129 9.17,9.168 v 194.91 h -337.7" /><path
         id="path390"
         style="fill:#758796;fill-opacity:1;fill-rule:nonzero;stroke:none"
         d="m 1471,575.98 h -257.5 v 27.5 H 1471 v -27.5" /><path
         id="path392"
         style="fill:#758796;fill-opacity:1;fill-rule:nonzero;stroke:none"
         d="m 1471,525.98 h -257.5 v 27.5 H 1471 v -27.5" /><path
         id="path394"
         style="fill:#758796;fill-opacity:1;fill-rule:nonzero;stroke:none"
         d="m 1471,475.98 h -257.5 v 27.5 H 1471 v -27.5" /><g
         id="g396"><g
           clip-path="url(#clipPath402)"
           id="g398"><path
             id="path404"
             style="fill:#3976b9;fill-opacity:1;fill-rule:nonzero;stroke:none"
             d="m 1639.9,216.672 h 1840.2 v 96.9688 H 1639.9 Z" /></g></g><path
         id="path406"
         style="fill:#25374d;fill-opacity:1;fill-rule:nonzero;stroke:none"
         d="m 3445,1491.04 c 0,32.46 -26.54,59 -59,59 H 1734 c -32.45,0 -59,-26.54 -59,-59 V 584.051 h 1770 v 906.989" /><path
         id="path408"
         style="fill:#959595;fill-opacity:1;fill-rule:nonzero;stroke:none"
         d="m 2481.34,313.641 h 157.32 v 130.16 h -157.32 z" /><path
         id="path410"
         style="fill:#7e7f80;fill-opacity:1;fill-rule:nonzero;stroke:none"
         d="m 2481.34,378.719 h 157.32 v 65.082 h -157.32 z" /><path
         id="path412"
         style="fill:#ffffff;fill-opacity:1;fill-rule:nonzero;stroke:none"
         d="m 1675,526.551 v -38.5 c 0,-32.449 26.55,-59 59,-59 h 1652 c 32.46,0 59,26.551 59,59 v 38.5 H 1675" /><path
         id="path414"
         style="fill:#25374d;fill-opacity:1;fill-rule:nonzero;stroke:none"
         d="M 3445,584.051 H 1675 v -57.5 h 1770 v 57.5" /><path
         id="path416"
         style="fill:#ffffff;fill-opacity:1;fill-rule:nonzero;stroke:none"
         d="M 1734,584.051 V 1491.04 H 3386 V 584.051 H 1734" /><path
         id="path418"
         style="fill:#cdccca;fill-opacity:1;fill-rule:nonzero;stroke:none"
         d="m 2676.78,281.68 h -233.56 v 31.961 h 233.56 V 281.68" /><path
         id="path420"
         style="fill:#f26054;fill-opacity:1;fill-rule:nonzero;stroke:none"
         d="m 2135.18,1227.23 c 0,-60.85 -49.33,-110.18 -110.18,-110.18 -60.85,0 -110.18,49.33 -110.18,110.18 0,60.85 49.33,110.17 110.18,110.17 60.85,0 110.18,-49.32 110.18,-110.17" /><path
         id="path422"
         style="fill:#f26054;fill-opacity:1;fill-rule:nonzero;stroke:none"
         d="M 3205,1257.23 H 2205 v 40 h 1000 v -40" /><path
         id="path424"
         style="fill:#f26054;fill-opacity:1;fill-rule:nonzero;stroke:none"
         d="M 3205,1157.23 H 2205 v 40 h 1000 v -40" /><path
         id="path426"
         style="fill:#7fc9e5;fill-opacity:1;fill-rule:nonzero;stroke:none"
         d="m 2135.18,747.23 c 0,-60.851 -49.33,-110.179 -110.18,-110.179 -60.85,0 -110.18,49.328 -110.18,110.179 0,60.848 49.33,110.168 110.18,110.168 60.85,0 110.18,-49.32 110.18,-110.168" /><path
         id="path428"
         style="fill:#7fc9e5;fill-opacity:1;fill-rule:nonzero;stroke:none"
         d="M 3205,777.23 H 2205 v 40 h 1000 v -40" /><path
         id="path430"
         style="fill:#7fc9e5;fill-opacity:1;fill-rule:nonzero;stroke:none"
         d="M 3205,677.23 H 2205 v 40 h 1000 v -40" /><path
         id="path432"
         style="fill:#262424;fill-opacity:1;fill-rule:nonzero;stroke:none"
         d="m 1979.02,953.359 c -11.75,10.313 -14.87,23.75 -14.87,35.379 0,8.153 2.52,22.302 14.03,32.862 8.64,7.91 20.03,12.72 37.9,12.72 7.44,0 11.87,-0.49 17.39,-1.2 4.56,-0.6 8.4,-1.68 11.99,-2.05 1.32,-0.11 1.81,-0.72 1.81,-1.43 0,-0.97 -0.37,-2.4 -0.6,-6.59 -0.24,-3.97 -0.13,-10.57 -0.37,-12.96 -0.11,-1.81 -0.35,-2.77 -1.43,-2.77 -0.96,0 -1.2,0.96 -1.2,2.64 -0.13,3.73 -1.68,7.92 -4.68,11.04 -3.96,4.2 -13.31,7.44 -24.35,7.44 -10.43,0 -17.27,-2.64 -22.55,-7.44 -8.75,-8.03 -11.03,-19.43 -11.03,-31.059 0,-28.55 21.71,-42.691 37.78,-42.691 10.68,0 17.15,1.191 21.95,6.711 2.04,2.269 3.59,5.758 4.08,7.91 0.35,1.918 0.59,2.41 1.56,2.41 0.84,0 1.07,-0.84 1.07,-1.812 0,-1.43 -1.44,-11.86 -2.63,-15.949 -0.6,-2.04 -1.09,-2.629 -3.12,-3.469 -4.8,-1.93 -13.91,-2.77 -21.59,-2.77 -16.43,0 -30.22,3.61 -41.14,13.078" /><path
         id="path434"
         style="fill:#262424;fill-opacity:1;fill-rule:nonzero;stroke:none"
         d="m 2131.03,978.66 c 0,22.55 -13.55,36.46 -30.59,36.46 -11.75,0 -25.54,-6.23 -25.54,-31.421 0,-20.988 11.99,-37.539 31.9,-37.539 7.44,0 24.23,3.481 24.23,32.5 z m -71.72,1.93 c 0,17.379 12.23,39.94 44.25,39.94 26.63,0 43.18,-14.76 43.18,-38.151 0,-23.391 -17.03,-41.738 -44.25,-41.738 -30.71,0 -43.18,21.828 -43.18,39.949" /><path
         id="path436"
         style="fill:#262424;fill-opacity:1;fill-rule:nonzero;stroke:none"
         d="m 2173.06,955.879 c 0.24,-7.918 1.56,-10.309 3.6,-11.039 1.8,-0.602 3.84,-0.719 5.52,-0.719 1.19,0 1.79,-0.48 1.79,-1.07 0,-0.84 -0.95,-1.09 -2.39,-1.09 -6.84,0 -11.76,0.359 -13.67,0.359 -0.97,0 -6,-0.359 -11.4,-0.359 -1.44,0 -2.4,0.129 -2.4,1.09 0,0.59 0.72,1.07 1.68,1.07 1.44,0 3.36,0.117 4.8,0.488 2.75,0.711 3.12,3.481 3.24,12.34 l 0.96,60.451 c 0,2.04 0.71,3.48 1.8,3.48 1.32,0 2.75,-1.56 4.55,-3.36 1.32,-1.32 17.15,-17.5 32.5,-32.5 7.2,-7.071 21.23,-21.469 22.79,-22.911 h 0.48 l -1.08,45.331 c -0.12,6.25 -1.08,8.05 -3.59,9.01 -1.57,0.59 -4.09,0.59 -5.52,0.59 -1.32,0 -1.68,0.48 -1.68,1.08 0,0.84 1.08,0.96 2.64,0.96 5.51,0 11.15,-0.23 13.43,-0.23 1.2,0 5.15,0.23 10.32,0.23 1.43,0 2.39,-0.12 2.39,-0.96 0,-0.6 -0.6,-1.08 -1.8,-1.08 -1.08,0 -1.92,0 -3.24,-0.36 -2.87,-0.84 -3.71,-2.64 -3.83,-8.4 l -1.2,-64.28 c 0,-2.281 -0.84,-3.238 -1.68,-3.238 -1.8,0 -3.24,1.09 -4.32,2.168 -6.59,6.109 -19.79,18.711 -30.82,29.371 -11.51,11.039 -22.67,23.39 -24.71,25.199 h -0.36 l 1.2,-41.621" /><path
         id="path438"
         style="fill:#262424;fill-opacity:1;fill-rule:nonzero;stroke:none"
         d="m 2281.42,1012.85 -15.72,-0.37 c -6.12,-0.12 -8.63,-0.84 -10.19,-3.11 -1.08,-1.44 -1.56,-2.76 -1.8,-3.48 l -1.2,-1.32 c -0.72,0 -0.96,0.61 -0.96,1.68 0,1.68 2.04,11.51 2.28,12.35 0.24,1.32 0.6,1.93 1.2,1.93 0.84,0 1.92,-0.84 4.55,-1.21 3.13,-0.36 7.09,-0.47 10.56,-0.47 h 42.82 c 3.35,0 5.63,0.23 7.19,0.47 1.68,0.24 2.52,0.48 2.88,0.48 0.72,0 0.84,-0.6 0.84,-2.16 0,-2.15 -0.24,-9.71 -0.24,-12.35 -0.12,-1.08 -0.36,-1.68 -0.96,-1.68 -0.84,0 -1.08,0.48 -1.2,2.03 l -0.12,1.09 c -0.24,2.64 -3,5.75 -12.47,5.88 l -13.31,0.24 v -41.268 c 0,-9.352 0.12,-17.383 0.6,-21.812 0.36,-2.899 0.95,-4.809 4.07,-5.29 1.44,-0.242 3.84,-0.359 5.4,-0.359 1.2,0 1.68,-0.59 1.68,-1.07 0,-0.731 -0.84,-1.09 -2.04,-1.09 -6.95,0 -14.03,0.359 -17.03,0.359 -2.4,0 -9.59,-0.359 -13.79,-0.359 -1.32,0 -2.04,0.359 -2.04,1.09 0,0.48 0.36,1.07 1.68,1.07 1.56,0 2.88,0.117 3.72,0.359 2.16,0.481 2.76,2.391 3.12,5.399 0.48,4.32 0.48,12.351 0.48,21.703 v 41.268" /><path
         id="path440"
         style="fill:#262424;fill-opacity:1;fill-rule:nonzero;stroke:none"
         d="m 2343.34,989.578 c 0,15.472 0,18.352 -0.12,21.592 -0.24,3.48 -1.2,4.55 -4.56,5.51 -0.84,0.24 -2.63,0.36 -4.2,0.36 -1.08,0 -1.79,0.36 -1.79,1.08 0,0.73 0.84,0.96 2.39,0.96 5.52,0 12.24,-0.23 15.24,-0.23 3.35,0 26.74,-0.13 28.78,0 1.92,0.11 3.6,0.47 4.44,0.59 l 1.68,0.48 0.72,-0.96 c 0,-0.72 -0.6,-1.92 -0.84,-6.6 -0.12,-1.07 -0.36,-5.5 -0.6,-6.72 l -1.2,-1.68 -0.84,1.33 c 0,0.73 -0.12,2.52 -0.72,3.71 -0.84,1.8 -1.68,3.25 -6.96,3.72 -1.8,0.25 -14.39,0.48 -16.55,0.48 l -0.72,-0.95 v -25.191 l 0.72,-1.079 c 2.4,0 16.07,0 18.47,0.239 2.52,0.242 3.96,0.601 5.04,1.551 l 1.68,1.332 0.84,-1.082 c 0,-0.598 -0.24,-2.282 -0.84,-7.43 -0.24,-2.051 -0.48,-6.121 -0.48,-6.84 0,-0.84 -0.12,-2.289 -1.08,-2.289 l -0.96,0.84 c -0.12,1.09 -0.12,2.41 -0.36,3.73 -0.6,2.039 -1.92,3.598 -5.88,3.949 -1.92,0.239 -13.91,0.489 -16.55,0.489 l -0.6,-1.09 v -8.149 c 0,-3.48 -0.12,-12.109 0,-15.121 0.24,-6.949 3.48,-8.507 14.27,-8.507 2.76,0 7.2,0.109 9.96,1.328 2.64,1.191 3.84,3.359 4.55,7.539 0.25,1.09 0.49,1.57 1.21,1.57 0.84,0 0.95,-1.32 0.95,-2.41 0,-2.27 -0.83,-9.219 -1.43,-11.258 -0.73,-2.652 -1.68,-2.652 -5.64,-2.652 -7.92,0 -14.28,0.133 -19.43,0.371 -5.16,0.121 -9.12,0.23 -12.23,0.23 -1.2,0 -3.48,-0.109 -6,-0.109 -2.52,-0.121 -5.16,-0.25 -7.32,-0.25 -1.32,0 -2.03,0.359 -2.03,1.09 0,0.48 0.35,1.07 1.68,1.07 1.55,0 2.75,0.117 3.71,0.359 2.16,0.481 2.76,2.391 3.12,5.399 0.48,4.32 0.48,12.351 0.48,21.703 v 17.996" /><path
         id="path442"
         style="fill:#262424;fill-opacity:1;fill-rule:nonzero;stroke:none"
         d="m 2416.66,955.879 c 0.23,-7.918 1.55,-10.309 3.59,-11.039 1.8,-0.602 3.84,-0.719 5.52,-0.719 1.2,0 1.8,-0.48 1.8,-1.07 0,-0.84 -0.96,-1.09 -2.4,-1.09 -6.84,0 -11.75,0.359 -13.67,0.359 -0.96,0 -6,-0.359 -11.4,-0.359 -1.43,0 -2.39,0.129 -2.39,1.09 0,0.59 0.71,1.07 1.67,1.07 1.45,0 3.36,0.117 4.8,0.488 2.76,0.711 3.12,3.481 3.24,12.34 l 0.96,60.451 c 0,2.04 0.72,3.48 1.8,3.48 1.32,0 2.75,-1.56 4.56,-3.36 1.31,-1.32 17.14,-17.5 32.5,-32.5 7.19,-7.071 21.23,-21.469 22.78,-22.911 h 0.48 l -1.08,45.331 c -0.11,6.25 -1.08,8.05 -3.59,9.01 -1.56,0.59 -4.08,0.59 -5.52,0.59 -1.32,0 -1.68,0.48 -1.68,1.08 0,0.84 1.08,0.96 2.64,0.96 5.52,0 11.16,-0.23 13.43,-0.23 1.2,0 5.16,0.23 10.32,0.23 1.44,0 2.4,-0.12 2.4,-0.96 0,-0.6 -0.6,-1.08 -1.8,-1.08 -1.08,0 -1.92,0 -3.24,-0.36 -2.88,-0.84 -3.72,-2.64 -3.84,-8.4 l -1.2,-64.28 c 0,-2.281 -0.84,-3.238 -1.68,-3.238 -1.8,0 -3.23,1.09 -4.32,2.168 -6.59,6.109 -19.78,18.711 -30.82,29.371 -11.51,11.039 -22.66,23.39 -24.7,25.199 h -0.37 l 1.21,-41.621" /><path
         id="path444"
         style="fill:#262424;fill-opacity:1;fill-rule:nonzero;stroke:none"
         d="m 2525.01,1012.85 -15.71,-0.37 c -6.12,-0.12 -8.64,-0.84 -10.2,-3.11 -1.08,-1.44 -1.56,-2.76 -1.8,-3.48 l -1.2,-1.32 c -0.71,0 -0.95,0.61 -0.95,1.68 0,1.68 2.03,11.51 2.27,12.35 0.25,1.32 0.6,1.93 1.2,1.93 0.84,0 1.92,-0.84 4.56,-1.21 3.12,-0.36 7.08,-0.47 10.56,-0.47 h 42.81 c 3.36,0 5.64,0.23 7.2,0.47 1.67,0.24 2.51,0.48 2.88,0.48 0.71,0 0.84,-0.6 0.84,-2.16 0,-2.15 -0.24,-9.71 -0.24,-12.35 -0.13,-1.08 -0.36,-1.68 -0.97,-1.68 -0.84,0 -1.07,0.48 -1.19,2.03 l -0.12,1.09 c -0.24,2.64 -3,5.75 -12.47,5.88 l -13.32,0.24 v -41.268 c 0,-9.352 0.12,-17.383 0.6,-21.812 0.36,-2.899 0.96,-4.809 4.08,-5.29 1.44,-0.242 3.84,-0.359 5.39,-0.359 1.2,0 1.68,-0.59 1.68,-1.07 0,-0.731 -0.84,-1.09 -2.03,-1.09 -6.96,0 -14.04,0.359 -17.03,0.359 -2.4,0 -9.6,-0.359 -13.8,-0.359 -1.32,0 -2.03,0.359 -2.03,1.09 0,0.48 0.35,1.07 1.67,1.07 1.56,0 2.88,0.117 3.72,0.359 2.16,0.481 2.76,2.391 3.12,5.399 0.48,4.32 0.48,12.351 0.48,21.703 v 41.268" /><path
         id="path446"
         style="fill:#262424;fill-opacity:1;fill-rule:nonzero;stroke:none"
         d="m 2618.74,943.398 c -1.92,0.84 -2.28,1.442 -2.28,4.082 0,6.602 0.48,13.79 0.6,15.711 0.13,1.797 0.48,3.118 1.44,3.118 1.08,0 1.21,-1.079 1.21,-2.028 0,-1.57 0.47,-4.082 1.07,-6.133 2.64,-8.867 9.71,-12.109 17.15,-12.109 10.8,0 16.07,7.32 16.07,13.68 0,5.871 -1.79,11.39 -11.75,19.191 l -5.51,4.309 c -13.2,10.32 -17.76,18.711 -17.76,28.421 0,13.2 11.04,22.68 27.7,22.68 7.8,0 12.84,-1.2 15.96,-2.04 1.07,-0.25 1.68,-0.6 1.68,-1.44 0,-1.56 -0.48,-5.04 -0.48,-14.39 0,-2.64 -0.36,-3.6 -1.32,-3.6 -0.84,0 -1.2,0.71 -1.2,2.15 0,1.08 -0.6,4.8 -3.12,7.92 -1.79,2.28 -5.27,5.88 -13.07,5.88 -8.88,0 -14.27,-5.17 -14.27,-12.35 0,-5.52 2.75,-9.72 12.71,-17.27 l 3.36,-2.52 c 14.52,-10.922 19.67,-19.199 19.67,-30.59 0,-6.949 -2.64,-15.23 -11.28,-20.859 -5.99,-3.84 -12.71,-4.93 -19.07,-4.93 -6.95,0 -12.34,0.84 -17.51,3.117" /><path
         id="path448"
         style="fill:#262424;fill-opacity:1;fill-rule:nonzero;stroke:none"
         d="m 2706.81,1012.85 -15.72,-0.37 c -6.11,-0.12 -8.63,-0.84 -10.19,-3.11 -1.08,-1.44 -1.56,-2.76 -1.8,-3.48 l -1.2,-1.32 c -0.71,0 -0.96,0.61 -0.96,1.68 0,1.68 2.04,11.51 2.28,12.35 0.24,1.32 0.6,1.93 1.2,1.93 0.84,0 1.92,-0.84 4.56,-1.21 3.12,-0.36 7.07,-0.47 10.55,-0.47 h 42.82 c 3.35,0 5.63,0.23 7.2,0.47 1.68,0.24 2.52,0.48 2.87,0.48 0.72,0 0.84,-0.6 0.84,-2.16 0,-2.15 -0.24,-9.71 -0.24,-12.35 -0.11,-1.08 -0.36,-1.68 -0.95,-1.68 -0.84,0 -1.09,0.48 -1.2,2.03 l -0.13,1.09 c -0.24,2.64 -2.99,5.75 -12.46,5.88 l -13.32,0.24 v -41.268 c 0,-9.352 0.11,-17.383 0.6,-21.812 0.35,-2.899 0.96,-4.809 4.07,-5.29 1.44,-0.242 3.84,-0.359 5.41,-0.359 1.19,0 1.67,-0.59 1.67,-1.07 0,-0.731 -0.83,-1.09 -2.04,-1.09 -6.96,0 -14.03,0.359 -17.03,0.359 -2.39,0 -9.6,-0.359 -13.8,-0.359 -1.3,0 -2.03,0.359 -2.03,1.09 0,0.48 0.35,1.07 1.68,1.07 1.56,0 2.87,0.117 3.71,0.359 2.17,0.481 2.77,2.391 3.13,5.399 0.48,4.32 0.48,12.351 0.48,21.703 v 41.268" /><path
         id="path450"
         style="fill:#262424;fill-opacity:1;fill-rule:nonzero;stroke:none"
         d="m 2782.17,981.66 c 0,-1.07 0.23,-1.441 0.96,-1.801 2.28,-0.718 5.4,-0.949 8.03,-0.949 4.2,0 5.64,0.352 7.43,1.68 3.25,2.269 6.84,6.711 6.84,15.101 0,14.399 -9.82,18.119 -16.06,18.119 -2.65,0 -5.16,-0.12 -6.24,-0.36 l -0.96,-1.44 z m -13.44,7.918 c 0,15.472 0,18.352 -0.12,21.592 -0.23,3.48 -1.19,4.55 -4.55,5.51 -0.84,0.24 -2.63,0.36 -4.2,0.36 -1.08,0 -1.79,0.36 -1.79,1.08 0,0.73 0.84,0.96 2.39,0.96 5.52,0 12.24,-0.23 14.39,-0.23 3.61,0 13.2,0.23 16.44,0.23 6.71,0 14.38,-0.6 20.02,-4.31 3.01,-2.05 7.44,-7.2 7.44,-14.04 0,-7.558 -4.32,-14.269 -14.63,-22.55 9.36,-11.508 16.79,-20.739 23.15,-27.11 5.87,-5.859 9.59,-6.34 11.27,-6.699 1.07,-0.25 1.67,-0.25 2.51,-0.25 l 1.32,-1.07 c 0,-0.84 -0.71,-1.09 -2.04,-1.09 h -10.07 c -5.88,0 -8.76,0.598 -11.51,2.039 -4.56,2.289 -8.52,7.07 -14.39,14.988 -4.2,5.524 -8.64,12.364 -9.97,13.922 l -1.91,0.719 -9.47,0.242 -0.84,-0.84 v -1.449 c 0,-9.473 0.12,-17.383 0.6,-21.703 0.36,-3.008 0.84,-4.918 4.08,-5.399 1.55,-0.242 3.83,-0.359 5.15,-0.359 l 1.32,-1.07 c 0,-0.731 -0.84,-1.09 -2.16,-1.09 -6.12,0 -14.87,0.359 -16.43,0.359 -2.03,0 -8.75,-0.359 -12.95,-0.359 -1.32,0 -2.03,0.359 -2.03,1.09 0,0.48 0.35,1.07 1.68,1.07 1.55,0 2.75,0.117 3.71,0.359 2.15,0.481 2.75,2.391 3.12,5.399 0.47,4.32 0.47,12.351 0.47,21.703 v 17.996" /><path
         id="path452"
         style="fill:#262424;fill-opacity:1;fill-rule:nonzero;stroke:none"
         d="m 2878.16,973.391 0.47,0.589 -9.94,25.551 -0.49,0.959 -0.59,-0.959 -10.2,-25.429 0.36,-0.711 z m -22.55,-5.641 -0.96,-0.719 -5.64,-13.793 c -1.08,-2.519 -1.55,-5.039 -1.55,-6.238 0,-1.789 0.96,-2.879 4.2,-2.879 h 1.55 c 1.32,0 1.56,-0.48 1.56,-1.07 0,-0.84 -0.59,-1.09 -1.67,-1.09 -3.49,0 -8.4,0.359 -11.76,0.359 -1.09,0 -6.71,-0.359 -12.24,-0.359 -1.31,0 -1.91,0.25 -1.91,1.09 l 1.2,1.07 c 0.96,0 2.16,0.117 3.11,0.117 4.81,0.723 6.61,3.852 8.75,9 l 27.6,63.682 c 1.19,2.88 2.03,4.08 3.11,4.08 1.56,0 2.05,-0.96 3.12,-3.24 2.52,-5.63 20.16,-46.889 26.87,-62.369 4.07,-9.231 7.08,-10.551 8.99,-10.911 1.56,-0.242 2.76,-0.359 3.97,-0.359 0.95,0 1.42,-0.351 1.42,-1.07 0,-0.84 -0.58,-1.09 -4.55,-1.09 -3.71,0 -11.39,0 -20.27,0.25 -1.92,0.109 -3.12,0.109 -3.12,0.84 0,0.59 0.25,0.949 1.32,1.07 0.72,0.117 1.45,1.09 0.96,2.289 l -8.15,20.621 -1.08,0.719 h -24.83" /><path
         id="path454"
         style="fill:#262424;fill-opacity:1;fill-rule:nonzero;stroke:none"
         d="m 2933.13,1012.85 -15.72,-0.37 c -6.12,-0.12 -8.63,-0.84 -10.19,-3.11 -1.09,-1.44 -1.56,-2.76 -1.8,-3.48 l -1.2,-1.32 c -0.72,0 -0.96,0.61 -0.96,1.68 0,1.68 2.03,11.51 2.28,12.35 0.24,1.32 0.59,1.93 1.2,1.93 0.84,0 1.91,-0.84 4.55,-1.21 3.12,-0.36 7.09,-0.47 10.57,-0.47 h 42.81 c 3.36,0 5.63,0.23 7.19,0.47 1.68,0.24 2.52,0.48 2.89,0.48 0.71,0 0.84,-0.6 0.84,-2.16 0,-2.15 -0.25,-9.71 -0.25,-12.35 -0.13,-1.08 -0.36,-1.68 -0.96,-1.68 -0.84,0 -1.08,0.48 -1.2,2.03 l -0.11,1.09 c -0.25,2.64 -3.01,5.75 -12.48,5.88 l -13.31,0.24 v -41.268 c 0,-9.352 0.12,-17.383 0.59,-21.812 0.37,-2.899 0.96,-4.809 4.08,-5.29 1.45,-0.242 3.84,-0.359 5.39,-0.359 1.21,0 1.68,-0.59 1.68,-1.07 0,-0.731 -0.84,-1.09 -2.03,-1.09 -6.95,0 -14.03,0.359 -17.03,0.359 -2.4,0 -9.59,-0.359 -13.79,-0.359 -1.33,0 -2.04,0.359 -2.04,1.09 0,0.48 0.36,1.07 1.67,1.07 1.56,0 2.89,0.117 3.73,0.359 2.15,0.481 2.76,2.391 3.12,5.399 0.48,4.32 0.48,12.351 0.48,21.703 v 41.268" /><path
         id="path456"
         style="fill:#262424;fill-opacity:1;fill-rule:nonzero;stroke:none"
         d="m 2995.06,989.578 c 0,15.472 0,18.352 -0.13,21.592 -0.24,3.48 -1.2,4.55 -4.56,5.51 -0.84,0.24 -2.64,0.36 -4.2,0.36 -1.07,0 -1.79,0.36 -1.79,1.08 0,0.73 0.83,0.96 2.4,0.96 5.51,0 12.23,-0.23 15.23,-0.23 3.36,0 26.74,-0.13 28.79,0 1.91,0.11 3.59,0.47 4.43,0.59 l 1.68,0.48 0.73,-0.96 c 0,-0.72 -0.61,-1.92 -0.84,-6.6 -0.13,-1.07 -0.37,-5.5 -0.61,-6.72 l -1.2,-1.68 -0.84,1.33 c 0,0.73 -0.12,2.52 -0.71,3.71 -0.84,1.8 -1.68,3.25 -6.97,3.72 -1.79,0.25 -14.38,0.48 -16.55,0.48 l -0.72,-0.95 v -25.191 l 0.72,-1.079 c 2.4,0 16.08,0 18.48,0.239 2.52,0.242 3.95,0.601 5.04,1.551 l 1.68,1.332 0.84,-1.082 c 0,-0.598 -0.25,-2.282 -0.84,-7.43 -0.25,-2.051 -0.49,-6.121 -0.49,-6.84 0,-0.84 -0.12,-2.289 -1.08,-2.289 l -0.95,0.84 c -0.12,1.09 -0.12,2.41 -0.37,3.73 -0.59,2.039 -1.92,3.598 -5.87,3.949 -1.93,0.239 -13.92,0.489 -16.56,0.489 l -0.6,-1.09 v -8.149 c 0,-3.48 -0.12,-12.109 0,-15.121 0.25,-6.949 3.49,-8.507 14.28,-8.507 2.75,0 7.19,0.109 9.96,1.328 2.63,1.191 3.83,3.359 4.55,7.539 0.23,1.09 0.49,1.57 1.2,1.57 0.84,0 0.97,-1.32 0.97,-2.41 0,-2.27 -0.84,-9.219 -1.45,-11.258 -0.72,-2.652 -1.68,-2.652 -5.64,-2.652 -7.91,0 -14.27,0.133 -19.43,0.371 -5.15,0.121 -9.11,0.23 -12.23,0.23 -1.2,0 -3.48,-0.109 -6,-0.109 -2.52,-0.121 -5.16,-0.25 -7.31,-0.25 -1.32,0 -2.05,0.359 -2.05,1.09 0,0.48 0.38,1.07 1.68,1.07 1.57,0 2.77,0.117 3.73,0.359 2.15,0.481 2.76,2.391 3.11,5.399 0.49,4.32 0.49,12.351 0.49,21.703 v 17.996" /><path
         id="path458"
         style="fill:#262424;fill-opacity:1;fill-rule:nonzero;stroke:none"
         d="m 3128.57,948.801 c 0,-2.762 0,-2.879 -1.31,-3.59 -7.08,-3.492 -17.51,-4.57 -25.8,-4.57 -25.89,0 -48.8,11.757 -48.8,39.949 0,16.301 8.75,27.69 18.47,33.34 10.07,5.87 19.54,6.6 28.42,6.6 7.32,0 16.55,-1.21 18.71,-1.68 2.16,-0.37 5.88,-0.97 8.4,-1.09 1.19,-0.12 1.44,-0.47 1.44,-1.2 0,-1.19 -0.73,-3.95 -0.73,-16.79 0,-1.559 -0.59,-2.27 -1.43,-2.27 l -1.08,1.309 c -0.25,2.281 -0.84,5.531 -3.6,8.401 -3.12,3.24 -11.04,7.79 -22.91,7.79 -5.75,0 -13.08,-0.12 -20.38,-6 -5.88,-4.79 -9.73,-12.34 -9.73,-24.82 0,-21.95 14.16,-37.891 36.7,-37.891 2.77,0 4.92,0 7.44,1.07 1.57,0.731 2.04,1.801 2.04,3.602 v 9.348 c 0,5.043 0,8.882 -0.12,11.992 -0.12,3.48 -1.19,4.57 -4.55,5.519 -0.84,0.25 -2.64,0.36 -4.09,0.36 -0.95,0 -1.68,0.48 -1.68,1.082 0,0.84 0.84,0.957 2.29,0.957 5.51,0 13.07,-0.239 16.19,-0.239 3.36,0 8.87,0.239 12.34,0.239 1.45,0 2.17,-0.117 2.17,-0.957 l -1.33,-1.082 c -0.84,0 -1.68,-0.11 -2.87,-0.36 -2.88,-0.48 -3.96,-1.91 -4.08,-5.519 -0.12,-3.11 -0.12,-7.18 -0.12,-12.223 v -11.277" /><path
         id="path460"
         style="fill:#262424;fill-opacity:1;fill-rule:nonzero;stroke:none"
         d="m 3169.52,968.48 c 0,5.5 -0.96,7.668 -2.39,10.661 -0.72,1.558 -15.12,23.979 -18.83,29.389 -2.64,3.72 -4.8,6.12 -6.84,7.19 -1.32,0.73 -3.12,1.32 -4.44,1.32 l -1.55,1.08 c 0,0.73 0.71,0.96 2.03,0.96 1.8,0 9.72,-0.23 13.19,-0.23 2.28,0 7.2,0.23 12,0.23 0.96,0 1.56,-0.23 1.56,-0.96 0,-0.83 -0.72,-0.83 -2.4,-1.32 l -1.44,-1.56 c 0,-0.84 0.48,-2.04 1.32,-3.47 1.92,-3.12 15.71,-26.981 17.51,-29.872 1.32,2.403 14.15,24.232 15.71,27.352 1.09,2.27 1.55,4.07 1.55,5.4 0,0.96 -0.46,1.91 -2.27,2.27 -0.96,0.25 -1.93,0.37 -1.93,1.2 0,0.73 0.61,0.96 1.81,0.96 3.48,0 7.2,-0.23 10.31,-0.23 2.28,0 9.23,0.23 11.28,0.23 1.19,0 1.92,-0.23 1.92,-0.84 0,-0.72 -0.84,-1.2 -2.04,-1.2 -1.09,0 -3,-0.48 -4.56,-1.2 -2.28,-1.07 -3.24,-2.03 -5.51,-4.8 -3.48,-4.07 -18.6,-28.302 -20.51,-32.618 -1.56,-3.711 -1.33,-6.84 -1.33,-10.192 v -8.152 c 0,-1.68 0,-5.879 0.25,-10.199 0.24,-3.008 1.2,-4.918 4.31,-5.399 1.56,-0.242 3.84,-0.359 5.29,-0.359 1.19,0 1.79,-0.59 1.79,-1.07 0,-0.731 -0.84,-1.09 -2.28,-1.09 -6.59,0 -13.67,0.359 -16.55,0.359 -2.63,0 -9.72,-0.359 -13.67,-0.359 -1.44,0 -2.28,0.25 -2.28,1.09 0,0.48 0.49,1.07 1.68,1.07 1.44,0 2.75,0.117 3.72,0.359 2.16,0.481 3,2.391 3.23,5.399 0.36,4.32 0.36,8.519 0.36,10.199 v 8.402" /></g></g></svg>