<svg id="Layer_2" data-name="Layer 2" xmlns="http://www.w3.org/2000/svg" xmlns:xlink="http://www.w3.org/1999/xlink" viewBox="0 0 1927.56 796"><defs><style>.cls-1,.cls-11{fill:#fcc2c2;}.cls-1,.cls-30,.cls-70{opacity:0.5;}.cls-2{fill:url(#linear-gradient);}.cls-3{fill:url(#linear-gradient-2);}.cls-4{fill:url(#linear-gradient-3);}.cls-5{fill:#fff;}.cls-22,.cls-6{opacity:0.2;}.cls-6{fill:url(#linear-gradient-4);}.cls-7{fill:url(#linear-gradient-5);}.cls-8{fill:url(#radial-gradient);}.cls-26,.cls-9{opacity:0.3;}.cls-9{fill:url(#linear-gradient-6);}.cls-10,.cls-18{opacity:0.1;}.cls-10{fill:url(#linear-gradient-7);}.cls-12{fill:#d1dcf9;}.cls-13{fill:#c80000;}.cls-14{fill:url(#linear-gradient-8);}.cls-15{opacity:0.05;}.cls-16{fill:url(#linear-gradient-9);}.cls-17{fill:#7085f1;}.cls-19{fill:url(#linear-gradient-10);}.cls-20{opacity:0.15;}.cls-21{fill:url(#linear-gradient-11);}.cls-23{fill:url(#linear-gradient-12);}.cls-24{opacity:0.25;}.cls-25{fill:url(#linear-gradient-13);}.cls-27{fill:url(#linear-gradient-14);}.cls-28{opacity:0.4;}.cls-29{fill:url(#linear-gradient-15);}.cls-31{fill:url(#linear-gradient-16);}.cls-122,.cls-32{opacity:0.6;}.cls-33{fill:url(#linear-gradient-17);}.cls-34{opacity:0.7;}.cls-35{fill:url(#linear-gradient-18);}.cls-36{opacity:0.8;}.cls-37{fill:url(#linear-gradient-19);}.cls-38{opacity:0.9;}.cls-39{fill:url(#linear-gradient-20);}.cls-40{fill:url(#linear-gradient-21);}.cls-41{fill:#f5f8ff;}.cls-42{fill:url(#linear-gradient-22);}.cls-43{fill:url(#linear-gradient-23);}.cls-44{fill:url(#linear-gradient-24);}.cls-45{fill:url(#linear-gradient-25);}.cls-46{fill:url(#linear-gradient-26);}.cls-47{fill:url(#linear-gradient-27);}.cls-48{fill:url(#linear-gradient-28);}.cls-49{fill:url(#linear-gradient-29);}.cls-50{fill:url(#linear-gradient-30);}.cls-51{fill:url(#linear-gradient-31);}.cls-52{fill:url(#linear-gradient-32);}.cls-53{fill:url(#linear-gradient-33);}.cls-54{fill:url(#linear-gradient-34);}.cls-55{fill:url(#linear-gradient-35);}.cls-56{fill:url(#linear-gradient-36);}.cls-57{fill:url(#linear-gradient-37);}.cls-58{fill:url(#linear-gradient-38);}.cls-59{fill:url(#linear-gradient-39);}.cls-60{fill:url(#linear-gradient-40);}.cls-61{fill:url(#linear-gradient-41);}.cls-62{fill:url(#linear-gradient-42);}.cls-63{fill:url(#linear-gradient-43);}.cls-64{fill:url(#linear-gradient-44);}.cls-65{fill:url(#linear-gradient-45);}.cls-66{fill:url(#linear-gradient-46);}.cls-67{fill:url(#linear-gradient-47);}.cls-68{fill:url(#linear-gradient-48);}.cls-69{fill:url(#linear-gradient-49);}.cls-70{fill:url(#linear-gradient-50);}.cls-71{fill:#da4958;}.cls-72{fill:url(#linear-gradient-51);}.cls-73{fill:url(#linear-gradient-52);}.cls-74{fill:url(#linear-gradient-53);}.cls-75{fill:url(#linear-gradient-54);}.cls-76{fill:url(#linear-gradient-55);}.cls-77{fill:url(#linear-gradient-56);}.cls-78{fill:url(#linear-gradient-57);}.cls-79{fill:url(#linear-gradient-58);}.cls-80{fill:url(#linear-gradient-59);}.cls-81{fill:url(#linear-gradient-60);}.cls-82{fill:url(#linear-gradient-61);}.cls-83{fill:url(#linear-gradient-62);}.cls-84{fill:url(#linear-gradient-63);}.cls-85{fill:url(#linear-gradient-64);}.cls-86{fill:#e8eefd;}.cls-87{fill:url(#linear-gradient-65);}.cls-88{fill:#1a2669;}.cls-89{fill:#4e6bcc;}.cls-90{fill:url(#linear-gradient-66);}.cls-91{fill:url(#linear-gradient-67);}.cls-92{fill:url(#linear-gradient-68);}.cls-93{fill:url(#linear-gradient-69);}.cls-94{fill:url(#linear-gradient-70);}.cls-95{fill:#941215;}.cls-96{fill:url(#linear-gradient-71);}.cls-97,.cls-98,.cls-99{fill:none;stroke:#c80000;stroke-linecap:round;}.cls-97{stroke-miterlimit:10;}.cls-97,.cls-99{stroke-width:4px;}.cls-98,.cls-99{stroke-linejoin:round;}.cls-98{stroke-width:2px;}.cls-100{fill:url(#linear-gradient-72);}.cls-101{fill:url(#linear-gradient-73);}.cls-102{fill:url(#linear-gradient-74);}.cls-103{fill:url(#linear-gradient-75);}.cls-104{fill:url(#linear-gradient-76);}.cls-105{fill:url(#linear-gradient-77);}.cls-106{fill:url(#linear-gradient-78);}.cls-107{fill:url(#linear-gradient-79);}.cls-108{fill:#f6a288;}.cls-109{fill:#e6907a;}.cls-110{fill:#322e34;}.cls-111{fill:#151448;}.cls-112{fill:url(#linear-gradient-80);}.cls-113{fill:url(#linear-gradient-81);}.cls-114{fill:url(#linear-gradient-82);}.cls-115{fill:#fcce7c;}.cls-116{fill:url(#linear-gradient-83);}.cls-117{fill:url(#linear-gradient-84);}.cls-118{fill:url(#linear-gradient-85);}.cls-119{fill:url(#linear-gradient-86);}.cls-120{fill:url(#linear-gradient-87);}.cls-121{fill:#e19474;}.cls-122{fill:url(#linear-gradient-88);}.cls-123{fill:url(#linear-gradient-89);}.cls-124{fill:#8c402f;}.cls-125{fill:url(#linear-gradient-90);}.cls-126{fill:url(#linear-gradient-91);}.cls-127{fill:url(#linear-gradient-92);}.cls-128{fill:url(#linear-gradient-93);}.cls-129{fill:url(#linear-gradient-94);}.cls-130{fill:url(#linear-gradient-95);}.cls-131{fill:url(#linear-gradient-96);}.cls-132{fill:url(#linear-gradient-97);}.cls-133{fill:url(#linear-gradient-98);}.cls-134{fill:url(#linear-gradient-99);}</style><linearGradient id="linear-gradient" x1="2989.4" y1="635.79" x2="3426.26" y2="635.79" gradientTransform="translate(-2981.4)" gradientUnits="userSpaceOnUse"><stop offset="0" stop-color="#b3c6ff"/><stop offset="1" stop-color="#e8efff"/></linearGradient><linearGradient id="linear-gradient-2" x1="1585.3" y1="166.07" x2="1835" y2="166.07" gradientTransform="matrix(1, 0, 0, 1, 0, 0)" xlink:href="#linear-gradient"/><linearGradient id="linear-gradient-3" x1="1341.92" y1="635.79" x2="1778.78" y2="635.79" gradientTransform="matrix(-1, 0, 0, 1, 3266.69, 0)" xlink:href="#linear-gradient"/><linearGradient id="linear-gradient-4" x1="593.26" y1="292.33" x2="842.96" y2="292.33" gradientTransform="matrix(-1, 0, 0, 1, 1283.03, 0)" xlink:href="#linear-gradient"/><linearGradient id="linear-gradient-5" x1="63.72" y1="223.89" x2="313.43" y2="223.89" gradientTransform="matrix(1, 0, 0, 1, 0, 0)" xlink:href="#linear-gradient"/><radialGradient id="radial-gradient" cx="958.03" cy="646.78" r="612.01" gradientTransform="translate(-44.44 558.47) scale(1.04 0.13)" gradientUnits="userSpaceOnUse"><stop offset="0" stop-color="#b3c6ff"/><stop offset="0.08" stop-color="#bcf"/><stop offset="0.48" stop-color="#e0e8ff"/><stop offset="0.8" stop-color="#f7f9ff"/><stop offset="1" stop-color="#fff"/></radialGradient><linearGradient id="linear-gradient-6" x1="-1071.93" y1="203.11" x2="-564.64" y2="203.11" gradientTransform="matrix(-1, 0, 0, 1, 377.15, 0)" xlink:href="#linear-gradient"/><linearGradient id="linear-gradient-7" x1="350.06" y1="185.52" x2="538.55" y2="185.52" gradientTransform="matrix(-1, 0, 0, 1, 1283.03, 0)" xlink:href="#linear-gradient"/><linearGradient id="linear-gradient-8" x1="798.89" y1="632.99" x2="693.88" y2="451.12" gradientUnits="userSpaceOnUse"><stop offset="0" stop-color="#3d55d6"/><stop offset="0.45" stop-color="#748ae9"/><stop offset="1" stop-color="#b3c6ff"/></linearGradient><linearGradient id="linear-gradient-9" x1="719.31" y1="612.27" x2="751.25" y2="612.27" gradientUnits="userSpaceOnUse"><stop offset="0" stop-color="#3d55d6"/><stop offset="1" stop-color="#b3c6ff"/></linearGradient><linearGradient id="linear-gradient-10" x1="719.31" y1="599.39" x2="751.25" y2="599.39" xlink:href="#linear-gradient-9"/><linearGradient id="linear-gradient-11" x1="719.31" y1="586.52" x2="751.25" y2="586.52" xlink:href="#linear-gradient-9"/><linearGradient id="linear-gradient-12" x1="719.31" y1="573.65" x2="751.25" y2="573.65" xlink:href="#linear-gradient-9"/><linearGradient id="linear-gradient-13" x1="719.31" y1="560.78" x2="751.25" y2="560.78" xlink:href="#linear-gradient-9"/><linearGradient id="linear-gradient-14" x1="719.31" y1="547.91" x2="751.25" y2="547.91" xlink:href="#linear-gradient-9"/><linearGradient id="linear-gradient-15" x1="719.31" y1="535.03" x2="751.25" y2="535.03" xlink:href="#linear-gradient-9"/><linearGradient id="linear-gradient-16" x1="719.31" y1="522.16" x2="751.25" y2="522.16" xlink:href="#linear-gradient-9"/><linearGradient id="linear-gradient-17" x1="719.31" y1="509.29" x2="751.25" y2="509.29" xlink:href="#linear-gradient-9"/><linearGradient id="linear-gradient-18" x1="719.31" y1="496.42" x2="751.25" y2="496.42" xlink:href="#linear-gradient-9"/><linearGradient id="linear-gradient-19" x1="719.31" y1="483.54" x2="751.25" y2="483.54" xlink:href="#linear-gradient-9"/><linearGradient id="linear-gradient-20" x1="719.31" y1="470.67" x2="751.25" y2="470.67" xlink:href="#linear-gradient-9"/><linearGradient id="linear-gradient-21" x1="719.31" y1="457.8" x2="751.25" y2="457.8" xlink:href="#linear-gradient-9"/><linearGradient id="linear-gradient-22" x1="816.66" y1="362.18" x2="848.6" y2="362.18" gradientTransform="matrix(1, 0, 0, 1, 0, 0)" xlink:href="#linear-gradient"/><linearGradient id="linear-gradient-23" x1="816.66" y1="371.37" x2="848.6" y2="371.37" gradientTransform="matrix(1, 0, 0, 1, 0, 0)" xlink:href="#linear-gradient"/><linearGradient id="linear-gradient-24" x1="816.66" y1="379.71" x2="848.6" y2="379.71" gradientTransform="matrix(1, 0, 0, 1, 0, 0)" xlink:href="#linear-gradient"/><linearGradient id="linear-gradient-25" x1="854.78" y1="393.11" x2="886.72" y2="393.11" gradientTransform="matrix(1, 0, 0, 1, 0, 0)" xlink:href="#linear-gradient"/><linearGradient id="linear-gradient-26" x1="816.66" y1="392.9" x2="848.6" y2="392.9" gradientTransform="matrix(1, 0, 0, 1, 0, 0)" xlink:href="#linear-gradient"/><linearGradient id="linear-gradient-27" x1="816.66" y1="402.09" x2="848.6" y2="402.09" gradientTransform="matrix(1, 0, 0, 1, 0, 0)" xlink:href="#linear-gradient"/><linearGradient id="linear-gradient-28" x1="854.78" y1="372.28" x2="886.72" y2="372.28" gradientTransform="matrix(1, 0, 0, 1, 0, 0)" xlink:href="#linear-gradient"/><linearGradient id="linear-gradient-29" x1="813.62" y1="433.09" x2="834.65" y2="433.09" gradientTransform="matrix(1, 0, 0, 1, 0, 0)" xlink:href="#linear-gradient"/><linearGradient id="linear-gradient-30" x1="813.62" y1="439.14" x2="834.65" y2="439.14" gradientTransform="matrix(1, 0, 0, 1, 0, 0)" xlink:href="#linear-gradient"/><linearGradient id="linear-gradient-31" x1="813.62" y1="444.64" x2="834.65" y2="444.64" gradientTransform="matrix(1, 0, 0, 1, 0, 0)" xlink:href="#linear-gradient"/><linearGradient id="linear-gradient-32" x1="838.72" y1="453.46" x2="859.76" y2="453.46" gradientTransform="matrix(1, 0, 0, 1, 0, 0)" xlink:href="#linear-gradient"/><linearGradient id="linear-gradient-33" x1="813.62" y1="453.32" x2="834.65" y2="453.32" gradientTransform="matrix(1, 0, 0, 1, 0, 0)" xlink:href="#linear-gradient"/><linearGradient id="linear-gradient-34" x1="813.62" y1="459.38" x2="834.65" y2="459.38" gradientTransform="matrix(1, 0, 0, 1, 0, 0)" xlink:href="#linear-gradient"/><linearGradient id="linear-gradient-35" x1="838.72" y1="439.74" x2="859.76" y2="439.74" gradientTransform="matrix(1, 0, 0, 1, 0, 0)" xlink:href="#linear-gradient"/><linearGradient id="linear-gradient-36" x1="1036.08" y1="623.25" x2="871.82" y2="338.74" gradientTransform="matrix(1, 0, 0, 1, 0, 0)" xlink:href="#linear-gradient"/><linearGradient id="linear-gradient-37" x1="919.63" y1="517.52" x2="951.57" y2="517.52" xlink:href="#linear-gradient-9"/><linearGradient id="linear-gradient-38" x1="919.63" y1="504.65" x2="951.57" y2="504.65" xlink:href="#linear-gradient-9"/><linearGradient id="linear-gradient-39" x1="919.63" y1="491.78" x2="951.57" y2="491.78" xlink:href="#linear-gradient-9"/><linearGradient id="linear-gradient-40" x1="919.63" y1="478.91" x2="951.57" y2="478.91" xlink:href="#linear-gradient-9"/><linearGradient id="linear-gradient-41" x1="919.63" y1="466.03" x2="951.57" y2="466.03" xlink:href="#linear-gradient-9"/><linearGradient id="linear-gradient-42" x1="919.63" y1="453.16" x2="951.57" y2="453.16" xlink:href="#linear-gradient-9"/><linearGradient id="linear-gradient-43" x1="919.63" y1="440.29" x2="951.57" y2="440.29" xlink:href="#linear-gradient-9"/><linearGradient id="linear-gradient-44" x1="919.63" y1="427.42" x2="951.57" y2="427.42" xlink:href="#linear-gradient-9"/><linearGradient id="linear-gradient-45" x1="919.63" y1="414.54" x2="951.57" y2="414.54" xlink:href="#linear-gradient-9"/><linearGradient id="linear-gradient-46" x1="919.63" y1="401.67" x2="951.57" y2="401.67" xlink:href="#linear-gradient-9"/><linearGradient id="linear-gradient-47" x1="919.63" y1="388.8" x2="951.57" y2="388.8" xlink:href="#linear-gradient-9"/><linearGradient id="linear-gradient-48" x1="919.63" y1="375.93" x2="951.57" y2="375.93" xlink:href="#linear-gradient-9"/><linearGradient id="linear-gradient-49" x1="919.63" y1="363.05" x2="951.57" y2="363.05" xlink:href="#linear-gradient-9"/><linearGradient id="linear-gradient-50" x1="1006.09" y1="490.46" x2="1137.05" y2="621.41" gradientUnits="userSpaceOnUse"><stop offset="0" stop-color="#fcb1b6"/><stop offset="0.2" stop-color="#fa9ba3"/><stop offset="0.74" stop-color="#f46673"/><stop offset="1" stop-color="#f25161"/></linearGradient><linearGradient id="linear-gradient-51" x1="1124.91" y1="540.85" x2="1156.85" y2="540.85" xlink:href="#linear-gradient-9"/><linearGradient id="linear-gradient-52" x1="1124.91" y1="527.98" x2="1156.85" y2="527.98" xlink:href="#linear-gradient-9"/><linearGradient id="linear-gradient-53" x1="1124.91" y1="515.11" x2="1156.85" y2="515.11" xlink:href="#linear-gradient-9"/><linearGradient id="linear-gradient-54" x1="1124.91" y1="502.23" x2="1156.85" y2="502.23" xlink:href="#linear-gradient-9"/><linearGradient id="linear-gradient-55" x1="1124.91" y1="489.36" x2="1156.85" y2="489.36" xlink:href="#linear-gradient-9"/><linearGradient id="linear-gradient-56" x1="1124.91" y1="476.49" x2="1156.85" y2="476.49" xlink:href="#linear-gradient-9"/><linearGradient id="linear-gradient-57" x1="1124.91" y1="463.62" x2="1156.85" y2="463.62" xlink:href="#linear-gradient-9"/><linearGradient id="linear-gradient-58" x1="1124.91" y1="450.74" x2="1156.85" y2="450.74" xlink:href="#linear-gradient-9"/><linearGradient id="linear-gradient-59" x1="1124.91" y1="437.87" x2="1156.85" y2="437.87" xlink:href="#linear-gradient-9"/><linearGradient id="linear-gradient-60" x1="1124.91" y1="425" x2="1156.85" y2="425" xlink:href="#linear-gradient-9"/><linearGradient id="linear-gradient-61" x1="1124.91" y1="412.13" x2="1156.85" y2="412.13" xlink:href="#linear-gradient-9"/><linearGradient id="linear-gradient-62" x1="1124.91" y1="399.26" x2="1156.85" y2="399.26" xlink:href="#linear-gradient-9"/><linearGradient id="linear-gradient-63" x1="1124.91" y1="386.38" x2="1156.85" y2="386.38" xlink:href="#linear-gradient-9"/><linearGradient id="linear-gradient-64" x1="564.91" y1="602.82" x2="638.83" y2="602.82" gradientTransform="matrix(1, 0, 0, 1, 0, 0)" xlink:href="#linear-gradient"/><linearGradient id="linear-gradient-65" x1="1053.83" y1="576.43" x2="1068.83" y2="561.43" gradientUnits="userSpaceOnUse"><stop offset="0" stop-color="#b3c6ff"/><stop offset="0.18" stop-color="#92a6f3"/><stop offset="0.42" stop-color="#6d83e7"/><stop offset="0.65" stop-color="#536ade"/><stop offset="0.85" stop-color="#435ad8"/><stop offset="1" stop-color="#3d55d6"/></linearGradient><linearGradient id="linear-gradient-66" x1="1161.74" y1="588.92" x2="1222.46" y2="588.92" gradientTransform="matrix(1, 0, 0, 1, 0, 0)" xlink:href="#linear-gradient"/><linearGradient id="linear-gradient-67" x1="1161.74" y1="624.82" x2="1194.55" y2="624.82" gradientTransform="matrix(1, 0, 0, 1, 0, 0)" xlink:href="#linear-gradient"/><linearGradient id="linear-gradient-68" x1="1161.74" y1="612.86" x2="1222.46" y2="612.86" gradientTransform="matrix(1, 0, 0, 1, 0, 0)" xlink:href="#linear-gradient"/><linearGradient id="linear-gradient-69" x1="1161.97" y1="600.89" x2="1178.82" y2="600.89" gradientTransform="matrix(1, 0, 0, 1, 0, 0)" xlink:href="#linear-gradient"/><linearGradient id="linear-gradient-70" x1="1183.76" y1="600.89" x2="1222.46" y2="600.89" gradientTransform="matrix(1, 0, 0, 1, 0, 0)" xlink:href="#linear-gradient"/><linearGradient id="linear-gradient-71" x1="1067.96" y1="697.42" x2="1146.91" y2="697.42" gradientUnits="userSpaceOnUse"><stop offset="0" stop-color="#3d55d6"/><stop offset="1" stop-color="#3d47a5"/></linearGradient><linearGradient id="linear-gradient-72" x1="850.22" y1="570.04" x2="873.53" y2="570.04" gradientUnits="userSpaceOnUse"><stop offset="0" stop-color="#b3c6ff"/><stop offset="1" stop-color="#3d55d6"/></linearGradient><linearGradient id="linear-gradient-73" x1="880.43" y1="568.17" x2="922.6" y2="568.17" gradientUnits="userSpaceOnUse"><stop offset="0" stop-color="#3d55d6"/><stop offset="1" stop-color="#3d47b7"/></linearGradient><linearGradient id="linear-gradient-74" x1="867.56" y1="633.55" x2="913.84" y2="633.55" gradientTransform="matrix(1, 0.03, -0.03, 0.95, 19.59, 6.5)" xlink:href="#linear-gradient-72"/><linearGradient id="linear-gradient-75" x1="865.08" y1="610.14" x2="910.6" y2="610.14" gradientTransform="matrix(1, 0.03, -0.03, 0.93, 18.87, 15.68)" xlink:href="#linear-gradient-72"/><linearGradient id="linear-gradient-76" x1="860.27" y1="586.01" x2="905.79" y2="586.01" gradientTransform="matrix(0.95, 0.03, -0.03, 0.89, 62.46, 38.02)" xlink:href="#linear-gradient-72"/><linearGradient id="linear-gradient-77" x1="857.67" y1="562.8" x2="903.19" y2="562.8" gradientTransform="matrix(0.94, 0.03, -0.03, 0.91, 74.09, 28.26)" xlink:href="#linear-gradient-72"/><linearGradient id="linear-gradient-78" x1="857.08" y1="538.5" x2="897.14" y2="538.5" gradientTransform="matrix(0.98, 0.03, -0.03, 0.88, 36.81, 39.81)" xlink:href="#linear-gradient-72"/><linearGradient id="linear-gradient-79" x1="855.33" y1="496.27" x2="886.29" y2="496.27" gradientTransform="matrix(1, 0.02, -0.03, 0.8, 15.44, 80)" xlink:href="#linear-gradient-72"/><linearGradient id="linear-gradient-80" x1="851.4" y1="519.92" x2="890.1" y2="542.26" xlink:href="#linear-gradient-50"/><linearGradient id="linear-gradient-81" x1="690.74" y1="391.03" x2="710.25" y2="391.03" gradientTransform="matrix(1, 0, 0, 1, 0, 0)" xlink:href="#linear-gradient"/><linearGradient id="linear-gradient-82" x1="682.55" y1="410.1" x2="718.44" y2="410.1" gradientTransform="matrix(1, 0, 0, 1, 0, 0)" xlink:href="#linear-gradient"/><linearGradient id="linear-gradient-83" x1="673.2" y1="471.04" x2="689.48" y2="480.44" gradientUnits="userSpaceOnUse"><stop offset="0" stop-color="#e8efff"/><stop offset="1" stop-color="#b3c6ff"/></linearGradient><linearGradient id="linear-gradient-84" x1="647.32" y1="500.52" x2="705.62" y2="500.52" gradientUnits="userSpaceOnUse"><stop offset="0" stop-color="#fff"/><stop offset="0.33" stop-color="#fcfdff"/><stop offset="0.58" stop-color="#f3f6ff"/><stop offset="0.79" stop-color="#e3eaff"/><stop offset="0.99" stop-color="#ccd9ff"/><stop offset="1" stop-color="#cbd8ff"/></linearGradient><linearGradient id="linear-gradient-85" x1="649.67" y1="466.74" x2="678.83" y2="466.74" gradientUnits="userSpaceOnUse"><stop offset="0" stop-color="#1a2669"/><stop offset="1" stop-color="#3d55d6"/></linearGradient><linearGradient id="linear-gradient-86" x1="1034.08" y1="420.37" x2="1060.4" y2="420.37" xlink:href="#linear-gradient-71"/><linearGradient id="linear-gradient-87" x1="1007.44" y1="357.22" x2="1031.62" y2="399.11" gradientUnits="userSpaceOnUse"><stop offset="0" stop-color="#b3c6ff"/><stop offset="0.29" stop-color="#a1b5f9"/><stop offset="0.86" stop-color="#7489e9"/><stop offset="1" stop-color="#677de5"/></linearGradient><linearGradient id="linear-gradient-88" x1="1152.46" y1="305.69" x2="1188.59" y2="305.69" gradientUnits="userSpaceOnUse"><stop offset="0" stop-color="#f25161"/><stop offset="0.26" stop-color="#f46673"/><stop offset="0.8" stop-color="#fa9ba3"/><stop offset="1" stop-color="#fcb1b6"/></linearGradient><linearGradient id="linear-gradient-89" x1="1230.49" y1="624.85" x2="1303.92" y2="582.45" xlink:href="#linear-gradient-84"/><linearGradient id="linear-gradient-90" x1="1257.32" y1="519.67" x2="1310.88" y2="519.67" xlink:href="#linear-gradient-72"/><linearGradient id="linear-gradient-91" x1="1230.07" y1="442.31" x2="1248.01" y2="442.31" xlink:href="#linear-gradient-50"/><linearGradient id="linear-gradient-92" x1="1240.8" y1="444.36" x2="1254.1" y2="444.36" xlink:href="#linear-gradient-50"/><linearGradient id="linear-gradient-93" x1="1246.01" y1="431.43" x2="1252.32" y2="431.43" xlink:href="#linear-gradient-50"/><linearGradient id="linear-gradient-94" x1="932.56" y1="338.95" x2="938.68" y2="338.95" xlink:href="#linear-gradient-9"/><linearGradient id="linear-gradient-95" x1="939.79" y1="340.04" x2="947.98" y2="340.04" xlink:href="#linear-gradient-9"/><linearGradient id="linear-gradient-96" x1="923.22" y1="340.04" x2="931.41" y2="340.04" xlink:href="#linear-gradient-9"/><linearGradient id="linear-gradient-97" x1="923.49" y1="340.93" x2="931.8" y2="340.93" xlink:href="#linear-gradient-9"/><linearGradient id="linear-gradient-98" x1="939.4" y1="340.93" x2="947.71" y2="340.93" xlink:href="#linear-gradient-9"/><linearGradient id="linear-gradient-99" x1="932.92" y1="339.81" x2="938.37" y2="339.81" xlink:href="#linear-gradient-9"/></defs><title>ilustracion-1-Hannah</title><path class="cls-1" d="M1925.77,737.6h-673s51-29,68.18-111.79c9.39-45.28,32.87-85,72.75-85s47.77,55.48,83.31,53.74,58.1-32.94,78-89.3,41-104,100.85-104S1759,471,1769,492.48C1786.27,529.76,1800.66,717.3,1925.77,737.6Z"/><path class="cls-1" d="M1233.84,734.62h673s-51-29-68.17-111.79c-9.39-45.29-32.87-85-72.75-85s-58.77,55.48-94.32,53.74-47.09-32.94-67-89.3-52-104-111.85-104S1400.56,468,1390.61,489.5C1373.34,526.78,1359,714.32,1233.84,734.62Z"/><path class="cls-1" d="M51.28,708.76h673s-51-29-68.17-111.79c-9.4-45.28-32.87-85-72.76-85s-47.76,55.47-83.31,53.74-58.09-33-78-89.31-52-104-111.85-104S218,442.16,208,463.65C190.77,500.93,176.38,688.46,51.28,708.76Z"/><path class="cls-1" d="M830.14,695.56H26.57S41,700,54.14,655.68c12.9-43.64,26.88-85,66.76-85s53.76,55.49,89.31,53.76,58.09-33,78-89.31,52-104,111.85-104,87.57,71.09,97.1,92.77,16.48,49.42,42.49,49.42,38.15-22.54,46-33.81,52.89-53.76,98.84,19.07S743.43,677.36,830.14,695.56Z"/><path class="cls-2" d="M8,737.85s34.21-14.17,55.66-63.7,38.3-53.58,53.11-54.21,27.06,9.92,47,34.87,34.4,38.29,51.76,37.78,38.89-24.06,57.14-54.7S323.57,533.72,370,533.72s74.82,64.85,74.82,64.85V737.85H8"/><path class="cls-3" d="M1585.3,205H1835s-14.3,0-21.19-11.74-7.92-25-19.66-25-15.83,16.34-26.3,15.83-17.1-9.71-23-26.3-15.32-30.64-32.93-30.64-25.79,20.94-28.6,27.32S1678.49,169,1670.83,169s-11.23-6.64-13.53-10-15.58-15.83-29.11,5.62S1610.83,199.64,1585.3,205Z"/><path class="cls-4" d="M1924.77,737.85s-34.21-14.17-55.66-63.7-38.3-53.58-53.1-54.21-27.07,9.92-47,34.87-45.4,38.29-62.76,37.78-27.88-24.06-46.14-54.7-50.93-104.17-97.4-104.17-74.82,64.85-74.82,64.85V737.85h436.86"/><rect class="cls-5" x="361.17" y="107.85" width="1193.7" height="630"/><path class="cls-6" d="M689.77,331.26H440.06s14.3,0,21.2-11.74,7.91-25,19.65-25,15.83,16.34,26.3,15.83,17.11-9.71,23-26.3,15.32-30.64,32.94-30.64,25.78,20.94,28.59,27.32,4.85,14.55,12.51,14.55,11.24-6.64,13.54-10,15.57-15.83,29.1,5.62S664.23,325.9,689.77,331.26Z"/><path class="cls-7" d="M63.72,262.83H313.43s-14.3,0-21.2-11.74-7.91-25-19.66-25-15.83,16.34-26.29,15.83-17.11-9.7-23-26.29S208,185,190.36,185s-25.79,20.93-28.59,27.32-4.86,14.55-12.51,14.55-11.24-6.64-13.54-10-15.57-15.83-29.1,5.62S89.26,257.47,63.72,262.83Z"/><rect class="cls-8" x="361.17" y="612.04" width="1193.7" height="118.55"/><path class="cls-9" d="M1449.08,282.21H941.79s29.05,0,43.05-23.86,16.08-50.83,39.94-50.83,32.16,33.2,53.43,32.16S1113,220,1124.89,186.25,1156,124,1191.8,124s52.39,42.53,58.1,55.5,9.85,29.57,25.41,29.57,22.83-13.49,27.5-20.23,31.64-32.16,59.13,11.41S1397.21,271.32,1449.08,282.21Z"/><path class="cls-10" d="M933,214.91H744.48s10.79,0,16-8.87,6-18.88,14.84-18.88,12,12.33,19.86,12,12.91-7.33,17.34-19.86,11.57-23.12,24.86-23.12,19.47,15.8,21.59,20.62,3.66,11,9.45,11,8.48-5,10.21-7.52,11.76-11.95,22,4.24S913.7,210.86,933,214.91Z"/><path class="cls-11" d="M1367.13,583.42H1132.91s34.39-18.47,41.54-67.49,30.29-114.38,70.48-114.38c38.45,0,65.83,63.15,74.88,109.45C1330,563.25,1367.13,583.42,1367.13,583.42Z"/><path class="cls-11" d="M414.73,628.76H812.57s-32.17-20.88-38.8-58.92-14-47.72-29.34-47.48c-16.09.25-22.9,30.13-37.57,29.7s-24-19.21-27.52-27.53C669.27,501,650.7,501.92,641.26,517c-6.4,10.19-11,20.42-24,20.42-13.79,0-18.64-14.55-26.3-27.06-8.55-14-35.75-34-56.17,4.42s-18.39,51.75-32.34,51.41c-16.68-.41-13.53-20.94-30.21-20.26s-20.3,30.49-27.33,48.17C435.72,617.24,414.73,628.76,414.73,628.76Z"/><path class="cls-12" d="M1490.7,619.68H1098.13s32.17-15.62,38.81-53.66,14-47.72,29.34-47.48c16.08.26,22.9,30.13,37.56,29.7s19-20.11,22.61-28.43c10.06-23.49,33.55-21.7,43-6.64,6.39,10.19,11,20.43,24,20.43,13.78,0,18.64-14.56,26.29-27.07,8.56-14,35.75-34,56.17,4.43s18.39,51.74,32.35,51.4c16.67-.41,13.52-20.94,30.2-20.26s20.3,30.49,27.33,48.18C1475,613.43,1490.7,619.68,1490.7,619.68Z"/><path class="cls-13" d="M523,613.22c-3.11-.34-4.2-2.55-6.55-4.22-1.43-1-3.8-1.16-4.58.4-1.17,2.34,2.52,5.48.75,7.4a2.7,2.7,0,0,1-3.23.14c-1-.56-1.82-1.45-2.83-2a5.51,5.51,0,0,0-7.68,3.32c-.51,2-.59,5.19-2.7,5.07-1.27-.08-2.15-1.62-3.42-1.57-2.67.11-1.36,5.77-4,6.22-1.44.25-2.35-1.43-3.38-2.47-2-2-5.7-1.7-7.72.34a8.21,8.21,0,0,0-1.66,8c.43,1.43,1.17,2.86,1,4.34s-2,2.79-3.19,1.82a3.74,3.74,0,0,1-.79-1.2,7,7,0,0,0-13.15,2c-.31,1.68-.76,4.14-2.44,3.83a3.17,3.17,0,0,1-1.25-.7,7.82,7.82,0,0,0-12.46,6.45h81.6l.23-35.1A2.63,2.63,0,0,0,523,613.22Z"/><path class="cls-13" d="M1216.07,611.42c3.1-.34,4.2-2.55,6.55-4.21,1.42-1,3.8-1.16,4.58.39,1.17,2.34-2.52,5.48-.75,7.4a2.7,2.7,0,0,0,3.23.14c1-.56,1.82-1.45,2.83-2a5.52,5.52,0,0,1,7.68,3.32c.51,2,.59,5.19,2.7,5.07,1.27-.08,2.15-1.62,3.42-1.57,2.67.11,1.36,5.77,4,6.22,1.44.25,2.35-1.43,3.38-2.47,2-2,5.7-1.7,7.72.34a8.18,8.18,0,0,1,1.65,8c-.42,1.43-1.16,2.86-1,4.34s2.05,2.79,3.19,1.82a3.74,3.74,0,0,0,.79-1.2,7,7,0,0,1,13.15,2c.31,1.68.76,4.14,2.44,3.83a3.17,3.17,0,0,0,1.25-.7,7.82,7.82,0,0,1,12.46,6.45h-81.6l-.23-35.1A2.63,2.63,0,0,1,1216.07,611.42Z"/><path class="cls-14" d="M710.94,444.54V485l-19.56,20.18a8.5,8.5,0,0,0-2.4,5.92V633.94H797.26V438.87H716.61A5.67,5.67,0,0,0,710.94,444.54Z"/><g class="cls-15"><path class="cls-16" d="M749.75,613.77H720.81a1.5,1.5,0,0,1,0-3h28.94a1.5,1.5,0,0,1,0,3Z"/><path class="cls-17" d="M772.53,613.77H761.44a1.5,1.5,0,0,1,0-3h11.09a1.5,1.5,0,0,1,0,3Z"/><path class="cls-17" d="M782.24,613.77h-3.07a1.5,1.5,0,0,1,0-3h3.07a1.5,1.5,0,0,1,0,3Z"/></g><g class="cls-18"><path class="cls-19" d="M749.75,600.89H720.81a1.5,1.5,0,0,1,0-3h28.94a1.5,1.5,0,0,1,0,3Z"/><path class="cls-17" d="M772.53,600.89H761.44a1.5,1.5,0,0,1,0-3h11.09a1.5,1.5,0,0,1,0,3Z"/><path class="cls-17" d="M782.24,600.89h-3.07a1.5,1.5,0,0,1,0-3h3.07a1.5,1.5,0,0,1,0,3Z"/></g><g class="cls-20"><path class="cls-21" d="M749.75,588H720.81a1.5,1.5,0,0,1,0-3h28.94a1.5,1.5,0,0,1,0,3Z"/><path class="cls-17" d="M772.53,588H761.44a1.5,1.5,0,0,1,0-3h11.09a1.5,1.5,0,0,1,0,3Z"/><path class="cls-17" d="M782.24,588h-3.07a1.5,1.5,0,0,1,0-3h3.07a1.5,1.5,0,0,1,0,3Z"/></g><g class="cls-22"><path class="cls-23" d="M749.75,575.15H720.81a1.5,1.5,0,0,1,0-3h28.94a1.5,1.5,0,0,1,0,3Z"/><path class="cls-17" d="M772.53,575.15H761.44a1.5,1.5,0,0,1,0-3h11.09a1.5,1.5,0,0,1,0,3Z"/><path class="cls-17" d="M782.24,575.15h-3.07a1.5,1.5,0,0,1,0-3h3.07a1.5,1.5,0,0,1,0,3Z"/></g><g class="cls-24"><path class="cls-25" d="M749.75,562.28H720.81a1.5,1.5,0,0,1,0-3h28.94a1.5,1.5,0,0,1,0,3Z"/><path class="cls-17" d="M772.53,562.28H761.44a1.5,1.5,0,0,1,0-3h11.09a1.5,1.5,0,0,1,0,3Z"/><path class="cls-17" d="M782.24,562.28h-3.07a1.5,1.5,0,1,1,0-3h3.07a1.5,1.5,0,0,1,0,3Z"/></g><g class="cls-26"><path class="cls-27" d="M749.75,549.41H720.81a1.5,1.5,0,0,1,0-3h28.94a1.5,1.5,0,0,1,0,3Z"/><path class="cls-17" d="M772.53,549.41H761.44a1.5,1.5,0,0,1,0-3h11.09a1.5,1.5,0,0,1,0,3Z"/><path class="cls-17" d="M782.24,549.41h-3.07a1.5,1.5,0,0,1,0-3h3.07a1.5,1.5,0,0,1,0,3Z"/></g><g class="cls-28"><path class="cls-29" d="M749.75,536.53H720.81a1.5,1.5,0,0,1,0-3h28.94a1.5,1.5,0,0,1,0,3Z"/><path class="cls-17" d="M772.53,536.53H761.44a1.5,1.5,0,0,1,0-3h11.09a1.5,1.5,0,0,1,0,3Z"/><path class="cls-17" d="M782.24,536.53h-3.07a1.5,1.5,0,1,1,0-3h3.07a1.5,1.5,0,0,1,0,3Z"/></g><g class="cls-30"><path class="cls-31" d="M749.75,523.66H720.81a1.5,1.5,0,0,1,0-3h28.94a1.5,1.5,0,0,1,0,3Z"/><path class="cls-17" d="M772.53,523.66H761.44a1.5,1.5,0,0,1,0-3h11.09a1.5,1.5,0,0,1,0,3Z"/><path class="cls-17" d="M782.24,523.66h-3.07a1.5,1.5,0,0,1,0-3h3.07a1.5,1.5,0,0,1,0,3Z"/></g><g class="cls-32"><path class="cls-33" d="M749.75,510.79H720.81a1.5,1.5,0,0,1,0-3h28.94a1.5,1.5,0,0,1,0,3Z"/><path class="cls-17" d="M772.53,510.79H761.44a1.5,1.5,0,0,1,0-3h11.09a1.5,1.5,0,0,1,0,3Z"/><path class="cls-17" d="M782.24,510.79h-3.07a1.5,1.5,0,0,1,0-3h3.07a1.5,1.5,0,0,1,0,3Z"/></g><g class="cls-34"><path class="cls-35" d="M749.75,497.92H720.81a1.5,1.5,0,0,1,0-3h28.94a1.5,1.5,0,0,1,0,3Z"/><path class="cls-17" d="M772.53,497.92H761.44a1.5,1.5,0,0,1,0-3h11.09a1.5,1.5,0,0,1,0,3Z"/><path class="cls-17" d="M782.24,497.92h-3.07a1.5,1.5,0,0,1,0-3h3.07a1.5,1.5,0,0,1,0,3Z"/></g><g class="cls-36"><path class="cls-37" d="M749.75,485H720.81a1.5,1.5,0,0,1,0-3h28.94a1.5,1.5,0,0,1,0,3Z"/><path class="cls-17" d="M772.53,485H761.44a1.5,1.5,0,0,1,0-3h11.09a1.5,1.5,0,0,1,0,3Z"/><path class="cls-17" d="M782.24,485h-3.07a1.5,1.5,0,0,1,0-3h3.07a1.5,1.5,0,0,1,0,3Z"/></g><g class="cls-38"><path class="cls-39" d="M749.75,472.17H720.81a1.5,1.5,0,0,1,0-3h28.94a1.5,1.5,0,0,1,0,3Z"/><path class="cls-17" d="M772.53,472.17H761.44a1.5,1.5,0,0,1,0-3h11.09a1.5,1.5,0,0,1,0,3Z"/><path class="cls-17" d="M782.24,472.17h-3.07a1.5,1.5,0,0,1,0-3h3.07a1.5,1.5,0,0,1,0,3Z"/></g><path class="cls-40" d="M749.75,459.3H720.81a1.5,1.5,0,0,1,0-3h28.94a1.5,1.5,0,0,1,0,3Z"/><path class="cls-17" d="M772.53,459.3H761.44a1.5,1.5,0,0,1,0-3h11.09a1.5,1.5,0,0,1,0,3Z"/><path class="cls-17" d="M782.24,459.3h-3.07a1.5,1.5,0,0,1,0-3h3.07a1.5,1.5,0,0,1,0,3Z"/><path class="cls-41" d="M793,345.48V628.27a5.67,5.67,0,0,0,5.67,5.67H910.4v-288a6.1,6.1,0,0,0-6.1-6.1H798.67A5.67,5.67,0,0,0,793,345.48Z"/><rect class="cls-5" x="807.74" y="353.62" width="88.17" height="58.09" rx="5.67"/><path class="cls-42" d="M847.1,363.68H818.16a1.5,1.5,0,0,1,0-3H847.1a1.5,1.5,0,0,1,0,3Z"/><path class="cls-43" d="M847.1,372.87H818.16a1.5,1.5,0,0,1,0-3H847.1a1.5,1.5,0,0,1,0,3Z"/><path class="cls-44" d="M847.1,381.21H818.16a1.5,1.5,0,0,1,0-3H847.1a1.5,1.5,0,0,1,0,3Z"/><path class="cls-45" d="M885.22,394.61H856.28a1.5,1.5,0,0,1,0-3h28.94a1.5,1.5,0,0,1,0,3Z"/><path class="cls-46" d="M847.1,394.4H818.16a1.5,1.5,0,0,1,0-3H847.1a1.5,1.5,0,0,1,0,3Z"/><path class="cls-47" d="M847.1,403.59H818.16a1.5,1.5,0,0,1,0-3H847.1a1.5,1.5,0,0,1,0,3Z"/><rect class="cls-48" x="854.78" y="360.68" width="31.94" height="23.2" rx="2.74"/><g class="cls-26"><rect class="cls-5" x="807.74" y="427.45" width="58.08" height="38.26" rx="5.67"/><path class="cls-49" d="M833.67,434.08H814.61a1,1,0,0,1,0-2h19.06a1,1,0,0,1,0,2Z"/><path class="cls-50" d="M833.67,440.13H814.61a1,1,0,1,1,0-2h19.06a1,1,0,0,1,0,2Z"/><path class="cls-51" d="M833.67,445.63H814.61a1,1,0,0,1,0-2h19.06a1,1,0,0,1,0,2Z"/><path class="cls-52" d="M858.77,454.45H839.71a1,1,0,0,1,0-2h19.06a1,1,0,1,1,0,2Z"/><path class="cls-53" d="M833.67,454.31H814.61a1,1,0,1,1,0-2h19.06a1,1,0,0,1,0,2Z"/><path class="cls-54" d="M833.67,460.37H814.61a1,1,0,0,1,0-2h19.06a1,1,0,0,1,0,2Z"/><rect class="cls-55" x="838.72" y="432.1" width="21.03" height="15.28" rx="2.74"/></g><path class="cls-56" d="M992.89,433.78V320.58a5.67,5.67,0,0,0-5.67-5.67H914.36a4.77,4.77,0,0,0-4.76,4.77V633.55h108.63V463.38a8.54,8.54,0,0,0-2.39-5.92Z"/><g class="cls-15"><path class="cls-57" d="M950.07,519H921.13a1.5,1.5,0,0,1,0-3h28.94a1.5,1.5,0,1,1,0,3Z"/><path class="cls-17" d="M972.86,519h-11.1a1.5,1.5,0,0,1,0-3h11.1a1.5,1.5,0,1,1,0,3Z"/><path class="cls-17" d="M982.56,519h-3.07a1.5,1.5,0,0,1,0-3h3.07a1.5,1.5,0,0,1,0,3Z"/></g><g class="cls-18"><path class="cls-58" d="M950.07,506.15H921.13a1.5,1.5,0,0,1,0-3h28.94a1.5,1.5,0,0,1,0,3Z"/><path class="cls-17" d="M972.86,506.15h-11.1a1.5,1.5,0,0,1,0-3h11.1a1.5,1.5,0,0,1,0,3Z"/><path class="cls-17" d="M982.56,506.15h-3.07a1.5,1.5,0,0,1,0-3h3.07a1.5,1.5,0,0,1,0,3Z"/></g><g class="cls-20"><path class="cls-59" d="M950.07,493.28H921.13a1.5,1.5,0,1,1,0-3h28.94a1.5,1.5,0,0,1,0,3Z"/><path class="cls-17" d="M972.86,493.28h-11.1a1.5,1.5,0,0,1,0-3h11.1a1.5,1.5,0,0,1,0,3Z"/><path class="cls-17" d="M982.56,493.28h-3.07a1.5,1.5,0,0,1,0-3h3.07a1.5,1.5,0,0,1,0,3Z"/></g><g class="cls-22"><path class="cls-60" d="M950.07,480.41H921.13a1.5,1.5,0,0,1,0-3h28.94a1.5,1.5,0,0,1,0,3Z"/><path class="cls-17" d="M972.86,480.41h-11.1a1.5,1.5,0,0,1,0-3h11.1a1.5,1.5,0,0,1,0,3Z"/><path class="cls-17" d="M982.56,480.41h-3.07a1.5,1.5,0,0,1,0-3h3.07a1.5,1.5,0,0,1,0,3Z"/></g><g class="cls-24"><path class="cls-61" d="M950.07,467.53H921.13a1.5,1.5,0,1,1,0-3h28.94a1.5,1.5,0,0,1,0,3Z"/><path class="cls-17" d="M972.86,467.53h-11.1a1.5,1.5,0,0,1,0-3h11.1a1.5,1.5,0,0,1,0,3Z"/><path class="cls-17" d="M982.56,467.53h-3.07a1.5,1.5,0,0,1,0-3h3.07a1.5,1.5,0,0,1,0,3Z"/></g><g class="cls-26"><path class="cls-62" d="M950.07,454.66H921.13a1.5,1.5,0,0,1,0-3h28.94a1.5,1.5,0,0,1,0,3Z"/><path class="cls-17" d="M972.86,454.66h-11.1a1.5,1.5,0,0,1,0-3h11.1a1.5,1.5,0,0,1,0,3Z"/><path class="cls-17" d="M982.56,454.66h-3.07a1.5,1.5,0,0,1,0-3h3.07a1.5,1.5,0,0,1,0,3Z"/></g><g class="cls-28"><path class="cls-63" d="M950.07,441.79H921.13a1.5,1.5,0,0,1,0-3h28.94a1.5,1.5,0,0,1,0,3Z"/><path class="cls-17" d="M972.86,441.79h-11.1a1.5,1.5,0,0,1,0-3h11.1a1.5,1.5,0,0,1,0,3Z"/><path class="cls-17" d="M982.56,441.79h-3.07a1.5,1.5,0,0,1,0-3h3.07a1.5,1.5,0,0,1,0,3Z"/></g><g class="cls-30"><path class="cls-64" d="M950.07,428.92H921.13a1.5,1.5,0,0,1,0-3h28.94a1.5,1.5,0,0,1,0,3Z"/><path class="cls-17" d="M972.86,428.92h-11.1a1.5,1.5,0,0,1,0-3h11.1a1.5,1.5,0,0,1,0,3Z"/><path class="cls-17" d="M982.56,428.92h-3.07a1.5,1.5,0,0,1,0-3h3.07a1.5,1.5,0,0,1,0,3Z"/></g><g class="cls-32"><path class="cls-65" d="M950.07,416H921.13a1.5,1.5,0,0,1,0-3h28.94a1.5,1.5,0,0,1,0,3Z"/><path class="cls-17" d="M972.86,416h-11.1a1.5,1.5,0,0,1,0-3h11.1a1.5,1.5,0,0,1,0,3Z"/><path class="cls-17" d="M982.56,416h-3.07a1.5,1.5,0,0,1,0-3h3.07a1.5,1.5,0,0,1,0,3Z"/></g><g class="cls-34"><path class="cls-66" d="M950.07,403.17H921.13a1.5,1.5,0,0,1,0-3h28.94a1.5,1.5,0,0,1,0,3Z"/><path class="cls-17" d="M972.86,403.17h-11.1a1.5,1.5,0,0,1,0-3h11.1a1.5,1.5,0,0,1,0,3Z"/><path class="cls-17" d="M982.56,403.17h-3.07a1.5,1.5,0,0,1,0-3h3.07a1.5,1.5,0,0,1,0,3Z"/></g><g class="cls-36"><path class="cls-67" d="M950.07,390.3H921.13a1.5,1.5,0,0,1,0-3h28.94a1.5,1.5,0,0,1,0,3Z"/><path class="cls-17" d="M972.86,390.3h-11.1a1.5,1.5,0,0,1,0-3h11.1a1.5,1.5,0,0,1,0,3Z"/><path class="cls-17" d="M982.56,390.3h-3.07a1.5,1.5,0,0,1,0-3h3.07a1.5,1.5,0,0,1,0,3Z"/></g><g class="cls-38"><path class="cls-68" d="M950.07,377.43H921.13a1.5,1.5,0,0,1,0-3h28.94a1.5,1.5,0,0,1,0,3Z"/><path class="cls-17" d="M972.86,377.43h-11.1a1.5,1.5,0,0,1,0-3h11.1a1.5,1.5,0,0,1,0,3Z"/><path class="cls-17" d="M982.56,377.43h-3.07a1.5,1.5,0,0,1,0-3h3.07a1.5,1.5,0,0,1,0,3Z"/></g><path class="cls-69" d="M950.07,364.55H921.13a1.5,1.5,0,0,1,0-3h28.94a1.5,1.5,0,0,1,0,3Z"/><path class="cls-17" d="M972.86,364.55h-11.1a1.5,1.5,0,0,1,0-3h11.1a1.5,1.5,0,0,1,0,3Z"/><path class="cls-17" d="M982.56,364.55h-3.07a1.5,1.5,0,0,1,0-3h3.07a1.5,1.5,0,0,1,0,3Z"/><rect class="cls-5" x="1018.23" y="478.32" width="106.68" height="155.23"/><rect class="cls-70" x="1018.23" y="478.32" width="106.68" height="155.23"/><g class="cls-26"><g class="cls-22"><path class="cls-71" d="M1063.89,591.12h-26.21a1.36,1.36,0,0,1,0-2.72h26.21a1.36,1.36,0,0,1,0,2.72Z"/><path class="cls-71" d="M1084.53,591.12h-10a1.36,1.36,0,0,1,0-2.72h10a1.36,1.36,0,1,1,0,2.72Z"/><path class="cls-71" d="M1093.32,591.12h-2.77a1.36,1.36,0,1,1,0-2.72h2.77a1.36,1.36,0,1,1,0,2.72Z"/></g><g class="cls-26"><path class="cls-71" d="M1063.89,579.46h-26.21a1.36,1.36,0,0,1,0-2.72h26.21a1.36,1.36,0,0,1,0,2.72Z"/><path class="cls-71" d="M1084.53,579.46h-10a1.36,1.36,0,0,1,0-2.72h10a1.36,1.36,0,1,1,0,2.72Z"/><path class="cls-71" d="M1093.32,579.46h-2.77a1.36,1.36,0,1,1,0-2.72h2.77a1.36,1.36,0,1,1,0,2.72Z"/></g><g class="cls-28"><path class="cls-71" d="M1063.89,567.8h-26.21a1.36,1.36,0,1,1,0-2.72h26.21a1.36,1.36,0,0,1,0,2.72Z"/><path class="cls-71" d="M1084.53,567.8h-10a1.36,1.36,0,1,1,0-2.72h10a1.36,1.36,0,1,1,0,2.72Z"/><path class="cls-71" d="M1093.32,567.8h-2.77a1.36,1.36,0,0,1,0-2.72h2.77a1.36,1.36,0,1,1,0,2.72Z"/></g><g class="cls-30"><path class="cls-71" d="M1063.89,556.14h-26.21a1.36,1.36,0,0,1,0-2.72h26.21a1.36,1.36,0,0,1,0,2.72Z"/><path class="cls-71" d="M1084.53,556.14h-10a1.36,1.36,0,0,1,0-2.72h10a1.36,1.36,0,1,1,0,2.72Z"/><path class="cls-71" d="M1093.32,556.14h-2.77a1.36,1.36,0,1,1,0-2.72h2.77a1.36,1.36,0,1,1,0,2.72Z"/></g><g class="cls-32"><path class="cls-71" d="M1063.89,544.48h-26.21a1.36,1.36,0,0,1,0-2.72h26.21a1.36,1.36,0,0,1,0,2.72Z"/><path class="cls-71" d="M1084.53,544.48h-10a1.36,1.36,0,0,1,0-2.72h10a1.36,1.36,0,1,1,0,2.72Z"/><path class="cls-71" d="M1093.32,544.48h-2.77a1.36,1.36,0,1,1,0-2.72h2.77a1.36,1.36,0,1,1,0,2.72Z"/></g><g class="cls-34"><path class="cls-71" d="M1063.89,532.82h-26.21a1.36,1.36,0,0,1,0-2.72h26.21a1.36,1.36,0,0,1,0,2.72Z"/><path class="cls-71" d="M1084.53,532.82h-10a1.36,1.36,0,0,1,0-2.72h10a1.36,1.36,0,1,1,0,2.72Z"/><path class="cls-71" d="M1093.32,532.82h-2.77a1.36,1.36,0,1,1,0-2.72h2.77a1.36,1.36,0,1,1,0,2.72Z"/></g><g class="cls-36"><path class="cls-71" d="M1063.89,521.16h-26.21a1.36,1.36,0,0,1,0-2.72h26.21a1.36,1.36,0,1,1,0,2.72Z"/><path class="cls-71" d="M1084.53,521.16h-10a1.36,1.36,0,0,1,0-2.72h10a1.36,1.36,0,0,1,0,2.72Z"/><path class="cls-71" d="M1093.32,521.16h-2.77a1.36,1.36,0,1,1,0-2.72h2.77a1.36,1.36,0,0,1,0,2.72Z"/></g><g class="cls-38"><path class="cls-71" d="M1063.89,509.5h-26.21a1.36,1.36,0,0,1,0-2.72h26.21a1.36,1.36,0,0,1,0,2.72Z"/><path class="cls-71" d="M1084.53,509.5h-10a1.36,1.36,0,0,1,0-2.72h10a1.36,1.36,0,1,1,0,2.72Z"/><path class="cls-71" d="M1093.32,509.5h-2.77a1.36,1.36,0,1,1,0-2.72h2.77a1.36,1.36,0,1,1,0,2.72Z"/></g><path class="cls-71" d="M1063.89,497.83h-26.21a1.36,1.36,0,1,1,0-2.71h26.21a1.36,1.36,0,1,1,0,2.71Z"/><path class="cls-71" d="M1084.53,497.83h-10a1.36,1.36,0,1,1,0-2.71h10a1.36,1.36,0,1,1,0,2.71Z"/><path class="cls-71" d="M1093.32,497.83h-2.77a1.36,1.36,0,1,1,0-2.71h2.77a1.36,1.36,0,1,1,0,2.71Z"/></g><path class="cls-41" d="M1199.64,482.29V368a6.06,6.06,0,0,0-6.06-6.06h-74.69a6.06,6.06,0,0,0-6.06,6.06V627.88a5.67,5.67,0,0,0,5.67,5.67h104.77a.39.39,0,0,0,.39-.39V510.68a8.5,8.5,0,0,0-2.4-5.92l-21.51-22.2A.39.39,0,0,1,1199.64,482.29Z"/><g class="cls-15"><path class="cls-72" d="M1155.35,542.35h-28.94a1.5,1.5,0,0,1,0-3h28.94a1.5,1.5,0,0,1,0,3Z"/><path class="cls-17" d="M1178.14,542.35H1167a1.5,1.5,0,0,1,0-3h11.1a1.5,1.5,0,0,1,0,3Z"/><path class="cls-17" d="M1187.84,542.35h-3.07a1.5,1.5,0,0,1,0-3h3.07a1.5,1.5,0,0,1,0,3Z"/></g><g class="cls-18"><path class="cls-73" d="M1155.35,529.48h-28.94a1.5,1.5,0,0,1,0-3h28.94a1.5,1.5,0,0,1,0,3Z"/><path class="cls-17" d="M1178.14,529.48H1167a1.5,1.5,0,0,1,0-3h11.1a1.5,1.5,0,0,1,0,3Z"/><path class="cls-17" d="M1187.84,529.48h-3.07a1.5,1.5,0,0,1,0-3h3.07a1.5,1.5,0,0,1,0,3Z"/></g><g class="cls-20"><path class="cls-74" d="M1155.35,516.61h-28.94a1.5,1.5,0,0,1,0-3h28.94a1.5,1.5,0,0,1,0,3Z"/><path class="cls-17" d="M1178.14,516.61H1167a1.5,1.5,0,0,1,0-3h11.1a1.5,1.5,0,0,1,0,3Z"/><path class="cls-17" d="M1187.84,516.61h-3.07a1.5,1.5,0,0,1,0-3h3.07a1.5,1.5,0,0,1,0,3Z"/></g><g class="cls-22"><path class="cls-75" d="M1155.35,503.73h-28.94a1.5,1.5,0,0,1,0-3h28.94a1.5,1.5,0,0,1,0,3Z"/><path class="cls-17" d="M1178.14,503.73H1167a1.5,1.5,0,0,1,0-3h11.1a1.5,1.5,0,0,1,0,3Z"/><path class="cls-17" d="M1187.84,503.73h-3.07a1.5,1.5,0,0,1,0-3h3.07a1.5,1.5,0,0,1,0,3Z"/></g><g class="cls-24"><path class="cls-76" d="M1155.35,490.86h-28.94a1.5,1.5,0,0,1,0-3h28.94a1.5,1.5,0,0,1,0,3Z"/><path class="cls-17" d="M1178.14,490.86H1167a1.5,1.5,0,0,1,0-3h11.1a1.5,1.5,0,0,1,0,3Z"/><path class="cls-17" d="M1187.84,490.86h-3.07a1.5,1.5,0,0,1,0-3h3.07a1.5,1.5,0,0,1,0,3Z"/></g><g class="cls-26"><path class="cls-77" d="M1155.35,478h-28.94a1.5,1.5,0,0,1,0-3h28.94a1.5,1.5,0,0,1,0,3Z"/><path class="cls-17" d="M1178.14,478H1167a1.5,1.5,0,0,1,0-3h11.1a1.5,1.5,0,0,1,0,3Z"/><path class="cls-17" d="M1187.84,478h-3.07a1.5,1.5,0,0,1,0-3h3.07a1.5,1.5,0,0,1,0,3Z"/></g><g class="cls-28"><path class="cls-78" d="M1155.35,465.12h-28.94a1.5,1.5,0,0,1,0-3h28.94a1.5,1.5,0,0,1,0,3Z"/><path class="cls-17" d="M1178.14,465.12H1167a1.5,1.5,0,0,1,0-3h11.1a1.5,1.5,0,0,1,0,3Z"/><path class="cls-17" d="M1187.84,465.12h-3.07a1.5,1.5,0,0,1,0-3h3.07a1.5,1.5,0,0,1,0,3Z"/></g><g class="cls-30"><path class="cls-79" d="M1155.35,452.24h-28.94a1.5,1.5,0,0,1,0-3h28.94a1.5,1.5,0,0,1,0,3Z"/><path class="cls-17" d="M1178.14,452.24H1167a1.5,1.5,0,0,1,0-3h11.1a1.5,1.5,0,0,1,0,3Z"/><path class="cls-17" d="M1187.84,452.24h-3.07a1.5,1.5,0,0,1,0-3h3.07a1.5,1.5,0,0,1,0,3Z"/></g><g class="cls-32"><path class="cls-80" d="M1155.35,439.37h-28.94a1.5,1.5,0,0,1,0-3h28.94a1.5,1.5,0,0,1,0,3Z"/><path class="cls-17" d="M1178.14,439.37H1167a1.5,1.5,0,0,1,0-3h11.1a1.5,1.5,0,0,1,0,3Z"/><path class="cls-17" d="M1187.84,439.37h-3.07a1.5,1.5,0,0,1,0-3h3.07a1.5,1.5,0,0,1,0,3Z"/></g><g class="cls-34"><path class="cls-81" d="M1155.35,426.5h-28.94a1.5,1.5,0,0,1,0-3h28.94a1.5,1.5,0,0,1,0,3Z"/><path class="cls-17" d="M1178.14,426.5H1167a1.5,1.5,0,0,1,0-3h11.1a1.5,1.5,0,0,1,0,3Z"/><path class="cls-17" d="M1187.84,426.5h-3.07a1.5,1.5,0,0,1,0-3h3.07a1.5,1.5,0,0,1,0,3Z"/></g><g class="cls-36"><path class="cls-82" d="M1155.35,413.63h-28.94a1.5,1.5,0,0,1,0-3h28.94a1.5,1.5,0,0,1,0,3Z"/><path class="cls-17" d="M1178.14,413.63H1167a1.5,1.5,0,0,1,0-3h11.1a1.5,1.5,0,0,1,0,3Z"/><path class="cls-17" d="M1187.84,413.63h-3.07a1.5,1.5,0,0,1,0-3h3.07a1.5,1.5,0,0,1,0,3Z"/></g><g class="cls-38"><path class="cls-83" d="M1155.35,400.76h-28.94a1.5,1.5,0,0,1,0-3h28.94a1.5,1.5,0,0,1,0,3Z"/><path class="cls-17" d="M1178.14,400.76H1167a1.5,1.5,0,0,1,0-3h11.1a1.5,1.5,0,0,1,0,3Z"/><path class="cls-17" d="M1187.84,400.76h-3.07a1.5,1.5,0,0,1,0-3h3.07a1.5,1.5,0,0,1,0,3Z"/></g><path class="cls-84" d="M1155.35,387.88h-28.94a1.5,1.5,0,0,1,0-3h28.94a1.5,1.5,0,0,1,0,3Z"/><path class="cls-17" d="M1178.14,387.88H1167a1.5,1.5,0,0,1,0-3h11.1a1.5,1.5,0,0,1,0,3Z"/><path class="cls-17" d="M1187.84,387.88h-3.07a1.5,1.5,0,0,1,0-3h3.07a1.5,1.5,0,0,1,0,3Z"/><path class="cls-41" d="M527,596.08H746.78a5.54,5.54,0,0,1,5.54,5.54v43.13a5.67,5.67,0,0,1-5.67,5.67H527a5.54,5.54,0,0,1-5.54-5.54V601.62A5.54,5.54,0,0,1,527,596.08Z"/><path class="cls-12" d="M695.83,635.4H660.17a1.5,1.5,0,0,1,0-3h35.66a1.5,1.5,0,0,1,0,3Z"/><path class="cls-12" d="M724.38,614.09H660.17a1.5,1.5,0,0,1,0-3h64.21a1.5,1.5,0,0,1,0,3Z"/><path class="cls-12" d="M724.38,624.75H660.17a1.5,1.5,0,0,1,0-3h64.21a1.5,1.5,0,1,1,0,3Z"/><path class="cls-85" d="M577.61,614V559.88a4.65,4.65,0,0,1,4.64-4.65h30.23a4.64,4.64,0,0,1,3.34,1.42l21.7,22.43a4.62,4.62,0,0,1,1.31,3.22v63.47a4.65,4.65,0,0,1-4.64,4.65H569.56a4.65,4.65,0,0,1-4.65-4.65V629a4.62,4.62,0,0,1,1.31-3.23Z"/><path class="cls-86" d="M991.17,539.85h61.28a5.74,5.74,0,0,1,5.74,5.74v97.35a5.67,5.67,0,0,1-5.67,5.67H991.09a5.67,5.67,0,0,1-5.67-5.67V545.6A5.74,5.74,0,0,1,991.17,539.85Z"/><circle class="cls-13" cx="1021.81" cy="629.26" r="9.57"/><rect class="cls-13" x="1012.23" y="593.4" width="19.15" height="15.36"/><polygon class="cls-13" points="1031.38 571.38 1021.81 563.34 1012.23 571.38 1012.23 582.49 1019.13 582.49 1019.13 576.23 1024.74 576.23 1024.74 582.49 1031.38 582.49 1031.38 571.38"/><polygon class="cls-87" points="1058.19 580.79 1070.74 563.34 1058.19 563.34 1058.19 580.79"/><rect class="cls-17" x="1035.21" y="529.38" width="35.74" height="35.74" rx="2.87"/><path class="cls-88" d="M1052.06,555.67a1.49,1.49,0,0,1-1.22-.63l-6.17-8.69a1.5,1.5,0,0,1,2.44-1.74l4.88,6.87,9-14.2a1.5,1.5,0,0,1,2.54,1.6L1053.33,555a1.48,1.48,0,0,1-1.23.7Z"/><rect class="cls-89" x="1150.35" y="565.13" width="83.49" height="83.49" rx="5.77"/><rect class="cls-90" x="1161.74" y="587.42" width="60.72" height="3" rx="1.5"/><rect class="cls-91" x="1161.74" y="623.32" width="32.81" height="3" rx="1.5"/><rect class="cls-92" x="1161.74" y="611.36" width="60.72" height="3" rx="1.5"/><rect class="cls-93" x="1161.97" y="599.39" width="16.85" height="3" rx="1.5"/><rect class="cls-94" x="1183.76" y="599.39" width="38.7" height="3" rx="1.5"/><path class="cls-95" d="M938.43,683.05l0,10.23a3.4,3.4,0,0,0,2.21,3.2l24.44,9.06a17,17,0,0,0,11.87,0l24.46-9.18a3.4,3.4,0,0,0,2.21-3.18v-9Z"/><path class="cls-13" d="M940.14,686.12l22.92,9.47a16.93,16.93,0,0,0,12.31.26l27-9.87a1.81,1.81,0,0,0,0-3.4l-25.58-8.81a16.9,16.9,0,0,0-10.1-.3l-26.25,7.34A2.81,2.81,0,0,0,940.14,686.12Z"/><path class="cls-96" d="M1068,683.17l0,12.38a4.12,4.12,0,0,0,2.69,3.87l29.59,11a20.51,20.51,0,0,0,14.38,0l29.62-11.13a4.1,4.1,0,0,0,2.67-3.85V684.51Z"/><path class="cls-17" d="M1070.06,686.88l27.76,11.47a20.52,20.52,0,0,0,14.91.31l32.75-11.95a2.19,2.19,0,0,0,0-4.12l-31-10.67a20.53,20.53,0,0,0-12.24-.36l-31.78,8.89A3.41,3.41,0,0,0,1070.06,686.88Z"/><rect class="cls-97" x="1381.43" y="536.53" width="33.49" height="33.49"/><rect class="cls-97" x="1381.43" y="502.78" width="33.49" height="33.49"/><rect class="cls-97" x="1381.43" y="470.04" width="33.49" height="33.49"/><rect class="cls-97" x="1381.43" y="436.55" width="33.49" height="33.49"/><rect class="cls-97" x="1381.43" y="402.62" width="33.49" height="33.49"/><rect class="cls-97" x="1381.43" y="369.13" width="33.49" height="33.49"/><rect class="cls-97" x="1381.43" y="335.63" width="33.49" height="33.49"/><rect class="cls-97" x="1381.43" y="302.14" width="33.49" height="33.49"/><rect class="cls-97" x="1381.43" y="268.32" width="33.49" height="33.49"/><rect class="cls-97" x="1381.43" y="234.83" width="33.49" height="33.49"/><path class="cls-13" d="M1377.26,567.94h39.5a2.83,2.83,0,0,1,2.83,2.83V593.6a0,0,0,0,1,0,0h-45.17a0,0,0,0,1,0,0V570.77A2.83,2.83,0,0,1,1377.26,567.94Z"/><path class="cls-95" d="M1367.52,593.6h59a5.67,5.67,0,0,1,5.67,5.67v20.42a0,0,0,0,1,0,0h-70.39a0,0,0,0,1,0,0V599.27A5.67,5.67,0,0,1,1367.52,593.6Z"/><rect class="cls-98" x="1236.66" y="185.52" width="16.53" height="16.53"/><rect class="cls-98" x="1253.19" y="185.52" width="16.53" height="16.53"/><rect class="cls-98" x="1269.72" y="185.52" width="16.53" height="16.53"/><rect class="cls-98" x="1286.26" y="185.52" width="16.53" height="16.53"/><rect class="cls-98" x="1302.79" y="185.52" width="16.53" height="16.53"/><rect class="cls-98" x="1319.32" y="185.52" width="16.53" height="16.53"/><rect class="cls-98" x="1335.85" y="185.52" width="16.53" height="16.53"/><rect class="cls-98" x="1352.38" y="185.52" width="16.53" height="16.53"/><polyline class="cls-99" points="1381.43 234.83 1414.92 201.34 1414.92 570.02"/><line class="cls-99" x1="1381.43" y1="268.32" x2="1414.92" y2="234.83"/><line class="cls-99" x1="1381.43" y1="301.81" x2="1414.92" y2="268.32"/><line class="cls-99" x1="1381.43" y1="335.63" x2="1414.92" y2="302.14"/><line class="cls-99" x1="1381.43" y1="369.13" x2="1414.92" y2="335.63"/><line class="cls-99" x1="1381.43" y1="402.62" x2="1414.92" y2="369.13"/><line class="cls-99" x1="1381.43" y1="436.11" x2="1414.92" y2="402.62"/><line class="cls-99" x1="1381.43" y1="470.04" x2="1414.92" y2="436.55"/><line class="cls-99" x1="1381.43" y1="503.53" x2="1414.92" y2="470.04"/><line class="cls-99" x1="1381.43" y1="536.27" x2="1414.92" y2="502.78"/><line class="cls-99" x1="1381.43" y1="570.02" x2="1414.92" y2="536.53"/><polyline class="cls-99" points="1381.43 201.34 1401.85 147.17 1414.92 201.34"/><polyline class="cls-99" points="1269.72 185.52 1401.85 147.17 1469.26 172.96"/><polyline class="cls-99" points="1431.47 201.34 1446.28 172.96 1464.66 172.96 1483.55 172.96 1500.91 201.34 1464.66 201.34 1222.62 201.34 1235 186.11 1371.09 186.11 1381.43 201.34 1381.43 570.02"/><polyline class="cls-98" points="1482.43 172.96 1482.43 200.79 1464.83 172.96 1464.83 201.34"/><polyline class="cls-98" points="1464.83 173.32 1464.83 201.15 1447.23 173.32 1447.23 201.7"/><line class="cls-98" x1="1222.62" y1="201.34" x2="1175.47" y2="301.64"/><circle class="cls-13" cx="1221.13" cy="204.49" r="4.26"/><path class="cls-100" d="M857.26,563.6c1,18.13,7.29,81,8.17,89.49,1,10,.51,10.46,4.66,10.14,3.94-.3,3.89.32,2.8-12.19-1.84-21.3-15.07-154.58-16.34-165.83-.7-6.25-1.27-8.87-4.15-8.36-2.59.46-2.37,2.49-1.85,9.64C851.72,502.49,856,541,857.26,563.6Z"/><path class="cls-101" d="M897.34,562.32c3,17.72,14.82,78.53,16.6,86.81,2.07,9.69,1.48,10.09,5.77,9.74,3.95-.33,3.4,0,1-12.17-4.1-20.75-31-150.48-33.4-161.4-1.37-6.07-2.22-8.58-5-7.77-2.53.73-2.1,2.7-.82,9.67C884.32,502.81,893.66,540.27,897.34,562.32Z"/><rect class="cls-102" x="867.56" y="630.11" width="46.3" height="7.28" rx="3.64" transform="translate(-18.78 27.25) rotate(-1.73)"/><rect class="cls-103" x="865.07" y="606.55" width="45.53" height="6.71" rx="3.35" transform="translate(-18.06 27.15) rotate(-1.73)"/><rect class="cls-104" x="862.53" y="582.39" width="43.26" height="6.42" rx="3.21" transform="translate(-17.32 27.03) rotate(-1.73)"/><rect class="cls-105" x="860.57" y="559.44" width="42.62" height="6.52" rx="3.26" transform="translate(-16.63 26.95) rotate(-1.73)"/><rect class="cls-106" x="858" y="535.96" width="39.16" height="5.99" rx="3" transform="translate(-15.91 26.81) rotate(-1.73)"/><rect class="cls-107" x="855.35" y="494.49" width="30.96" height="4.76" rx="2.38" transform="translate(-14.64 26.59) rotate(-1.73)"/><path class="cls-108" d="M882.9,442.74a10.67,10.67,0,0,0,.77,5.93c1,1.79,4.11.64,6-.17a30.64,30.64,0,0,1-3.41,11,1,1,0,0,0-.21.8,1,1,0,0,0,.45.46,11.09,11.09,0,0,0,4.81,1.65,3.23,3.23,0,0,0,2.21-.38,3.49,3.49,0,0,0,1.1-1.9c1.19-3.77,2-7.65,2.94-11.48,1-3.67,2.12-7.39,1.87-11.17s-2.29-7.74-5.92-9C885.64,425.65,883.31,437.5,882.9,442.74Z"/><path class="cls-109" d="M860.73,402.5c-.24-1.47-.4-3.14.52-4.32.33-.43.79-.76,1.15-1.18a6.17,6.17,0,0,0,1.17-2.46c.2-.76.23-2.18.93-2.18s.66,1.63.72,2.37c.13,1.48.25,2.78.33,4.2a1.08,1.08,0,0,0,.23.73c.36.34.92,0,1.34-.21s1.39-.7,1.56-.24c.08.21-.14.74-.23.94-.68,1.48-1.89,2.77-2.65,4.21a11.53,11.53,0,0,0-1.36,5,4.29,4.29,0,0,1-.2,1.47c-1,2.43-2-.81-2.21-1.68C861.61,407,861.1,404.75,860.73,402.5Z"/><path class="cls-110" d="M876.47,448.29a65.57,65.57,0,0,1-4.57-10.65c-2.46-6.79-4.93-13.64-5.91-20.8-.38-2.71-.53-5.44-.68-8.17a2.4,2.4,0,0,0-.51-1.62c-.67-.65-1.81-.27-2.56.28-3.46,2.54-4.09,7.38-4.16,11.67-.29,16.48,3.43,33.39,12.88,46.9a10,10,0,0,0,3.37,3.39,1.88,1.88,0,0,0,1.77.17,2.39,2.39,0,0,0,.89-1.25,16.18,16.18,0,0,1,4.39-5.84,14.41,14.41,0,0,0,2.5-2.3c2.06-2.82-.58-3.93-2.42-5.53A24.94,24.94,0,0,1,876.47,448.29Z"/><path class="cls-111" d="M904.85,488.65a1.91,1.91,0,0,0,0,1.25c.29.58,1.06.68,1.71.66a15.07,15.07,0,0,0,8.7-3.07,5.32,5.32,0,0,0,2.2-3,6.32,6.32,0,0,0-.53-3.16,71.92,71.92,0,0,0-3.5-8.73c-1-1.94-3.82-9.43-5.65-10.63-2.79-1.83-.72,8.62-.78,10.48A82.9,82.9,0,0,1,904.85,488.65Z"/><path class="cls-110" d="M878.22,575.09a3.17,3.17,0,0,0-.89-.82l-2-1.45-.15-.13a11.09,11.09,0,0,1-2.66-3.2.4.4,0,0,0-.6-.26c-1,.37-3.19.64-2.93,1.9.15.74,1.08,2.13,1.24,2.88a6.74,6.74,0,0,1,.15,1.68,22.37,22.37,0,0,1-3.07,3.15,26.38,26.38,0,0,1-4.83,3c-.77.43.86,1.63,2.25,1.46a30.45,30.45,0,0,0,5.3-.92,22.55,22.55,0,0,0,6.46-3.51,5.72,5.72,0,0,0,1.63-1.62A2.17,2.17,0,0,0,878.22,575.09Z"/><path class="cls-110" d="M892.44,606.19a1.87,1.87,0,0,0,.14.68,1.57,1.57,0,0,0,.74.63,5.79,5.79,0,0,0,3.5.67,3.68,3.68,0,0,0,2.81-2,6.2,6.2,0,0,0-.06-3.83l-2.41-10.38a3,3,0,0,0-.58-1.36,2.57,2.57,0,0,0-1.38-.67c-4.19-1-2.46,3-2.34,5.16C893.07,598.77,892.23,602.47,892.44,606.19Z"/><path class="cls-71" d="M877.35,521.53c1.91,23.13,9.61,46.42,12.7,68.31.65,4.58.65,4.58,5.25,4.52s4.62-1.27,4.91-5.82c1.27-20,1.92-40.13,2.88-60.19.46-9.43.79-19.4-3.71-27.69-1.68-3.08-4.15-5.93-7.48-7.06C876.69,488.44,876.65,513.18,877.35,521.53Z"/><path class="cls-112" d="M887.8,513.83c-1.23,4.62-4.23,9-8.71,10.72-1.76.66-4.36,0-5.56,1.39a12.37,12.37,0,0,0-1.79,2.17c-1.92,3.76-4.37,5.89-6.61,9.27,2.21,3.56,4,11.21,5.06,15.66,1.48,6,3,11.23,4.4,15.53.4,1.22-2,2-3.55,2.81s-3,2.51-4.08.81c-4.76-7.3-7-14.36-11.24-22.64-2.64-5.17-6.16-13.25-6.89-19s.64-7.47,3.74-12.38c1.52-2.39,6.65-8.22,8.69-10.47,4.71-5.19,6.14-6.66,11.06-12.08.47-.53,2.47-2.7,3.06-3.49.39-.52,2.32.63,2.94.79,3.39.84,8.39,3.11,10.14,6.59S888.69,510.47,887.8,513.83Z"/><path class="cls-71" d="M873.53,525.3a18.28,18.28,0,0,1-2.34,0,14.72,14.72,0,0,1-3.1-.41,2.94,2.94,0,0,0-2.15.06A2.74,2.74,0,0,0,865,526a33.65,33.65,0,0,0-2.63,5.48,2.89,2.89,0,0,0-.12,1.59,4.6,4.6,0,0,0,1,1.43,13.43,13.43,0,0,1,1.81,2.89c2.32-3,4.14-4.51,6.07-8.27a15.9,15.9,0,0,1,1.95-2.82,9,9,0,0,1,1.66-1.13A11.94,11.94,0,0,0,873.53,525.3Z"/><path class="cls-110" d="M876.4,471.17c0,4.21.71,8,0,12.19-.46,2.75-2.46,2.14-2.87,4.75-.29,1.83.58,2.55.41,3.87-.38,2.91,5.25,3.32,7.49,3.62,8.34,1.1,8.74,4,16.59,3.4.78-.06,3,1.82,3.87.68.57-.74,1.2-5.51,1.45-6.42,2.68-9.56,3.58-11.49,5.47-21.24.49-2.5.74-6.41-.24-8.76s-3.22-3-5.8-3.71a38.51,38.51,0,0,0-7.86-1.34,15.25,15.25,0,0,1-3.8.39c-1.25,0-2.88-.51-3.49-1.47-1.29-.28-3-.42-4-.54-2.67-.37-4.34-1.1-4.86,1.9C877.72,464.65,876.42,466.4,876.4,471.17Z"/><path class="cls-11" d="M899.72,454.6c3,.45,6.76-4.45,8.08-8.15a25.74,25.74,0,0,0,1.44-10.94,13.66,13.66,0,0,0-1.8-5,11.48,11.48,0,0,0-3.21-3.41A19.08,19.08,0,0,0,894,423.87c-1.91,0-6.75.89-6.57,3.68,0,.52-2.31,1.24-1.6,3.28,1,2.74,4.21,3.83,6.64,4.72.52.19,1.28.47,1.47,1,.52,1.46-1.08,2.88-1,4.43a2.63,2.63,0,1,1-.92,4.3,10.46,10.46,0,0,0,3,7.73,16.77,16.77,0,0,0,2.4.77A22,22,0,0,1,899.72,454.6Z"/><path class="cls-11" d="M941.24,490.14c-2-5.3-7-9-12.2-11.19s-10.9-3.13-16.36-4.68a19.42,19.42,0,0,1-7.85-3.77c-4.24-3.8-4.17-18.16-3.18-19.91-1-1.63-4.12-1.06-5-.14,0,0-.06.6,0,.61a33.68,33.68,0,0,1-3,9.21c-1.12,2.38-2.33,4.72-3.3,7.17a31.77,31.77,0,0,0-2.13,11.15A16.83,16.83,0,0,0,892.35,490c1.73,1.91,4.19,3,6.21,4.58a14.1,14.1,0,0,1,4.78,7.29c.85,3.18.58,6.64,1.89,9.67a12.38,12.38,0,0,0,8.3,6.67,22.29,22.29,0,0,0,10.91-.29,23.8,23.8,0,0,0,8.19-3.52,22.45,22.45,0,0,0,6-6.7C941.85,502.46,943.44,495.86,941.24,490.14Z"/><rect class="cls-17" x="667.56" y="367.41" width="65.87" height="65.87" rx="5.62"/><circle class="cls-113" cx="700.5" cy="391.03" r="9.75"/><path class="cls-114" d="M700.5,400.79c-9.91,0-18,8.34-18,18.63h35.89C718.44,409.13,710.41,400.79,700.5,400.79Z"/><path class="cls-13" d="M620.29,633.35a4,4,0,0,0,1.43,2.37,22.22,22.22,0,0,1,5.43,10.33c.3,1.4.55,3,1.69,3.84a5.17,5.17,0,0,0,2.87.79,63.32,63.32,0,0,0,10.12-.15c-1.33-2.47-4.91-2.39-7.24-3.95s-3.13-4.48-3.77-7.18c-.59-2.46-1.17-5.09-.34-7.48.64-1.86,2.56-4.18,1.33-6.2-1.07-1.74-2.72-1.59-4-.57s-2,3.29-3.62,4.49C622.85,630.62,620.19,631.29,620.29,633.35Z"/><path class="cls-13" d="M697.86,596.7a1.76,1.76,0,0,0,.12,1.11,1.62,1.62,0,0,0,1.12.6,26.22,26.22,0,0,0,16-1.5,7.25,7.25,0,0,0,2.92-2,1.15,1.15,0,0,0,.27-.54c0-.44-.41-.81-.85-.86a3,3,0,0,0-1.3.3,13.8,13.8,0,0,1-10.32-.29,3.39,3.39,0,0,1-1.37-.95,3.45,3.45,0,0,1-.52-1.84,16.2,16.2,0,0,1,.26-4.23,8.35,8.35,0,0,0,.29-2.22,2.2,2.2,0,0,0-1.07-1.87C698.65,580.06,698.1,594.79,697.86,596.7Z"/><path class="cls-111" d="M664.63,550.94s15.58,1.53,27.83,0,14.59-1.66,15.6-1.79,1.42,0,0,3.57-7.94,24.81-9.21,29.45-4.06,9.9.51,9.24,6.72-.13,9.61-7,15.66-31.46,16.81-35.26,4-10.69-3.7-12.74-43.79-6.25-43.79-6.25Z"/><path class="cls-88" d="M676.12,534.37S669.23,555.28,668,564s-6.89,31.48-12.51,39.23-18.63,25.88-21.19,27.92-5,2.94-6.89,0-4.6-5.62,3.7-17.36,13.66-20.68,13.92-28.86,2-44.17,4.08-48.51a46.58,46.58,0,0,1,4.34-7.4Z"/><path class="cls-115" d="M713.23,425.67c-.14-.78-.54-1.72-1.33-1.72-.56,0-1,.5-1.3,1a23.55,23.55,0,0,0-3.52,8.22c-1.09,0-2.07.19-3.17.15a15.24,15.24,0,0,1,1.71,6.42,15.58,15.58,0,0,1-.64,4.22c-1.37,5.33-4.24,10.09-6.94,14.89-1,1.73-1.29,3.58-2.26,5.31a7.47,7.47,0,0,1,1.64,2.31c.39,1.19,1.11,2.45,2.33,2.73,1.41.32,2.72-.85,3.53-2.06,1.66-2.49,2.41-5.47,3.13-8.39L709,448.36c.65-2.63,1.3-5.26,2.06-7.85,1.09-3.71,2.43-7.43,2.5-11.3A17.45,17.45,0,0,0,713.23,425.67Z"/><path class="cls-115" d="M686.73,433.22c-.69-1-2-1.5-2.54-2.57-.44-.86-.33-1.94-.85-2.75a.42.42,0,0,0-.17-.18c-.91-.53-.95,2.65-.9,3a7.32,7.32,0,0,0,.8,2.5H683a18.68,18.68,0,0,1,2.45,6.42,14.92,14.92,0,0,1,0,3.95c-.45,5.06-2.28,9.79-4,14.53-.61,1.71-.63,3.45-1.24,5.16a6.78,6.78,0,0,1,1.73,1.9c.51,1,1.29,2.12,2.39,2.21,1.26.11,2.23-1.13,2.77-2.34a24.89,24.89,0,0,0,1.56-8.08c.27-3.28.53-6.55.8-9.82.2-2.49.41-5,.71-7.46a46.62,46.62,0,0,1,1.29-6.47Z"/><path class="cls-116" d="M669.4,493.58s9.79-27.66,10.81-32.39,1.4-6,4.21-6.12,4.85-.52,4.85,1.4-1.66,27.19-1.66,27.19S675.1,495.49,669.4,493.58Z"/><path class="cls-115" d="M673.49,482.51c2.13,0,5.08-.1,6.35-1.94s.64-4.13-.1-6.12a45,45,0,0,0-5.89-10.86,5.9,5.9,0,0,0-1.53-1.58,5.34,5.34,0,0,0-3.6-.41,14.79,14.79,0,0,0-8.22,4,10.55,10.55,0,0,0-3.14,8.4,13,13,0,0,0,2.85,6.33,6.09,6.09,0,0,0,3.4,2.53c.52.1,1.12.11,1.46.52a1.77,1.77,0,0,1,.3.67,18.6,18.6,0,0,1-.71,11.42,25,25,0,0,0,6.33-.69c1.74-.41,4.54-1.72,3.34-3.95a4.35,4.35,0,0,1-.55-2.74C673.85,486.57,673.42,484,673.49,482.51Z"/><path class="cls-117" d="M676.12,487.53c-3.41,1.69-5.27,2.56-9,3.07s-4.42,3.23-6.12,6.12S657.06,508.3,656,511s-5.28,15.92-7.15,19.11-2.91,9.15,1.87,8.81,18.22,2.21,22,1.53,10-8,10-9.81-.68-23.66-.68-26.07,6.64-10.08,8.51-13,6.64-8.51,8.85-13.28a126,126,0,0,0,5.6-13c1.12-3.43.87-3.85-3-4.36s-5.49-1.74-7.37,3-6.76,13-9.48,15.53S677.48,486.86,676.12,487.53Z"/><path class="cls-118" d="M659.7,458.51a17.44,17.44,0,0,1,7.18-2.19,22.68,22.68,0,0,0,7.3-1.85c2.24-1.17,4.11-3.41,4.07-5.93a16.2,16.2,0,0,1-2,13.18,14.18,14.18,0,0,1-11.65,6.21,20.06,20.06,0,0,0-2.9,0,3.35,3.35,0,0,0-2.45,1.37,3.16,3.16,0,0,0,.22,3.25,8.52,8.52,0,0,0,2.53,2.28,2.22,2.22,0,1,0,2.27,3,6.17,6.17,0,0,1,1.36,3.57,3.62,3.62,0,0,1-1.81,3.23c-1.49.74-3.3.08-4.71-.81a30.94,30.94,0,0,1-6.85-6.67,10.13,10.13,0,0,1-2.43-4.07,6.09,6.09,0,0,1,3.13-6.38,23.38,23.38,0,0,0,2.78-1.27c1-.73.62-.94.77-2.13A7,7,0,0,1,659.7,458.51Z"/><path class="cls-88" d="M1035.88,479.07c.35.87,1.48,1,2.42,1.07a115.86,115.86,0,0,0,15.36-.52c.55-.06,1.29-.41,1.09-.92a.83.83,0,0,0-.33-.34c-1.79-1.26-4.14-1.28-6.32-1.57s-4.6-1.11-5.43-3.14a10,10,0,0,1-.44-3,13.4,13.4,0,0,0-1.31-4.85c-.56-1.15-1.8-2.38-2.93-1.78C1036,465.06,1035,477,1035.88,479.07Z"/><path class="cls-88" d="M964,373.07c-.94,0-1.55.94-2,1.78a114.85,114.85,0,0,0-5.68,14.29c-.17.53-.15,1.34.4,1.36a.77.77,0,0,0,.45-.16c1.87-1.14,2.83-3.28,4-5.16s2.86-3.76,5.06-3.71a9.75,9.75,0,0,1,3,.82,13.73,13.73,0,0,0,5,.74c1.28,0,2.9-.7,2.8-2C976.77,378.77,966.23,373.15,964,373.07Z"/><path class="cls-119" d="M1060.4,368.7s-9.53,62.8-11.57,76.51-4.77,20.81-5.45,24.41-4.84,1.65-7.61,2.39c-2,.55-2.26-7.31-.56-18.54s1.36-21.11,0-39.49-.69-37.79-.69-37.79Z"/><path class="cls-120" d="M1068.05,371.3a102.54,102.54,0,0,1-15.67,12.87C1040.61,392,1027,401.1,1026,402.06c-1.7,1.71-5.11,4.47-24.17-4.06s-30-13.3-31.66-14.66.68-2.84,2-5.68,31,5.68,35.07,6.7,11.91,5.67,18.72-6.7,21.36-26.32,21.36-26.32Z"/><path class="cls-121" d="M1136.61,306.44a7.9,7.9,0,0,1,.91-.48c.43-.21.85-.44,1.27-.69a12.22,12.22,0,0,0,3.16-2.65,7.67,7.67,0,0,0,1.72-3.72,1.38,1.38,0,0,0,0-.7,1.5,1.5,0,0,0-.68-.73,3.14,3.14,0,0,0-2-.59,3.18,3.18,0,0,0-1.28.52,12,12,0,0,0-3.72,4.16c-1,1.61-3.06,2.37-4.11,3.93-.14.22,1.82,2.66,2.15,2.81s.62-.15.85-.34A18.82,18.82,0,0,1,1136.61,306.44Z"/><rect class="cls-13" x="1139.59" y="268.28" width="65.87" height="65.87" rx="5.67" transform="matrix(0.96, -0.28, 0.28, 0.96, -37.45, 339.99)"/><path class="cls-121" d="M1134.43,301.41c1-1.72,1.39-3.83,2.77-5.27a7.48,7.48,0,0,1,2.91-1.78c1-.45,2.34-2.27,3.39-2,.74.18-.73,2.37-1.35,3.45a21.9,21.9,0,0,1-4.14,5.65,22.71,22.71,0,0,1-2.15,1.61l-3.9,2.67c-1.66,1.13-2.62-.52-1-1.57.51-.35,1.23-.33,1.78-.71A6.46,6.46,0,0,0,1134.43,301.41Z"/><path class="cls-111" d="M1079.38,327s1.66-3.32,11.75-6,22-5.36,26.17-8.17,10.91-6.81,12.57-8.59,3.72-3.78,4.13-1.66c.66,3.42,3.24,3.44,3.47,4.93.11.73-.78.81-2.09,2.09-1.48,1.45-3.65,3.51-6.1,5.69-4.75,4.2-10.59,8.82-14.79,10.31C1106.19,328.57,1079.38,327,1079.38,327Z"/><path class="cls-121" d="M1140,307.57c.27,1,.64,1.81.91,2.82l6.56-5.85c.56-.5,1.28-1,2-.79s1,1.09,1.09,1.83c.48,2.51.86,5.34-.63,7.41-1.59,2.24-4.65,2.68-7.24,3.63a32.48,32.48,0,0,0-6.63,3.71c-2.2,1.47-4.13,3.52-6.32,5-.91.62-2.21,1.71-3.32,1.64-1.29-.08-3.27-1.69-3.43-3s-.58-3.36.44-4.17a18.06,18.06,0,0,1,4.53-2.2c1.46-.56,5.21-1.77,6.38-2.8A22.53,22.53,0,0,0,1140,307.57Z"/><path class="cls-88" d="M1049.68,366.32c7.32,6.82,11.58,13.34,14.3,11.29s25.7-28.82,27.23-33.25,4.26-6,11.75-6.72,13.73-1.91,20.53-6.67c6.62-4.64,14.7-9.5,15.38-11s-.54-2.49-2-4.61c-1.15-1.72.86-5.42-5.61-.76-6.84,4.92-12.94,8-17.7,9.11-5,1.18-15.92,1.28-22.39,1.79a104.49,104.49,0,0,1-13.1,0c-1.88,0-5.28,2-9.71,5.27s-25.19,21.45-26.38,24.17S1047.17,364,1049.68,366.32Z"/><path class="cls-121" d="M1073.72,306.72a9.84,9.84,0,0,0,.29,3.81c.67,3,1.73,6.21,4.22,8.06a15.23,15.23,0,0,0,3,1.57,16.63,16.63,0,0,0,4.47,1.47,14.48,14.48,0,0,0,3.83-.15,18.19,18.19,0,0,0,5.09-1.32,8.21,8.21,0,0,0,3.87-3.44,8.11,8.11,0,0,0,.59-5.47,18.61,18.61,0,0,0-2.12-5.17q-1.2-2.13-2.59-4.14c-1.36-2-3.08-4-5.43-4.32a8,8,0,0,0-3.32.35,22.2,22.2,0,0,0-7.07,3.43C1076.73,302.68,1074.11,304.42,1073.72,306.72Z"/><path class="cls-115" d="M1099.73,309.78c-1.89-.91-4,.44-5.69,1.75a33.77,33.77,0,0,1-6.25,4.25c-.43.21-1.35.37-1.4,0-.43-2.82-3.05-4.76-5.29-6.54l-.46-.35c-.77-.81-3.82-2.85-3.46-3.87a2.36,2.36,0,0,1,1.58-1.3,14.28,14.28,0,0,1,4.93-.21c1.66.05,3.49-.19,4.6-1.42.45-.5.78-1.15,1.39-1.44a8.46,8.46,0,0,1,1.9-.29,2.31,2.31,0,0,0,1.61-1.38,8.84,8.84,0,0,0,4-5.22c.24-.88.13-2.11-.75-2.31-1.26-.28-1.75,1.85-3,2.15a2,2,0,0,1-1.3-.25c-1.05-.52-1.91-1.36-3-1.86a2.67,2.67,0,0,0-3.21.39c-.65.84-.46,2.16-1.19,2.93-1.56,1.62-4.84-1.07-6.38.56-.84.89-.42,2.38-1,3.48-.61,1.28-2.23,1.61-3.52,2.2a7.26,7.26,0,0,0-3.47,9.13c.59,1.35,1.59,2.49,2.17,3.84.36.86.54,1.78.91,2.64a12.7,12.7,0,0,0,3.46,4.1c2.91,2.59,6,5.25,9.7,6.31a12.48,12.48,0,0,0,9.06-.89,11.38,11.38,0,0,0,5.69-7.06,16.4,16.4,0,0,0,.44-4.31C1101.88,312.89,1101.46,310.62,1099.73,309.78Zm-23.45,2.15c0-1.86,3.43-1.66,3.54-1.58a8.42,8.42,0,0,1,2.52,2.72,5.12,5.12,0,0,1,1.07,2.36,2.57,2.57,0,0,1-.17,1.29,2.08,2.08,0,0,1-.18.26,8.38,8.38,0,0,1-2.63-.34C1078,315.92,1076.28,314.44,1076.28,311.93Z"/><circle class="cls-95" cx="1194.79" cy="259.6" r="4.26"/><path class="cls-122" d="M1161.76,322l-9.23-31.71a1.74,1.74,0,0,1,2.08-2.18l32.63,7.7a1.74,1.74,0,0,1,.85,2.91l-23.41,24A1.75,1.75,0,0,1,1161.76,322Z"/><path class="cls-41" d="M1223.18,415.83h121a5.71,5.71,0,0,1,5.71,5.71v36.4a5.71,5.71,0,0,1-5.71,5.71h-121a5.71,5.71,0,0,1-5.71-5.71V421.5A5.67,5.67,0,0,1,1223.18,415.83Z"/><path class="cls-110" d="M1304.36,656a72.06,72.06,0,0,1-.93,9c-.08.44,0,1,.38,1.08a2.28,2.28,0,0,0,1.76-.87c1.61-2.06,2.34-4.8,3-7.55a5,5,0,0,1,1-2.62,4.61,4.61,0,0,1,1-.86,2.46,2.46,0,0,0,.82-2.81,7.1,7.1,0,0,0-1.74-2.58c-.44-.49-1.2-.52-1.64-1-.92-1-1.52-2.45-2.43-3.46-2.37-2.59-5.29-.56-3.48,2.44,1,1.6,1.3,2,2.11,3.41S1304.43,654.31,1304.36,656Z"/><path class="cls-110" d="M1249.78,656.36a6.73,6.73,0,0,0-1.23,1.81,2.27,2.27,0,0,1-1.34,1.07c-1.93-1.36-3.93-2.36-5.89-3.93-.35-.28-.84-.48-1.14-.15s-.16,1.43.12,2a18.38,18.38,0,0,0,5.24,6,4.94,4.94,0,0,1,1.75,2.14,10.6,10.6,0,0,1,.54,1.29,2.38,2.38,0,0,0,2,1.83,2.08,2.08,0,0,0,1.51-.38,2.82,2.82,0,0,0,.69-1.59c.07-1.6,0-3.23.13-4.82a12,12,0,0,1,.64-3.18A16.42,16.42,0,0,1,1249.78,656.36Z"/><path class="cls-123" d="M1274.87,552.19a29.82,29.82,0,0,1-1.53,6.81c-1,2.21-7.66,22.47-9.7,30.3s-5.79,21.1-7,27.57-7,29.79-7.32,31.75-3.09,6.2,0,8.08,3.92,3.92,6.64-1.36,10.21-17.87,11.23-26.38,1.36-9.53,4.94-15.32,14.3-26.73,14.3-26.73V552.19Z"/><path class="cls-5" d="M1298.19,552.19a25.49,25.49,0,0,0,1.36,5.79c1,2.55,4.94,13.11,4.77,18.72s-4.43,26.13-6.13,30.17-3.57,8.81-1.53,11.87,6.32,12.09,9.12,18.9,2.65,7.68,0,9.87-3.16,3.06-8.61-3.91-10.89-14.3-13.28-17.54-3.91-5.78-3.57-15.66,2-26.89,2-26.89-9.33-16.7-9.18-24.14a28.13,28.13,0,0,0,1.69-7.18Z"/><path class="cls-124" d="M1309,463.52c-.7-1-2-1.49-2.54-2.57-.44-.86-.33-1.93-.85-2.74a.49.49,0,0,0-.17-.18c-.91-.53-1,2.64-.9,3a7.45,7.45,0,0,0,.8,2.51h0a18.73,18.73,0,0,1,2.45,6.43,15.28,15.28,0,0,1,0,3.94c-.45,5.07-2.29,9.8-4,14.54-.6,1.71-.62,3.45-1.23,5.15a7,7,0,0,1,1.73,1.91c.51,1,1.29,2.11,2.39,2.21,1.26.11,2.23-1.13,2.77-2.34a24.94,24.94,0,0,0,1.56-8.09c.27-3.27.53-6.54.8-9.82.2-2.49.4-5,.71-7.46a46.62,46.62,0,0,1,1.29-6.47Z"/><path class="cls-124" d="M1260.25,463.52c.69-1,2-1.49,2.53-2.57.44-.86.33-1.93.85-2.74a.59.59,0,0,1,.17-.18c.91-.53,1,2.64.91,3a7.69,7.69,0,0,1-.81,2.51h.06a18.55,18.55,0,0,0-2.46,6.43,15.28,15.28,0,0,0,0,3.94c.45,5.07,2.29,9.8,4,14.54.6,1.71.63,3.45,1.23,5.15a7,7,0,0,0-1.73,1.91c-.5,1-1.29,2.11-2.39,2.21-1.26.11-2.23-1.13-2.76-2.34a25.22,25.22,0,0,1-1.57-8.09q-.39-4.91-.8-9.82c-.2-2.49-.4-5-.71-7.46a45.8,45.8,0,0,0-1.28-6.47Z"/><path class="cls-125" d="M1305.85,490.83c-2.3-.38-3.19-2.81-3.57-.26a64.12,64.12,0,0,1-5.11,16.34,50.28,50.28,0,0,0-4.14,14h-3.57c.72.6-9,.39-8.89.29v0l-2.42.64s0-1.15-1.41-7.15-5.23-13.66-5.23-13.66-5.36-13.4-6.13-15.57-1.66.76-4.72,1.79-3.83-.64-3.06,2.68,5.74,20.17,6.63,26.29,4.45,8.85,4.6,13.28c.26,7.66,6,16.47,5,19.53-1.41,4.25-1.18,4.41,1,4.09,3.75-.56,4.36,1.54,10.11,1.53,2.82,0,6.88-1.66,11.47-1.66s3.32-1.28,2.43-2.81-1.28-4.08-.13-8.3,3.32-9.57,2.94-12.76,1.15-5.24,2.93-8.56,5.75-25.91,6.26-28.72S1308.15,491.21,1305.85,490.83Z"/><path class="cls-5" d="M1301.45,514.17a31.84,31.84,0,0,0-3.23-2.09c0-.08-.06-.15-.08-.23-.22-1.37,1.2-2.59,1-4,0-.84-.64-1.4-1.42-1.86h0a4.78,4.78,0,0,1-2.46-2.86c-.34-1.53.54-3.11.36-4.66a6,6,0,0,0-1-2.43,18.34,18.34,0,0,0-5.19-5.23c-1.3-.87-3-1.58-4.39-.94a5.4,5.4,0,0,0-2.18,2.44,4.08,4.08,0,0,0-3.56-2.28,6.08,6.08,0,0,0-4.08,1.54c-2.93,2.44-3.81,6.64-3.45,10.43.15,1.61.48,3.21.57,4.81-.28.78-.78,1.46-1.13,2.22a3,3,0,0,0-.18,2.44,8.07,8.07,0,0,0,1.07,1.34,3.33,3.33,0,0,1,.42.79h0a5.73,5.73,0,0,1-3.08,4.09c-2.3,1-4.87-.24-7.26-1-.55-.19-1.37-.21-1.52.35a.93.93,0,0,0,.1.61,7.16,7.16,0,0,0,2.74,2.83,7.56,7.56,0,0,0,3.77,1.7c1.22.07,2.47-.46,3.66-.17,1.53.38,1.79,2.15,3.27,2.72,1.87.71,4.57-.19,5.33-1.76a6.8,6.8,0,0,1,5.49-3.77c3-.28,5.63,2.74,6.83,4.06,1.58,1.74,4.16,2,6.51,1.91,1.46,0,3.21-1.33,4.22-2.39a4.33,4.33,0,0,0,.94-1.77A6.83,6.83,0,0,0,1301.45,514.17Zm-19.15-3.83a16.33,16.33,0,0,0-1.07-2.08l4.82-.71c-.17.52-.33,1.05-.45,1.59a9.93,9.93,0,0,0-.26,3.21,5.07,5.07,0,0,0,.09.54l-2.49.2c0-.15,0-.3,0-.45A6.86,6.86,0,0,0,1282.3,510.34Z"/><path class="cls-110" d="M1284.06,531.3c3.66-4,5-4.35,5.4-10.35a2.51,2.51,0,0,1-.87-1.52c-.31-3-.09-6.7-.45-9.67-2.24.13-5.9.2-6.27.81-.25.43-.21,3.88-.25,5.07s-.06,3.16-.17,4.3a1.57,1.57,0,0,1-.88,1.3C1280.56,521.55,1280.22,528.3,1284.06,531.3Z"/><path class="cls-124" d="M1279.59,501.11a11.92,11.92,0,0,0,3.23-4.35,6,6,0,0,0,1.22,3,16.87,16.87,0,0,0,5.41,5,.48.48,0,0,0,.36.09c.11,0,.18-.14.24-.24.33-.61.51-1.39,1.13-1.69a1.42,1.42,0,0,1,1.63.49,3.08,3.08,0,0,1,.54,1.73c.08,1.23-.26,2.68-1.38,3.21a.71.71,0,0,1-.87-.07,13.26,13.26,0,0,1-3.27,6.6,5.27,5.27,0,0,1-2.15,1.62,5,5,0,0,1-3.94-.24c-2.47-1.17-3.59-2.89-5-5.58a16.75,16.75,0,0,1-1.22-3.37c-.21-.92-1.26-4.31-.31-4.73a6.15,6.15,0,0,1,1,0,6.4,6.4,0,0,0,1.22-.3A7.44,7.44,0,0,0,1279.59,501.11Z"/><path class="cls-12" d="M1304.83,450.74h-35.66a1.5,1.5,0,0,1,0-3h35.66a1.5,1.5,0,0,1,0,3Z"/><path class="cls-12" d="M1333.38,429.44h-64.21a1.5,1.5,0,0,1,0-3h64.21a1.5,1.5,0,0,1,0,3Z"/><path class="cls-12" d="M1333.38,440.09h-64.21a1.5,1.5,0,0,1,0-3h64.21a1.5,1.5,0,0,1,0,3Z"/><rect class="cls-5" x="1226.85" y="424.02" width="30.47" height="30.47" rx="2.65"/><g class="cls-30"><polygon class="cls-126" points="1248.01 450.24 1230.08 450.24 1239.04 434.39 1248.01 450.24"/><polygon class="cls-127" points="1254.1 450.24 1240.8 450.24 1247.45 438.48 1254.1 450.24"/><circle class="cls-128" cx="1249.16" cy="431.43" r="3.16"/></g><rect class="cls-41" x="919.63" y="328.21" width="31.94" height="23.2" rx="2.74"/><path class="cls-129" d="M932.56,345.92l4.72-13.38A.81.81,0,0,1,938,332h.65l-4.74,13.38a.81.81,0,0,1-.76.56Z"/><path class="cls-130" d="M948,340a.89.89,0,0,1-.44.78l-7.75,4.33v-.78a.91.91,0,0,1,.45-.79l6.5-3.52v0l-6.5-3.53a.9.9,0,0,1-.45-.79v-.78l7.75,4.33a.9.9,0,0,1,.44.79Z"/><path class="cls-131" d="M923.22,340a.9.9,0,0,1,.44-.79l7.75-4.33v.78a.9.9,0,0,1-.45.79l-6.5,3.53v0l6.5,3.52a.91.91,0,0,1,.45.79v.78l-7.75-4.33a.89.89,0,0,1-.44-.78Z"/><path class="cls-132" d="M931,345.92a.71.71,0,0,1-.42-.12l-6.72-4.2a.78.78,0,0,1,0-1.34l6.72-4.2a.78.78,0,0,1,1.09.25.79.79,0,0,1-.25,1.09l-5.64,3.53,5.64,3.52a.81.81,0,0,1,.25,1.1A.79.79,0,0,1,931,345.92Z"/><path class="cls-133" d="M940.19,345.92a.79.79,0,0,1-.67-.37.81.81,0,0,1,.25-1.1l5.64-3.52-5.64-3.53a.79.79,0,0,1-.25-1.09.78.78,0,0,1,1.09-.25l6.72,4.2a.78.78,0,0,1,0,1.34l-6.72,4.2A.71.71,0,0,1,940.19,345.92Z"/><path class="cls-134" d="M933.72,346.09a.75.75,0,0,1-.26,0,.8.8,0,0,1-.49-1l3.85-11a.79.79,0,0,1,1.5.52l-3.85,11A.79.79,0,0,1,933.72,346.09Z"/></svg>