<svg id="Layer_3" data-name="Layer 3" xmlns="http://www.w3.org/2000/svg" xmlns:xlink="http://www.w3.org/1999/xlink" viewBox="0 0 1927.56 796"><defs><style>.cls-1{fill:#fff;}.cls-12,.cls-16,.cls-19,.cls-2,.cls-22,.cls-4,.cls-5,.cls-6,.cls-9{fill:none;}.cls-2{stroke:#c80000;}.cls-12,.cls-16,.cls-19,.cls-2,.cls-22,.cls-5,.cls-6,.cls-9{stroke-miterlimit:10;stroke-width:3px;}.cls-3{fill:#c80000;}.cls-5{stroke:#fff;stroke-linecap:round;}.cls-6{stroke:#d1dcf9;}.cls-7{fill:url(#linear-gradient);}.cls-8{fill:#d1dcf9;}.cls-9{stroke:#7085f1;}.cls-10{fill:url(#linear-gradient-2);}.cls-11{fill:#7085f1;}.cls-12{stroke:#3d47a5;}.cls-13{fill:url(#linear-gradient-3);}.cls-14{fill:#3d47a5;}.cls-15{fill:url(#linear-gradient-4);}.cls-16{stroke:#fcc2c2;}.cls-17{fill:url(#linear-gradient-5);}.cls-18{fill:#fcc2c2;}.cls-19{stroke:#fcb1b6;}.cls-20{fill:url(#linear-gradient-6);}.cls-21{fill:#fcb1b6;}.cls-22{stroke:#e25959;}.cls-23{fill:url(#linear-gradient-7);}.cls-24{fill:#e25959;}.cls-25{font-size:21px;fill:#1a2669;font-family:Roboto-Regular, Roboto;}.cls-26{letter-spacing:-0.01em;}.cls-27{letter-spacing:-0.01em;}.cls-28{letter-spacing:0.01em;}.cls-29{letter-spacing:-0.07em;}.cls-30{letter-spacing:-0.01em;}</style><linearGradient id="linear-gradient" x1="332.03" y1="551.7" x2="423.78" y2="551.7" gradientUnits="userSpaceOnUse"><stop offset="0" stop-color="#c80000"/><stop offset="0.09" stop-color="#c91c20"/><stop offset="0.28" stop-color="#cb5661"/><stop offset="0.46" stop-color="#cd8697"/><stop offset="0.63" stop-color="#cfabc1"/><stop offset="0.78" stop-color="#d0c6e0"/><stop offset="0.91" stop-color="#d1d6f2"/><stop offset="1" stop-color="#d1dcf9"/></linearGradient><linearGradient id="linear-gradient-2" x1="529.67" y1="551.7" x2="621.42" y2="551.7" gradientUnits="userSpaceOnUse"><stop offset="0" stop-color="#d1dcf9"/><stop offset="1" stop-color="#7085f1"/></linearGradient><linearGradient id="linear-gradient-3" x1="727.31" y1="551.7" x2="819.05" y2="551.7" gradientUnits="userSpaceOnUse"><stop offset="0" stop-color="#7085f1"/><stop offset="1" stop-color="#3d47a5"/></linearGradient><linearGradient id="linear-gradient-4" x1="925.08" y1="551.7" x2="1016.83" y2="551.7" gradientUnits="userSpaceOnUse"><stop offset="0" stop-color="#3d47a5"/><stop offset="0.12" stop-color="#43449e"/><stop offset="0.29" stop-color="#523c8c"/><stop offset="0.49" stop-color="#6c2f6e"/><stop offset="0.71" stop-color="#8f1d43"/><stop offset="0.94" stop-color="#bc060e"/><stop offset="1" stop-color="#c80000"/></linearGradient><linearGradient id="linear-gradient-5" x1="1122.18" y1="551.7" x2="1213.92" y2="551.7" gradientUnits="userSpaceOnUse"><stop offset="0" stop-color="#c80000"/><stop offset="1" stop-color="#fcc2c2"/></linearGradient><linearGradient id="linear-gradient-6" x1="1319.46" y1="551.7" x2="1411.21" y2="551.7" gradientUnits="userSpaceOnUse"><stop offset="0" stop-color="#fcc2c2"/><stop offset="0.53" stop-color="#fcbbbd"/><stop offset="1" stop-color="#fcb1b6"/></linearGradient><linearGradient id="linear-gradient-7" x1="1516.5" y1="551.7" x2="1608.25" y2="551.7" gradientUnits="userSpaceOnUse"><stop offset="0" stop-color="#fcc2c2"/><stop offset="0.16" stop-color="#fabbbb"/><stop offset="0.39" stop-color="#f6a9a9"/><stop offset="0.66" stop-color="#ee8b8b"/><stop offset="0.95" stop-color="#e46161"/><stop offset="1" stop-color="#e25959"/></linearGradient></defs><title>ilustracion-1-Hannah</title><circle class="cls-1" cx="280.67" cy="550.9" r="36"/><circle class="cls-2" cx="280.67" cy="550.9" r="36"/><circle class="cls-3" cx="280.67" cy="550.9" r="14.17"/><rect class="cls-3" x="137.87" y="547.7" width="91.74" height="8"/><rect class="cls-3" x="276.67" y="281.05" width="8" height="215.14"/><circle class="cls-3" cx="137.87" cy="550.9" r="7.4"/><circle class="cls-3" cx="280.67" cy="275.04" r="18.22"/><path class="cls-4" d="M229.61,550.9c0,1.62.09,3.22.23,4.8h0A51.06,51.06,0,1,0,284.67,500v0c-1.32-.1-2.65-.17-4-.17A51.12,51.12,0,0,0,229.61,550.9Z"/><path class="cls-3" d="M229.61,550.9a51.12,51.12,0,0,1,51.06-51.06c1.35,0,2.68.07,4,.17v-8c-1.32-.09-2.65-.15-4-.15a59.13,59.13,0,0,0-59.06,59.06c0,1.62.08,3.22.21,4.8h8C229.7,554.12,229.61,552.52,229.61,550.9Z"/><path class="cls-3" d="M331.62,547.7c.07,1.06.11,2.12.11,3.2A51.12,51.12,0,0,1,280.67,602c-1.35,0-2.68-.07-4-.17v8c1.32.09,2.66.15,4,.15a59.12,59.12,0,0,0,59.06-59.06c0-1.07,0-2.14-.09-3.2Z"/><polyline class="cls-5" points="270.79 281.36 280.7 268.68 290.56 281.4"/><circle class="cls-1" cx="478.01" cy="550.9" r="36"/><circle class="cls-6" cx="478.01" cy="550.9" r="36"/><circle class="cls-3" cx="478.01" cy="550.9" r="14.17"/><rect class="cls-7" x="332.03" y="547.7" width="91.74" height="8"/><rect class="cls-8" x="474.01" y="326.24" width="8" height="169.95"/><circle class="cls-8" cx="478.01" cy="343.19" r="18.22"/><path class="cls-4" d="M427,550.9c0,1.62.09,3.22.23,4.8h0A51.06,51.06,0,1,0,482,500v0c-1.32-.1-2.65-.17-4-.17A51.12,51.12,0,0,0,427,550.9Z"/><path class="cls-8" d="M427,550.9A51.12,51.12,0,0,1,478,499.84c1.35,0,2.68.07,4,.17v-8c-1.32-.09-2.65-.15-4-.15A59.13,59.13,0,0,0,419,550.9c0,1.62.09,3.22.21,4.8h8C427,554.12,427,552.52,427,550.9Z"/><path class="cls-8" d="M529,547.7c.07,1.06.11,2.12.11,3.2A51.12,51.12,0,0,1,478,602c-1.35,0-2.68-.07-4-.17v8c1.33.09,2.66.15,4,.15a59.12,59.12,0,0,0,59.06-59.06c0-1.07,0-2.14-.09-3.2Z"/><polyline class="cls-5" points="468.13 349.51 478.04 336.83 487.9 349.55"/><circle class="cls-1" cx="675.65" cy="550.9" r="36"/><circle class="cls-9" cx="675.65" cy="550.9" r="36"/><circle class="cls-3" cx="675.65" cy="550.9" r="14.17"/><rect class="cls-10" x="529.67" y="547.7" width="91.74" height="8"/><rect class="cls-11" x="671.65" y="281.05" width="8" height="215.14"/><circle class="cls-11" cx="675.65" cy="274.04" r="18.22"/><path class="cls-4" d="M624.59,550.9c0,1.62.08,3.22.23,4.8h0A51.06,51.06,0,1,0,679.65,500v0c-1.32-.1-2.65-.17-4-.17A51.12,51.12,0,0,0,624.59,550.9Z"/><path class="cls-11" d="M624.59,550.9a51.12,51.12,0,0,1,51.06-51.06c1.35,0,2.68.07,4,.17v-8c-1.32-.09-2.65-.15-4-.15a59.12,59.12,0,0,0-59.06,59.06c0,1.62.08,3.22.21,4.8h8C624.67,554.12,624.59,552.52,624.59,550.9Z"/><path class="cls-11" d="M726.6,547.7c.07,1.06.11,2.12.11,3.2A51.12,51.12,0,0,1,675.65,602c-1.35,0-2.68-.07-4-.17v8c1.32.09,2.65.15,4,.15a59.12,59.12,0,0,0,59.06-59.06c0-1.07,0-2.14-.09-3.2Z"/><polyline class="cls-5" points="665.76 280.36 675.68 267.68 685.54 280.4"/><circle class="cls-1" cx="873.29" cy="550.9" r="36"/><circle class="cls-12" cx="873.29" cy="550.9" r="36"/><circle class="cls-3" cx="873.29" cy="550.9" r="14.17"/><rect class="cls-13" x="727.31" y="547.7" width="91.74" height="8"/><rect class="cls-14" x="869.29" y="370.86" width="8" height="127.91"/><circle class="cls-14" cx="873.29" cy="387.68" r="18.22"/><path class="cls-4" d="M822.23,550.9c0,1.62.08,3.22.23,4.8h0A51.06,51.06,0,1,0,877.29,500v0c-1.33-.1-2.66-.17-4-.17A51.12,51.12,0,0,0,822.23,550.9Z"/><path class="cls-14" d="M822.23,550.9a51.12,51.12,0,0,1,51.06-51.06c1.34,0,2.67.07,4,.17v-8c-1.33-.09-2.66-.15-4-.15a59.12,59.12,0,0,0-59.06,59.06c0,1.62.08,3.22.21,4.8h8C822.31,554.12,822.23,552.52,822.23,550.9Z"/><path class="cls-14" d="M924.23,547.7c.07,1.06.12,2.12.12,3.2A51.12,51.12,0,0,1,873.29,602c-1.35,0-2.68-.07-4-.17v8c1.32.09,2.65.15,4,.15a59.13,59.13,0,0,0,59.06-59.06c0-1.07,0-2.14-.1-3.2Z"/><polyline class="cls-5" points="863.4 394 873.32 381.32 883.17 394.04"/><circle class="cls-1" cx="1071.06" cy="550.9" r="36"/><circle class="cls-2" cx="1071.06" cy="550.9" r="36"/><circle class="cls-3" cx="1071.06" cy="550.9" r="14.17"/><rect class="cls-15" x="925.08" y="547.7" width="91.74" height="8"/><rect class="cls-3" x="1067.06" y="427.35" width="8" height="68.84"/><circle class="cls-3" cx="1071.06" cy="443.55" r="18.22"/><path class="cls-4" d="M1020,550.9c0,1.62.08,3.22.23,4.8h0A51.06,51.06,0,1,0,1075.06,500v0c-1.32-.1-2.65-.17-4-.17A51.12,51.12,0,0,0,1020,550.9Z"/><path class="cls-3" d="M1020,550.9a51.12,51.12,0,0,1,51.06-51.06c1.35,0,2.68.07,4,.17v-8c-1.32-.09-2.65-.15-4-.15A59.12,59.12,0,0,0,1012,550.9c0,1.62.08,3.22.21,4.8h8C1020.08,554.12,1020,552.52,1020,550.9Z"/><path class="cls-3" d="M1122,547.7c.06,1.06.11,2.12.11,3.2A51.12,51.12,0,0,1,1071.06,602c-1.35,0-2.68-.07-4-.17v8c1.32.09,2.65.15,4,.15a59.12,59.12,0,0,0,59.06-59.06c0-1.07,0-2.14-.09-3.2Z"/><polyline class="cls-5" points="1061.17 449.87 1071.09 437.19 1080.94 449.9"/><circle class="cls-1" cx="1268.16" cy="550.9" r="36"/><circle class="cls-16" cx="1268.16" cy="550.9" r="36"/><circle class="cls-3" cx="1268.16" cy="550.9" r="14.17"/><rect class="cls-17" x="1122.18" y="547.7" width="91.74" height="8"/><rect class="cls-18" x="1264.16" y="380.83" width="8" height="117.96"/><circle class="cls-18" cx="1268.16" cy="397.68" r="18.22"/><path class="cls-4" d="M1217.1,550.9c0,1.62.08,3.22.23,4.8h0A51.06,51.06,0,1,0,1272.16,500v0c-1.32-.1-2.65-.17-4-.17A51.12,51.12,0,0,0,1217.1,550.9Z"/><path class="cls-18" d="M1217.1,550.9a51.12,51.12,0,0,1,51.06-51.06c1.35,0,2.68.07,4,.17v-8c-1.32-.09-2.66-.15-4-.15a59.12,59.12,0,0,0-59.06,59.06c0,1.62.08,3.22.21,4.8h8C1217.18,554.12,1217.1,552.52,1217.1,550.9Z"/><path class="cls-18" d="M1319.11,547.7c.06,1.06.11,2.12.11,3.2A51.12,51.12,0,0,1,1268.16,602c-1.35,0-2.68-.07-4-.17v8c1.32.09,2.65.15,4,.15a59.13,59.13,0,0,0,59.06-59.06c0-1.07,0-2.14-.09-3.2Z"/><polyline class="cls-5" points="1258.27 404 1268.19 391.32 1278.05 404.04"/><circle class="cls-2" cx="1465.44" cy="550.9" r="36"/><circle class="cls-19" cx="1465.44" cy="550.9" r="36"/><circle class="cls-3" cx="1465.44" cy="550.9" r="14.17"/><rect class="cls-20" x="1319.46" y="547.7" width="91.74" height="8"/><rect class="cls-21" x="1461.44" y="293.51" width="8" height="202.68"/><circle class="cls-21" cx="1465.44" cy="306.21" r="18.22"/><path class="cls-4" d="M1414.38,550.9c0,1.62.09,3.22.23,4.8h0A51.06,51.06,0,1,0,1469.44,500v0c-1.32-.1-2.65-.17-4-.17A51.12,51.12,0,0,0,1414.38,550.9Z"/><path class="cls-21" d="M1414.38,550.9a51.12,51.12,0,0,1,51.06-51.06c1.35,0,2.68.07,4,.17v-8c-1.32-.09-2.65-.15-4-.15a59.12,59.12,0,0,0-59.06,59.06c0,1.62.08,3.22.21,4.8h8C1414.47,554.12,1414.38,552.52,1414.38,550.9Z"/><path class="cls-21" d="M1516.39,547.7c.07,1.06.11,2.12.11,3.2A51.12,51.12,0,0,1,1465.44,602c-1.35,0-2.68-.07-4-.17v8c1.32.09,2.66.15,4,.15a59.12,59.12,0,0,0,59.06-59.06c0-1.07,0-2.14-.09-3.2Z"/><polyline class="cls-5" points="1455.56 312.53 1465.47 299.85 1475.33 312.56"/><circle class="cls-1" cx="1662.48" cy="550.9" r="36"/><circle class="cls-22" cx="1662.48" cy="550.9" r="36"/><circle class="cls-3" cx="1662.48" cy="550.9" r="14.17"/><rect class="cls-23" x="1516.5" y="547.7" width="91.74" height="8"/><rect class="cls-24" x="1658.48" y="413.75" width="8" height="85.02"/><circle class="cls-24" cx="1662.48" cy="429.55" r="18.22"/><path class="cls-4" d="M1611.42,550.9c0,1.62.08,3.22.23,4.8h0A51.06,51.06,0,1,0,1666.48,500v0c-1.32-.1-2.65-.17-4-.17A51.12,51.12,0,0,0,1611.42,550.9Z"/><path class="cls-24" d="M1611.42,550.9a51.12,51.12,0,0,1,51.06-51.06c1.35,0,2.68.07,4,.17v-8c-1.32-.09-2.65-.15-4-.15a59.12,59.12,0,0,0-59.06,59.06c0,1.62.08,3.22.21,4.8h8C1611.5,554.12,1611.42,552.52,1611.42,550.9Z"/><path class="cls-24" d="M1713.43,547.7c.06,1.06.11,2.12.11,3.2A51.12,51.12,0,0,1,1662.48,602c-1.35,0-2.68-.07-4-.17v8c1.32.09,2.65.15,4,.15a59.12,59.12,0,0,0,59.06-59.06c0-1.07,0-2.14-.09-3.2Z"/><rect class="cls-24" x="1713.54" y="547.7" width="91.74" height="8"/><circle class="cls-24" cx="1805.28" cy="550.9" r="7.4"/><polyline class="cls-5" points="1652.59 435.87 1662.51 423.19 1672.37 435.9"/><text class="cls-25" transform="translate(261.3 200.47)">SEO <tspan x="-27.28" y="25.2">CO</tspan><tspan class="cls-26" x="0.33" y="25.2">N</tspan><tspan x="14.82" y="25.2">TE</tspan><tspan class="cls-26" x="38.97" y="25.2">N</tspan><tspan x="53.46" y="25.2">T</tspan></text><text class="cls-25" transform="translate(411.83 269.26)">ONB<tspan class="cls-27" x="42.45" y="0">O</tspan><tspan x="56.55" y="0">ARDING </tspan><tspan x="19.53" y="25.2">CO</tspan><tspan class="cls-26" x="47.14" y="25.2">N</tspan><tspan x="61.63" y="25.2">TE</tspan><tspan class="cls-26" x="85.78" y="25.2">N</tspan><tspan x="100.27" y="25.2">T</tspan></text><text class="cls-25" transform="translate(629 199.81)">CO<tspan class="cls-26" x="27.61" y="0">N</tspan><tspan x="42.1" y="0">TE</tspan><tspan class="cls-26" x="66.25" y="0">N</tspan><tspan x="80.74" y="0">T</tspan><tspan class="cls-28" x="-12.1" y="25.2">M</tspan><tspan x="6.32" y="25.2">ARKETING</tspan></text><text class="cls-25" transform="translate(802.53 314.13)">HELP SE<tspan class="cls-26" x="80.9" y="0">C</tspan><tspan x="93.91" y="0">TION </tspan><tspan x="24.1" y="25.2">CO</tspan><tspan class="cls-26" x="51.72" y="25.2">N</tspan><tspan x="66.2" y="25.2">TE</tspan><tspan class="cls-26" x="90.35" y="25.2">N</tspan><tspan x="104.84" y="25.2">T</tspan></text><text class="cls-25" transform="translate(1021.64 368.99)">COM<tspan class="cls-29" x="45.86" y="0">P</tspan><tspan x="57.79" y="0">A</tspan><tspan class="cls-30" x="71.07" y="0">N</tspan><tspan x="85.57" y="0">Y </tspan><tspan x="-21.49" y="25.2">WIKI CO</tspan><tspan class="cls-26" x="54.65" y="25.2">N</tspan><tspan x="69.14" y="25.2">TE</tspan><tspan class="cls-26" x="93.28" y="25.2">N</tspan><tspan x="107.77" y="25.2">T</tspan></text><text class="cls-25" transform="translate(1218.33 324.22)">REFERRAL<tspan x="3.18" y="25.2">CO</tspan><tspan class="cls-26" x="30.8" y="25.2">N</tspan><tspan x="45.29" y="25.2">TE</tspan><tspan class="cls-26" x="69.43" y="25.2">N</tspan><tspan x="83.92" y="25.2">T</tspan></text><text class="cls-25" transform="translate(1409.85 232.11)">RETE<tspan class="cls-26" x="49.1" y="0">N</tspan><tspan x="63.58" y="0">TION </tspan><tspan x="8.94" y="25.2">CO</tspan><tspan class="cls-26" x="36.56" y="25.2">N</tspan><tspan x="51.04" y="25.2">TE</tspan><tspan class="cls-26" x="75.19" y="25.2">N</tspan><tspan x="89.68" y="25.2">T</tspan></text><text class="cls-25" transform="translate(1611.01 330.52)">UPGRADE/<tspan x="-14.44" y="25.2">REPURC</tspan><tspan class="cls-28" x="64.73" y="25.2">H</tspan><tspan x="79.69" y="25.2">ASE </tspan><tspan x="4.82" y="50.4">CO</tspan><tspan class="cls-26" x="32.44" y="50.4">N</tspan><tspan x="46.93" y="50.4">TE</tspan><tspan class="cls-26" x="71.07" y="50.4">N</tspan><tspan x="85.56" y="50.4">T</tspan></text></svg>